<?xml version="1.0" standalone="no"?>
<!DOCTYPE svg PUBLIC "-//W3C//DTD SVG 1.1//EN" "http://www.w3.org/Graphics/SVG/1.1/DTD/svg11.dtd" >
<svg xmlns="http://www.w3.org/2000/svg">
<metadata></metadata>
<defs>
<font id="designkotfbold" horiz-adv-x="1144" >
<font-face units-per-em="2048" ascent="1638" descent="-410" />
<missing-glyph horiz-adv-x="573" />
<glyph horiz-adv-x="0" />
<glyph horiz-adv-x="682" />
<glyph horiz-adv-x="573" />
<glyph unicode=" "  horiz-adv-x="573" />
<glyph unicode="&#x09;" horiz-adv-x="573" />
<glyph unicode="&#xa0;" horiz-adv-x="573" />
<glyph horiz-adv-x="573" />
<glyph horiz-adv-x="573" />
<glyph horiz-adv-x="573" />
<glyph horiz-adv-x="573" />
<glyph horiz-adv-x="573" />
<glyph horiz-adv-x="573" />
<glyph horiz-adv-x="573" />
<glyph horiz-adv-x="573" />
<glyph horiz-adv-x="573" />
<glyph horiz-adv-x="573" />
<glyph horiz-adv-x="573" />
<glyph horiz-adv-x="573" />
<glyph horiz-adv-x="573" />
<glyph horiz-adv-x="573" />
<glyph horiz-adv-x="573" />
<glyph horiz-adv-x="573" />
<glyph horiz-adv-x="573" />
<glyph horiz-adv-x="573" />
<glyph unicode="&#xd;" horiz-adv-x="573" />
<glyph horiz-adv-x="573" />
<glyph horiz-adv-x="573" />
<glyph unicode="&#xa;" horiz-adv-x="573" />
<glyph unicode="&#x9;" horiz-adv-x="573" />
<glyph horiz-adv-x="573" />
<glyph horiz-adv-x="573" />
<glyph horiz-adv-x="573" />
<glyph horiz-adv-x="573" />
<glyph horiz-adv-x="573" />
<glyph horiz-adv-x="573" />
<glyph horiz-adv-x="573" />
<glyph unicode="!" horiz-adv-x="591" d="M156 0v281h278v-281h-278zM160 1489h254v-1069h-236z" />
<glyph unicode="&#x22;" horiz-adv-x="761" d="M96 1008v481h248v-481h-248zM418 1008v481h248v-481h-248z" />
<glyph unicode="#" horiz-adv-x="1249" d="M45 418v231h234l34 205h-207v229h244l64 390h245l-63 -390h170l65 390h244l-63 -390h196v-229h-233l-35 -205h207v-231h-244l-65 -408h-246l67 408h-172l-65 -408h-246l66 408h-197zM526 649h170l37 205h-174z" />
<glyph unicode="$" horiz-adv-x="1187" d="M80 1053q0 181 104 278.5t322 114.5v151h188v-151q163 -11 355 -72v-213q-205 47 -355 56v-369q110 -31 182.5 -61.5t131 -75.5t85.5 -107t27 -145q0 -192 -112 -301.5t-314 -128.5v-181h-188v179q-224 18 -400 75v213q238 -44 400 -55v387q-106 28 -179.5 60t-132 79 t-86.5 113t-28 154zM338 1057q0 -65 39 -99t129 -61v317q-168 -24 -168 -157zM694 266q168 31 168 189q0 55 -41 87.5t-127 57.5v-334z" />
<glyph unicode="%" horiz-adv-x="1808" d="M61 1077q0 189 97.5 303.5t259.5 114.5q163 0 257.5 -114t94.5 -304q0 -189 -93.5 -297t-258.5 -108q-166 0 -261.5 106t-95.5 299zM295 -33l991 1546h203l-989 -1546h-205zM324 1083q0 -101 20.5 -145.5t73.5 -44.5t73.5 44.5t20.5 145.5t-20.5 144t-73.5 43t-73.5 -43 t-20.5 -144zM1010 399q0 190 95.5 304t260.5 114q163 0 258.5 -114t95.5 -304q0 -189 -95 -298t-259 -109q-167 0 -261.5 106.5t-94.5 300.5zM1272 406q0 -102 20 -146.5t74 -44.5q52 0 72 44.5t20 146.5q0 100 -21 143t-71 43q-53 0 -73.5 -42.5t-20.5 -143.5z" />
<glyph unicode="&#x26;" horiz-adv-x="1357" d="M59 426q0 101 39.5 183t97.5 134.5t146 104.5q-109 139 -109 285q0 95 30.5 167t86 115t127.5 64.5t160 21.5q175 0 276 -89.5t101 -252.5q0 -252 -266 -401q32 -39 104.5 -124.5t116.5 -139.5q35 112 45 268h217q0 -279 -107 -469q82 -92 246 -293h-323l-86 100 q-77 -61 -174 -93t-197 -32q-250 0 -390.5 117t-140.5 334zM334 446q0 -110 64.5 -174.5t189.5 -64.5q147 0 231 63q-57 66 -160.5 196.5t-160.5 195.5q-164 -94 -164 -216zM502 1145q0 -93 78 -184l10 -11q164 88 164 209q0 127 -117 127q-67 0 -101 -36.5t-34 -104.5z" />
<glyph unicode="'" horiz-adv-x="428" d="M80 1008v481h266v-481h-266z" />
<glyph unicode="(" horiz-adv-x="716" d="M55 688v74q0 261 105.5 483t275.5 387h260q-167 -188 -273 -413.5t-106 -442.5v-102q0 -217 106 -442.5t273 -413.5h-260q-170 165 -275.5 387t-105.5 483z" />
<glyph unicode=")" horiz-adv-x="716" d="M20 -182h261q80 80 145.5 170.5t120 199t85 237t30.5 263.5v74q0 135 -30.5 263.5t-85 237t-120 199t-145.5 170.5h-261q167 -188 273 -413.5t106 -442.5v-102q0 -217 -106 -442.5t-273 -413.5z" />
<glyph unicode="*" horiz-adv-x="796" d="M47 1221l193 69l-193 74l111 184l159 -131l-26 215h215l-27 -215l162 133l107 -188l-193 -72l193 -69l-107 -193l-162 135l27 -211h-215l24 209l-161 -131z" />
<glyph unicode="+" horiz-adv-x="1085" d="M94 641v227h328v342h242v-342h325v-227h-325v-344h-242v344h-328z" />
<glyph unicode="," horiz-adv-x="614" d="M23 -223l127 502h305l-191 -502h-241z" />
<glyph unicode="-" horiz-adv-x="1085" d="M133 418v229h817v-229h-817z" />
<glyph unicode="." horiz-adv-x="532" d="M133 0v279h270v-279h-270z" />
<glyph unicode="/" horiz-adv-x="819" d="M25 -162l485 1772h274l-491 -1772h-268z" />
<glyph unicode="0" horiz-adv-x="1228" d="M80 733q0 387 137.5 578.5t394.5 191.5q258 0 396.5 -191.5t138.5 -578.5q0 -385 -138 -570.5t-397 -185.5q-532 0 -532 756zM362 733q0 -275 56 -400.5t194 -125.5q139 0 195.5 126t56.5 400q0 272 -57.5 406.5t-194.5 134.5t-193.5 -134t-56.5 -407z" />
<glyph unicode="1" horiz-adv-x="1228" d="M324 1174v215l499 120v-1509h-278v1208z" />
<glyph unicode="2" horiz-adv-x="1228" d="M154 0v209l335 330q283 280 283 514q0 113 -57 165t-195 52q-147 0 -354 -68v223q85 34 191 56t192 22q256 0 381 -107t125 -329q1 -170 -88 -327t-281 -353l-151 -156h581l-92 -231h-870z" />
<glyph unicode="3" horiz-adv-x="1228" d="M129 53v223q149 -35 241 -47t195 -12q132 0 189.5 51t62.5 158q0 68 -25 114t-74.5 70t-109 33.5t-143.5 9.5h-109v238h109q57 0 105.5 9.5t94.5 32t72.5 68t26.5 109.5q0 77 -46.5 117.5t-152.5 40.5q-189 0 -387 -66v221q78 35 192 57.5t195 22.5q246 0 364 -94 t118 -295q0 -209 -189 -313q242 -84 242 -375q0 -227 -133 -338t-377 -111q-223 0 -461 76z" />
<glyph unicode="4" horiz-adv-x="1228" d="M41 291v211l621 987h301v-965h266l-88 -233h-178v-291h-263v291h-659zM346 524h354v574z" />
<glyph unicode="5" horiz-adv-x="1228" d="M133 51v225q236 -59 440 -59q124 0 178 63.5t54 182.5q0 149 -67.5 201.5t-243.5 52.5q-146 0 -310 -23l52 795h847l-92 -236h-508l-22 -307q39 6 114 6q260 0 389.5 -119t129.5 -370q0 -236 -126.5 -361t-369.5 -125q-223 0 -465 74z" />
<glyph unicode="6" horiz-adv-x="1228" d="M78 690q0 144 16 261t44 200.5t70 146.5t88 101.5t104 62t114 32.5t121 9q203 0 416 -69v-217q-210 53 -363 53q-65 0 -115.5 -14.5t-95 -49t-72.5 -100.5t-36 -162q165 51 313 51q226 0 346.5 -125t120.5 -354q0 -250 -129 -394.5t-385 -144.5q-292 0 -424.5 182 t-132.5 531zM362 717q0 -75 1.5 -125t7.5 -108.5t17.5 -96t31.5 -75t48.5 -58.5t69.5 -34t95 -13q129 0 181 70t52 219q0 147 -54 205.5t-181 58.5q-138 0 -269 -43z" />
<glyph unicode="7" horiz-adv-x="1228" d="M127 1251v238h975v-203l-604 -1286h-297l590 1251h-664z" />
<glyph unicode="8" horiz-adv-x="1228" d="M55 406q0 231 246 364q-207 134 -207 338q0 183 134 291t378 108q241 0 377.5 -108.5t136.5 -290.5q0 -199 -211 -336q119 -55 192 -146t73 -220q0 -193 -147.5 -313t-418.5 -120q-270 0 -411.5 118t-141.5 315zM328 406q0 -94 73.5 -148.5t206.5 -54.5q138 0 210.5 54.5 t72.5 148.5q0 97 -78 164.5t-205 91.5q-127 -24 -203.5 -92t-76.5 -164zM379 1108q0 -89 52 -140.5t177 -93.5q124 44 179 95t55 139q0 81 -60.5 126.5t-175.5 45.5q-111 0 -169 -45.5t-58 -126.5z" />
<glyph unicode="9" horiz-adv-x="1228" d="M78 965q0 250 129.5 394t386.5 144q147 0 254.5 -48t173 -141t96.5 -222t31 -299q0 -199 -31.5 -348t-82 -237t-125.5 -141.5t-149.5 -71.5t-166.5 -18q-210 0 -432 74v219q217 -61 379 -61q66 0 116.5 15t93.5 50.5t70 101t37 161.5q-156 -50 -313 -50 q-226 0 -346.5 124.5t-120.5 353.5zM360 985q0 -147 54.5 -206.5t181.5 -59.5q126 0 268 43q0 75 -1.5 125t-7.5 108.5t-17 96t-31 75t-48.5 58.5t-69.5 34t-95 13q-129 0 -181.5 -69.5t-52.5 -217.5z" />
<glyph unicode=":" horiz-adv-x="546" d="M133 0v279h270v-279h-270zM133 795v280h270v-280h-270z" />
<glyph unicode=";" horiz-adv-x="546" d="M12 -223l127 502h305l-190 -502h-242zM137 795v280h273v-280h-273z" />
<glyph unicode="&#x3c;" horiz-adv-x="1085" d="M137 666l803 -525v269l-522 344l522 346v266l-803 -520v-180z" />
<glyph unicode="=" horiz-adv-x="1085" d="M98 446h889v230h-889v-230zM98 838h889v227h-889v-227z" />
<glyph unicode="&#x3e;" horiz-adv-x="1085" d="M145 141v269l523 344l-523 346v266l803 -520v-180z" />
<glyph unicode="?" horiz-adv-x="962" d="M51 1247v217q235 80 402 80q92 0 169 -23t136.5 -69.5t93 -121.5t33.5 -173q-3 -299 -219 -477q-70 -57 -100.5 -97t-30.5 -91v-72h-250v92q0 35 6 65.5t12 53t25 50t29.5 42.5t42.5 45t46.5 42.5t57.5 49.5q112 84 112 242q0 106 -48 156.5t-156 50.5q-143 0 -361 -62z M268 0v281h279v-281h-279z" />
<glyph unicode="@" horiz-adv-x="1867" d="M100 389q0 146 37 285t113 261t183 213.5t257.5 144.5t325.5 53q170 0 311.5 -56t237.5 -154.5t149 -234.5t53 -295q0 -300 -131 -468.5t-360 -168.5q-145 0 -219 88q-124 -88 -244 -88q-153 0 -239.5 102.5t-86.5 276.5q0 278 126.5 443t344.5 165q104 0 191 -49l6 31 h258l-131 -713q-2 -6 -2 -18q0 -49 51 -49q110 0 175 117t65 319q0 169 -62 298.5t-189.5 205.5t-305.5 76q-166 0 -300.5 -58t-225 -161.5t-139 -247.5t-48.5 -316q0 -303 170 -460.5t467 -157.5q226 0 504 110v-170q-108 -45 -251 -75.5t-255 -30.5q-397 0 -616.5 206 t-219.5 576zM764 350q0 -68 24.5 -109.5t67.5 -41.5q44 0 91 17t77 46l80 430q-67 31 -141 31q-51 0 -90 -28.5t-62.5 -79.5t-35 -117.5t-11.5 -147.5z" />
<glyph unicode="A" horiz-adv-x="1333" d="M12 0l484 1489h346l481 -1489h-287l-112 358h-514l-113 -358h-285zM485 594h363l-180 594z" />
<glyph unicode="B" horiz-adv-x="1316" d="M135 0v1489h555q256 0 366.5 -101.5t110.5 -324.5q0 -192 -118 -289q79 -43 119 -123t40 -217q0 -228 -127 -331t-368 -103h-578zM408 236h317q203 0 203 198q0 199 -203 199h-317v-397zM408 868h276q107 0 155 49.5t48 143.5q0 101 -51 146.5t-152 45.5h-276v-385z" />
<glyph unicode="C" horiz-adv-x="1189" d="M78 743q0 180 32.5 316.5t101.5 237.5t183.5 153.5t272.5 52.5q218 0 450 -73v-216q-131 29 -222 40.5t-196 11.5q-175 0 -255 -133.5t-80 -389.5q0 -250 81.5 -389t255.5 -139q180 0 416 57v-219q-252 -76 -450 -76q-126 0 -225.5 37.5t-167.5 105t-112.5 164 t-64.5 210.5t-20 249z" />
<glyph unicode="D" horiz-adv-x="1378" d="M137 0v1489h539q140 0 244 -33.5t170.5 -92.5t107 -151t56.5 -197.5t16 -244.5q0 -102 -7.5 -186t-25.5 -164.5t-48 -143t-76 -115.5t-107 -88t-144.5 -54t-185.5 -19h-539zM420 238h237q82 0 142 28t95.5 74t57 117t28.5 144t7 169q0 93 -7 161t-28 131.5t-57 102.5 t-96 62.5t-142 23.5h-237v-1013z" />
<glyph unicode="E" horiz-adv-x="1230" d="M129 0v1489h1006v-238h-723v-381h698l-92 -237h-606v-395h723v-238h-1006z" />
<glyph unicode="F" horiz-adv-x="1171" d="M129 0v1489h967v-238h-684v-381h639l-93 -237h-546v-633h-283z" />
<glyph unicode="G" horiz-adv-x="1396" d="M82 745q0 179 32.5 315.5t101.5 237t184.5 153t275.5 52.5q257 0 485 -73v-226q-219 62 -456 62q-334 0 -334 -521q0 -530 331 -530q50 0 128 15t145 40v342h-363v240h643v-852h-280v57q-160 -80 -299 -80q-128 0 -228.5 37.5t-168.5 104.5t-112.5 164t-64.5 211t-20 251 z" />
<glyph unicode="H" horiz-adv-x="1404" d="M133 0v1489h283v-617h571v617h283v-1489h-283v635h-571v-635h-283z" />
<glyph unicode="I" horiz-adv-x="495" d="M106 0v1489h283v-1489h-283z" />
<glyph unicode="J" horiz-adv-x="808" d="M16 33v213q162 -27 265 -27q66 0 91 28.5t25 106.5v1135h283v-1163q0 -340 -346 -340q-67 0 -161 13t-157 34z" />
<glyph unicode="K" horiz-adv-x="1320" d="M113 0v1489h282v-557l553 557h336l-725 -737l731 -752h-340l-555 571v-571h-282z" />
<glyph unicode="L" horiz-adv-x="1105" d="M121 0v1489h282v-1251h676l-92 -238h-866z" />
<glyph unicode="M" horiz-adv-x="1742" d="M133 0v1489h434l305 -1208l304 1208h434v-1489h-262v1182l-293 -1127h-367l-293 1127v-1182h-262z" />
<glyph unicode="N" horiz-adv-x="1437" d="M135 0v1489h387l508 -1186v1186h273v-1489h-388l-507 1186v-1186h-273z" />
<glyph unicode="O" horiz-adv-x="1406" d="M100 733q0 190 31 328.5t100.5 240t186.5 151.5t284 50t284 -50t187 -151.5t101 -240t31 -328.5q0 -189 -31 -325.5t-101 -235t-187 -147t-284 -48.5t-284 48.5t-186.5 147t-100.5 235t-31 325.5zM383 733q0 -267 73 -392.5t246 -125.5t246.5 125.5t73.5 392.5t-74.5 400 t-245.5 133t-245 -132.5t-74 -400.5z" />
<glyph unicode="P" horiz-adv-x="1314" d="M141 0v1489h572q257 0 378 -123t121 -387q0 -263 -121.5 -389.5t-377.5 -126.5h-289v-463h-283zM424 700h266q120 0 180 72.5t60 206.5q0 137 -59 204.5t-181 67.5h-266v-551z" />
<glyph unicode="Q" horiz-adv-x="1406" d="M102 733q0 190 30.5 328.5t100 240t186 151.5t283.5 50q134 0 235.5 -33.5t171 -95.5t113 -158t62.5 -213.5t19 -269.5q0 -281 -72 -457.5t-232 -244.5l254 -316h-335l-209 262h-7q-167 0 -283.5 48.5t-186 147t-100 235t-30.5 325.5zM383 733q0 -267 73 -392.5 t246 -125.5t246.5 125.5t73.5 392.5t-74.5 400t-245.5 133t-245 -132.5t-74 -400.5z" />
<glyph unicode="R" horiz-adv-x="1337" d="M139 0v1489h570q261 0 382 -111t121 -370q0 -184 -59 -292t-184 -155l313 -561h-317l-287 520h-258v-520h-281zM420 758h270q124 0 182 60t58 190q0 132 -57 187.5t-183 55.5h-270v-493z" />
<glyph unicode="S" horiz-adv-x="1167" d="M78 1096q0 407 510 407q219 0 430 -69v-215q-196 53 -410 53q-56 0 -98.5 -7t-82 -24.5t-60.5 -53.5t-21 -89q0 -34 6 -59.5t24 -46t36.5 -33.5t58.5 -28t73 -24.5t97 -25.5q117 -30 195 -63.5t139 -84t89 -121.5t28 -168q0 -226 -133.5 -346.5t-372.5 -120.5 q-235 0 -480 76v213q287 -57 459 -57q133 0 196.5 57t63.5 174q0 35 -12.5 61.5t-32.5 45t-59.5 35.5t-78.5 28.5t-105 28.5q-233 57 -346 161t-113 296z" />
<glyph unicode="T" horiz-adv-x="1325" d="M49 1251v238h1245l-92 -238h-414v-1251h-282v1251h-457z" />
<glyph unicode="U" horiz-adv-x="1384" d="M133 473v1016h283v-1014q0 -256 272 -256q135 0 206 60t71 196v1014h286v-1016q0 -262 -141.5 -379t-421.5 -117q-278 0 -416.5 116.5t-138.5 379.5z" />
<glyph unicode="V" horiz-adv-x="1349" d="M18 1489h287l371 -1210l368 1210h287l-471 -1489h-368z" />
<glyph unicode="W" horiz-adv-x="1908" d="M20 1489h281l217 -1219l256 1219h361l254 -1219l219 1219h280l-305 -1489h-381l-248 1133l-249 -1133h-381z" />
<glyph unicode="X" horiz-adv-x="1310" d="M14 0l480 743l-480 746h326l315 -494l320 494h321l-479 -744l479 -745h-323l-318 492l-317 -492h-324z" />
<glyph unicode="Y" horiz-adv-x="1314" d="M-6 1489h311l352 -576l353 576h311l-520 -840v-649h-285v651z" />
<glyph unicode="Z" horiz-adv-x="1220" d="M102 0v215l672 1036h-672v238h1010v-211l-684 -1040h721l-90 -238h-957z" />
<glyph unicode="[" horiz-adv-x="694" d="M92 -168v1782h533v-234h-271v-1314h271v-234h-533z" />
<glyph unicode="\" horiz-adv-x="819" d="M25 1610l491 -1772h268l-485 1772h-274z" />
<glyph unicode="]" horiz-adv-x="694" d="M72 66v-234h532v1782h-532v-234h270v-1314h-270z" />
<glyph unicode="^" horiz-adv-x="1161" d="M61 762l388 727h249l400 -727h-281l-237 436l-238 -436h-281z" />
<glyph unicode="_" horiz-adv-x="1120" d="M80 -102h958v-222h-958v222z" />
<glyph unicode="`" horiz-adv-x="528" d="M78 1489l141 -481h234l-76 481h-299z" />
<glyph unicode="a" d="M86 328q0 132 60 213.5t205.5 125.5t393.5 48v30q0 29 -14 49.5t-37.5 33t-60.5 20t-75 10t-89 2.5q-128 0 -295 -37v217q176 47 393 47q98 0 179 -21t143 -62t96.5 -108t34.5 -153v-743h-266v59q-157 -77 -326 -77q-156 0 -249 91.5t-93 254.5zM367 340q0 -141 143 -141 q103 0 235 75v230q-83 -1 -137.5 -5t-104.5 -14.5t-77 -28t-43 -46.5t-16 -70z" />
<glyph unicode="b" horiz-adv-x="1175" d="M131 0h275v57q49 -33 114.5 -54t126.5 -21q126 0 214 38t138 112.5t71.5 171t21.5 226.5q0 128 -23 226t-74.5 173.5t-141 115.5t-214.5 40q-106 0 -233 -36v491l-275 -82v-1458zM406 274v545q121 37 212 37q57 0 96 -25.5t59 -73.5t28 -102t8 -125q0 -76 -7.5 -129.5 t-27.5 -99.5t-59 -69t-97 -23q-102 0 -212 65z" />
<glyph unicode="c" horiz-adv-x="976" d="M78 539q0 126 26 224.5t81 172t146 112.5t214 39q200 0 354 -63v-215q-155 47 -303 47q-72 0 -119 -21t-72.5 -64.5t-35 -98t-9.5 -133.5q0 -85 9.5 -141.5t35.5 -100.5t73 -64t120 -20q144 0 317 49v-215q-171 -65 -374 -65q-463 0 -463 557z" />
<glyph unicode="d" horiz-adv-x="1175" d="M88 530q0 128 23 226t74.5 173.5t140.5 115.5t213 40q97 0 235 -36v409l273 82v-1540h-273v57q-51 -32 -121.5 -52.5t-134.5 -20.5q-118 0 -202.5 38t-133.5 111.5t-71.5 170.5t-22.5 226zM371 530q0 -60 4.5 -105t16.5 -87t33 -68.5t55 -42.5t81 -16t109.5 18.5 t103.5 44.5v543q-129 39 -213 39q-57 0 -96 -25.5t-58.5 -73.5t-27.5 -102t-8 -125z" />
<glyph unicode="e" d="M84 526q0 297 120 429t376 132q248 0 362.5 -124t114.5 -404q0 -83 -8 -151h-687q11 -103 62 -151t164 -48q194 0 430 65v-213q-227 -79 -447 -79q-261 0 -374 130t-113 414zM360 629h428q-6 123 -51.5 178t-156.5 55q-114 0 -161.5 -55t-58.5 -178z" />
<glyph unicode="f" horiz-adv-x="860" d="M25 842h192v-842h275v842h303v233h-303v125q0 69 18 95t80 26q46 0 116.5 -11t122.5 -28v215q-108 47 -266 47q-175 0 -260.5 -93t-85.5 -255v-121h-192v-233z" />
<glyph unicode="g" horiz-adv-x="1169" d="M82 567q0 -102 13.5 -182.5t45.5 -149.5t82.5 -114t128 -70.5t178.5 -25.5q134 0 232 38v-79q0 -96 -63 -126t-212 -30q-121 0 -288 37v-213q203 -49 383 -49q134 0 234 36t160 115t60 195v1126h-274v-43q-116 53 -240 53t-210 -34t-136 -102.5t-72 -161t-22 -220.5z M365 567q0 59 3.5 100.5t15 79.5t31 60.5t52 35.5t78.5 13q113 0 217 -51v-518q-125 -39 -219 -39q-45 0 -77.5 17t-51.5 44.5t-30.5 70.5t-15 86.5t-3.5 100.5z" />
<glyph unicode="h" horiz-adv-x="1200" d="M131 0v1458l275 82v-526q174 71 325 71q167 0 253.5 -95.5t86.5 -250.5v-739h-274v739q0 62 -32 90.5t-99 28.5q-69 0 -260 -72v-786h-275z" />
<glyph unicode="i" horiz-adv-x="491" d="M109 0v1075h274v-1075h-274zM109 1229v260h274v-260h-274z" />
<glyph unicode="j" horiz-adv-x="471" d="M-205 -147q143 -31 191 -31q62 0 87 22t25 78v1153h275v-1112q0 -148 -84.5 -253t-227.5 -105t-266 33v215zM98 1229v260h275v-260h-275z" />
<glyph unicode="k" horiz-adv-x="1087" d="M104 0v1458l275 82v-846l387 381h326l-527 -526l537 -549h-330l-393 387v-387h-275z" />
<glyph unicode="l" horiz-adv-x="491" d="M109 0v1458l274 82v-1540h-274z" />
<glyph unicode="m" horiz-adv-x="1892" d="M133 0v1014l273 82v-76q162 67 335 67q169 0 256 -100h2q233 100 420 100q167 0 253.5 -95.5t86.5 -250.5v-741h-274v741q0 62 -33 90.5t-100 28.5q-44 0 -124.5 -22t-148.5 -54q2 -14 2 -43v-741h-272v741q0 119 -135 119q-88 0 -268 -63v-797h-273z" />
<glyph unicode="n" horiz-adv-x="1198" d="M121 0v1012l276 82v-86q165 79 348 79q166 0 249 -93.5t83 -250.5v-743h-272v743q0 62 -30.5 89.5t-94.5 27.5q-94 0 -283 -76v-784h-276z" />
<glyph unicode="o" horiz-adv-x="1165" d="M84 528q0 -126 28 -224t87 -171.5t155.5 -112t227.5 -38.5q133 0 229 38t154 110.5t85 170.5t27 227q0 271 -117.5 415t-377.5 144q-498 0 -498 -559zM367 528q0 179 51 256.5t164 77.5q107 0 160 -79t53 -255q0 -172 -52.5 -246.5t-160.5 -74.5q-114 0 -164.5 73 t-50.5 248z" />
<glyph unicode="p" horiz-adv-x="1173" d="M131 -401v1415l275 82v-64q127 55 233 55q101 0 178.5 -25t129 -70t84.5 -112.5t47 -148.5t14 -182q0 -567 -453 -567q-116 0 -233 36v-337zM406 238q104 -31 210 -31q193 0 193 342q0 73 -7.5 125.5t-27.5 96.5t-59 66.5t-97 22.5q-100 0 -212 -51v-571z" />
<glyph unicode="q" horiz-adv-x="1173" d="M82 549q0 -567 453 -567q106 0 233 36v-419l272 82v1394h-272v-43q-121 55 -244 55q-122 0 -208.5 -37t-137 -109.5t-73.5 -168.5t-23 -223zM365 549q0 74 7.5 125.5t27 96t58.5 67t97 22.5q108 0 213 -51v-573q-79 -29 -199 -29h-12q-192 0 -192 342z" />
<glyph unicode="r" horiz-adv-x="862" d="M117 0v1014l274 82v-66q139 51 283 51q80 0 135 -6v-237q-62 4 -76 4h-59q-112 0 -283 -41v-801h-274z" />
<glyph unicode="s" horiz-adv-x="1024" d="M78 774q0 83 31 144.5t88 97.5t129 53.5t161 17.5q164 0 402 -59v-211q-235 51 -408 51q-149 0 -149 -84q0 -47 45 -71t162 -49q208 -44 305.5 -125.5t97.5 -225.5q0 -172 -116 -251.5t-339 -79.5q-87 0 -206.5 19.5t-188.5 49.5v207q201 -57 385 -57q113 0 162 23.5 t49 82.5q0 51 -43 74.5t-176 54.5q-206 48 -298.5 122.5t-92.5 215.5z" />
<glyph unicode="t" horiz-adv-x="880" d="M31 850v225h188v271l270 81v-352h302v-225h-302v-526q0 -70 19 -95.5t82 -25.5q81 0 235 37v-215q-152 -48 -278 -48q-165 0 -246.5 97t-81.5 254v522h-188z" />
<glyph unicode="u" horiz-adv-x="1198" d="M127 324v690l274 82v-787q0 -53 31.5 -76.5t95.5 -23.5q94 0 265 59v807h272v-1075h-272v55q-185 -73 -304 -73q-77 0 -141 19t-114.5 58t-78.5 106.5t-28 158.5z" />
<glyph unicode="v" horiz-adv-x="1073" d="M6 1075h268l265 -799l264 799h264l-369 -1075h-323z" />
<glyph unicode="w" horiz-adv-x="1679" d="M20 1075l283 -1075h342l197 801l194 -801h342l279 1075h-271l-180 -803l-188 803h-352l-187 -803l-188 803h-271z" />
<glyph unicode="x" horiz-adv-x="1089" d="M-2 0l393 537l-393 538h309l238 -327l239 327h310l-394 -538l394 -537h-310l-239 326l-238 -326h-309z" />
<glyph unicode="y" horiz-adv-x="1198" d="M129 365v649l274 82v-746q0 -52 31 -74t96 -22q87 0 265 53v768h272v-1130q0 -170 -123.5 -257t-329.5 -87q-175 0 -383 47v217q71 -18 156 -28.5t133 -10.5q58 0 96 3t75 12t58 26t33.5 45.5t12.5 69.5v108q-195 -65 -303 -65q-162 0 -262.5 82.5t-100.5 257.5z" />
<glyph unicode="z" horiz-adv-x="1054" d="M98 0v209l518 637h-514v229h859v-192l-527 -654h563l-88 -229h-811z" />
<glyph unicode="{" horiz-adv-x="860" d="M66 616v220q125 8 173 37.5t48 101.5v381q0 128 66.5 193t191.5 65h237v-221h-204q-20 0 -26.5 -7.5t-6.5 -27.5v-391q0 -170 -121 -242q121 -69 121 -233v-402q0 -20 7 -28.5t26 -8.5h204v-219h-237q-125 0 -191.5 65t-66.5 193v389q0 72 -46.5 100.5t-174.5 34.5z" />
<glyph unicode="|" horiz-adv-x="612" d="M170 -168v1782h272v-1782h-272z" />
<glyph unicode="}" horiz-adv-x="860" d="M94 53v-219h238q124 0 191 65t67 193v389q0 72 46.5 100.5t174.5 34.5v220q-125 7 -173 38t-48 101v381q0 128 -67 193t-191 65h-238v-221h205q20 0 26.5 -7.5t6.5 -27.5v-391q0 -170 121 -242q-121 -69 -121 -233v-402q0 -20 -7 -28.5t-26 -8.5h-205z" />
<glyph unicode="~" horiz-adv-x="946" d="M29 705q85 239 295 239q55 0 104.5 -22.5t80.5 -49t68 -49t70 -22.5q20 0 51.5 38t53.5 83l155 -113q-33 -87 -84.5 -142.5t-101 -75.5t-103.5 -20q-47 0 -93 22t-77 49t-69 49t-70 22t-69.5 -36.5t-61.5 -78.5z" />
<glyph unicode="&#xa1;" horiz-adv-x="591" d="M156 805h274v270h-274v-270zM158 -403h254v1069h-236z" />
<glyph unicode="&#xa2;" horiz-adv-x="1146" d="M74 539q0 233 120.5 376.5t360.5 167.5v207h188v-207q196 -16 306 -59v-215q-126 36 -306 45v-639q169 4 322 49v-215q-127 -50 -322 -61v-211h-188v211q-239 23 -360 167.5t-121 383.5zM356 539q0 -130 46 -206.5t153 -103.5v611q-106 -28 -152.5 -103.5t-46.5 -197.5z " />
<glyph unicode="&#xa3;" horiz-adv-x="1228" d="M78 0h999l86 231h-749q66 72 104.5 169t38.5 188q0 19 -4 51h383v217h-436q-28 108 -39 201q-2 12 -2 33q0 93 65 136.5t197 43.5q174 0 381 -68v223q-82 32 -201.5 55t-208.5 23q-246 0 -375 -102t-129 -307q0 -131 43 -238h-141v-217h191q8 -50 8 -78 q0 -110 -52.5 -197.5t-158.5 -132.5v-231z" />
<glyph unicode="&#xa4;" horiz-adv-x="1433" d="M45 1217l156 155l184 -178q141 106 322 106q188 0 333 -110l193 182l153 -155l-208 -185q75 -128 75 -284q0 -174 -86 -302l209 -192l-147 -160l-201 203q-141 -109 -323 -109q-172 0 -310 97l-194 -191l-148 160l199 182q-92 137 -92 309q0 161 84 293zM395 745 q0 -149 93 -246.5t217 -97.5q130 0 221.5 97t91.5 250q0 140 -89.5 239.5t-223.5 99.5q-131 0 -220.5 -99.5t-89.5 -242.5z" />
<glyph unicode="&#xa5;" horiz-adv-x="1433" d="M55 1489h312l352 -576l352 576h311l-407 -666h315v-188h-428v-103h428v-188h-428v-344h-284v344h-437v188h437v103h-437v188h324z" />
<glyph unicode="&#xa6;" horiz-adv-x="612" d="M166 -297v746h276v-746h-276zM166 743v746h276v-746h-276z" />
<glyph unicode="&#xa7;" horiz-adv-x="1034" d="M68 592q0 183 106 278q-96 93 -96 263q0 101 32.5 175t91 118t133.5 64.5t167 20.5q167 0 416 -71v-262q-244 61 -414 61q-80 0 -115 -21.5t-35 -72.5q0 -59 42 -89t159 -57q215 -48 316.5 -147.5t101.5 -273.5q0 -189 -101 -283q91 -102 91 -258q0 -207 -120 -301 t-351 -94q-90 0 -214 24t-196 60v258q209 -70 391 -70q120 0 166.5 23.5t46.5 93.5q0 63 -40.5 91.5t-172.5 61.5q-209 47 -307 142t-98 266zM334 623q0 -75 40 -107.5t161 -62.5q71 -16 116 -35q60 42 60 133q0 82 -37.5 111.5t-173.5 64.5q-80 21 -86 23q-80 -32 -80 -127 z" />
<glyph unicode="&#xa8;" horiz-adv-x="1105" d="M197 1628v260h274v-260h-274zM678 1628v260h274v-260h-274z" />
<glyph unicode="&#xa9;" horiz-adv-x="1638" d="M70 737q0 206 96.5 378t268.5 273t382 101q157 0 297 -59.5t239.5 -160t157.5 -239.5t58 -293q0 -205 -98.5 -378t-271.5 -274t-382 -101q-157 0 -296.5 59.5t-238 160.5t-155.5 240t-57 293zM242 737q0 -262 165 -433t412 -171q160 0 292.5 77t210 216t77.5 311 q0 129 -45.5 241.5t-123.5 191t-184.5 123t-226.5 44.5q-163 0 -294.5 -76t-207 -213.5t-75.5 -310.5zM455 741q0 193 93 305.5t267 112.5q141 0 277 -53v-176q-157 41 -238 41q-99 0 -138.5 -56t-39.5 -174q0 -128 39 -182.5t141 -54.5t246 43v-176q-143 -58 -291 -58 q-171 0 -263.5 114.5t-92.5 313.5z" />
<glyph unicode="&#xaa;" horiz-adv-x="1024" d="M145 995q0 54 9.5 93.5t38.5 78t78.5 63.5t132.5 40.5t198 17.5q-12 33 -49.5 42t-116.5 9q-82 0 -225 -28v188q147 41 289 41q152 0 244 -66t92 -194v-532h-226v28q-90 -39 -204 -39q-121 0 -191 67t-70 191zM383 1006q0 -72 78 -72q75 0 143 33v133q-121 -3 -171 -22.5 t-50 -71.5z" />
<glyph unicode="&#xab;" horiz-adv-x="1024" d="M51 526l316 457h229l-264 -457l264 -454h-229zM440 526l316 457h229l-264 -457l264 -454h-229z" />
<glyph unicode="&#xac;" horiz-adv-x="1433" d="M84 809v213h1259v-571h-253v358h-1006z" />
<glyph unicode="&#xad;" horiz-adv-x="1024" d="M102 676h820v176h-820v-176z" />
<glyph unicode="&#xae;" horiz-adv-x="1638" d="M70 737q0 206 96.5 378t268.5 273t382 101q157 0 297 -59.5t239.5 -160t157.5 -239.5t58 -293q0 -205 -98.5 -378t-271.5 -274t-382 -101q-157 0 -296.5 59.5t-238 160.5t-155.5 240t-57 293zM242 737q0 -262 165 -433t412 -171q160 0 292.5 77t210 216t77.5 311 q0 129 -45.5 241.5t-123.5 191t-184.5 123t-226.5 44.5q-163 0 -294.5 -76t-207 -213.5t-75.5 -310.5zM535 330v819h315q153 0 227 -62t74 -200q0 -101 -35 -166t-117 -96l175 -295h-199l-160 276h-88v-276h-192zM727 762h100q67 0 101.5 33t34.5 92q0 56 -33 82t-103 26 h-100v-233z" />
<glyph unicode="&#xaf;" horiz-adv-x="1024" d="M0 1581h1024v176h-1024v-176z" />
<glyph unicode="&#xb0;" horiz-adv-x="913" d="M131 1208q0 -156 81.5 -240.5t244.5 -84.5q166 0 246.5 84t80.5 241q0 158 -80.5 243t-246.5 85q-163 0 -244.5 -85.5t-81.5 -242.5zM326 1208q0 65 30 100t101 35q133 0 133 -135q0 -133 -133 -133q-71 0 -101 34.5t-30 98.5z" />
<glyph unicode="&#xb1;" horiz-adv-x="1085" d="M100 0v209h883v-209h-883zM100 651v209h336v346h209v-346h338v-209h-338v-348h-209v348h-336z" />
<glyph unicode="&#xb2;" horiz-adv-x="614" d="M29 788v136q203 184 272.5 273t69.5 159q0 51 -25.5 73.5t-89.5 22.5q-84 0 -221 -39v162q52 20 122 34.5t115 14.5q152 0 223.5 -63t71.5 -197q0 -49 -16 -97t-35 -81.5t-62 -81t-67 -70t-80 -73.5h305l-61 -173h-522z" />
<glyph unicode="&#xb3;" horiz-adv-x="634" d="M27 823v160q134 -31 231 -31q75 0 105.5 18.5t31.5 67.5q-1 30 -13 48.5t-37 27.5t-51 11.5t-67 2.5h-73v172h73q140 0 140 91q0 61 -86 61q-114 0 -228 -35v158q52 22 116.5 35.5t111.5 13.5q143 0 212.5 -55.5t69.5 -173.5q0 -97 -78 -162q54 -31 81.5 -77t27.5 -120 q0 -258 -299 -258q-129 0 -268 45z" />
<glyph unicode="&#xb4;" horiz-adv-x="573" d="M92 1628h215l215 260h-303z" />
<glyph unicode="&#xb5;" horiz-adv-x="1198" d="M127 -389v1403l274 82v-795q3 -46 34.5 -67t92.5 -21q105 0 265 55v807h272v-1075h-272v66q-170 -80 -304 -80q-45 0 -88 6v-381h-274z" />
<glyph unicode="&#xb6;" horiz-adv-x="1239" d="M109 1075q0 -172 81.5 -274.5t272.5 -130.5v-670h270v1251h107v-1251h270v1489h-553q-101 0 -179 -20.5t-128.5 -56.5t-82.5 -89.5t-45 -113.5t-13 -134z" />
<glyph unicode="&#xb7;" horiz-adv-x="643" d="M195 518v279h270v-279h-270z" />
<glyph unicode="&#xb8;" horiz-adv-x="649" d="M145 -246q13 -1 46.5 -5.5t57.5 -6.5t52 -2q98 0 98 41q0 22 -13 28.5t-48 6.5h-164l51 231h156l-21 -110h46q71 0 112 -39.5t41 -120.5q0 -83 -52.5 -130.5t-150.5 -47.5q-118 0 -211 22v133z" />
<glyph unicode="&#xb9;" horiz-adv-x="462" d="M27 1382v152l348 84v-830h-189v623z" />
<glyph unicode="&#xba;" horiz-adv-x="1024" d="M115 1124q0 -198 92.5 -303.5t296.5 -105.5q383 0 383 409q0 198 -93 308t-290 110q-389 0 -389 -418zM362 1124q0 120 32.5 164.5t109.5 44.5q67 0 100 -46t33 -163q0 -113 -33 -156.5t-100 -43.5q-78 0 -110 42.5t-32 157.5z" />
<glyph unicode="&#xbb;" horiz-adv-x="1024" d="M51 72h230l315 454l-315 457h-230l264 -457zM440 72h230l315 454l-315 457h-230l265 -457z" />
<glyph unicode="&#xbc;" horiz-adv-x="1843" d="M76 1239v160l391 100v-905h-229v672zM227 0l1012 1489h221l-1009 -1489h-224zM991 166v156l373 575h227v-543h174l-77 -188h-97v-166h-200v166h-400zM1243 354h148v246z" />
<glyph unicode="&#xbd;" horiz-adv-x="1843" d="M76 1239v160l391 100v-905h-229v672zM207 0l1012 1489h221l-1010 -1489h-223zM1147 0v160l203 198q159 156 159 252q0 55 -24.5 80t-83.5 25q-77 0 -246 -47v182q57 22 135 38.5t125 16.5q328 0 328 -280q0 -105 -59 -193.5t-216 -238.5h324l-72 -193h-573z" />
<glyph unicode="&#xbe;" horiz-adv-x="1843" d="M59 627v182q198 -43 281 -43q113 0 113 90q0 58 -42.5 77t-127.5 19h-86v193h86q141 0 141 88q0 63 -84 63q-81 0 -252 -51v185q61 24 134 40.5t118 16.5q159 0 235 -60t76 -190q0 -99 -82 -168q56 -34 86.5 -84t30.5 -129q0 -145 -86.5 -217t-243.5 -72q-92 0 -297 60z M340 0l1012 1489h221l-1010 -1489h-223zM1020 166v156l373 575h227v-543h174l-78 -188h-96v-166h-201v166h-399zM1272 354h147v246z" />
<glyph unicode="&#xbf;" horiz-adv-x="962" d="M63 -41q0 141 52 251t168 206q70 57 100.5 97t30.5 91v62h250v-82q0 -57 -13 -102t-44 -87t-66.5 -76t-96.5 -83q-56 -45 -84 -94t-28 -128q0 -103 47 -144.5t158 -41.5q146 0 360 61v-217q-235 -80 -401 -80q-93 0 -169.5 20t-136.5 62.5t-93.5 114.5t-33.5 170z M403 805h275v270h-275v-270z" />
<glyph unicode="&#xc0;" horiz-adv-x="1333" d="M12 0l484 1489h346l481 -1489h-287l-112 358h-514l-113 -358h-285zM412 1888h303l127 -260h-215zM485 594h363l-180 594z" />
<glyph unicode="&#xc1;" horiz-adv-x="1333" d="M12 0l484 1489h346l481 -1489h-287l-112 358h-514l-113 -358h-285zM485 594h363l-180 594zM494 1628h215l215 260h-303z" />
<glyph unicode="&#xc2;" horiz-adv-x="1333" d="M12 0l484 1489h346l481 -1489h-287l-112 358h-514l-113 -358h-285zM360 1628l209 260h199l217 -260h-242l-75 113l-74 -113h-234zM485 594h363l-180 594z" />
<glyph unicode="&#xc3;" horiz-adv-x="1333" d="M12 0l484 1489h346l481 -1489h-287l-112 358h-514l-113 -358h-285zM336 1628q6 105 60 169.5t151 64.5q59 0 119 -28t90 -28q28 0 41 14t18 42h176q-6 -105 -59 -169.5t-150 -64.5q-59 0 -119 27.5t-90 27.5q-28 0 -41 -13.5t-18 -41.5h-178zM485 594h363l-180 594z" />
<glyph unicode="&#xc4;" horiz-adv-x="1333" d="M12 0l484 1489h346l481 -1489h-287l-112 358h-514l-113 -358h-285zM309 1628v260h275v-260h-275zM485 594h363l-180 594zM750 1628v260h274v-260h-274z" />
<glyph unicode="&#xc5;" horiz-adv-x="1333" d="M12 0l484 1489h346l481 -1489h-287l-112 358h-514l-113 -358h-285zM475 1743q0 86 57 133t136 47t133.5 -47t54.5 -133q0 -85 -54 -128.5t-134 -43.5q-81 0 -137 43.5t-56 128.5zM485 594h363l-180 594zM616 1743q0 -20 14 -31.5t38 -11.5q49 0 49 43q0 19 -13 32t-36 13 t-37.5 -13t-14.5 -32z" />
<glyph unicode="&#xc6;" horiz-adv-x="1843" d="M16 0l709 1489h1036v-238h-579v-381h555l-92 -237h-463v-395h579v-238h-862v358h-426l-170 -358h-287zM586 594h313v655z" />
<glyph unicode="&#xc7;" horiz-adv-x="1189" d="M78 748q0 179 32.5 315.5t101.5 236.5t183.5 151.5t272.5 51.5q218 0 450 -73v-216q-131 29 -222 40.5t-196 11.5q-175 0 -255 -131t-80 -387q0 -521 337 -521q176 0 416 58v-219q-239 -69 -397 -74l-12 -55h45q71 0 112 -39.5t41 -120.5q0 -83 -52 -130.5t-150 -47.5 q-117 0 -211 22v133q14 -1 47 -5.5t56.5 -6.5t51.5 -2q99 0 99 41q0 22 -13.5 28.5t-48.5 6.5h-164l43 180q-129 16 -224.5 79t-152 164.5t-83.5 228t-27 280.5z" />
<glyph unicode="&#xc8;" horiz-adv-x="1230" d="M129 0v1489h1006v-238h-723v-381h698l-92 -237h-606v-395h723v-238h-1006zM330 1888h303l127 -260h-215z" />
<glyph unicode="&#xc9;" horiz-adv-x="1230" d="M129 0v1489h1006v-238h-723v-381h698l-92 -237h-606v-395h723v-238h-1006zM494 1628h215l215 260h-303z" />
<glyph unicode="&#xca;" horiz-adv-x="1230" d="M129 0v1489h1006v-238h-723v-381h698l-92 -237h-606v-395h723v-238h-1006zM360 1628l209 260h199l217 -260h-242l-75 113l-74 -113h-234z" />
<glyph unicode="&#xcb;" horiz-adv-x="1230" d="M129 0v1489h1006v-238h-723v-381h698l-92 -237h-606v-395h723v-238h-1006zM309 1628v260h275v-260h-275zM750 1628v260h274v-260h-274z" />
<glyph unicode="&#xcc;" horiz-adv-x="495" d="M-41 1888h303l127 -260h-215zM106 0v1489h283v-1489h-283z" />
<glyph unicode="&#xcd;" horiz-adv-x="495" d="M106 0v1489h283v-1489h-283zM106 1628h216l215 260h-304z" />
<glyph unicode="&#xce;" horiz-adv-x="495" d="M-63 1628l208 260h199l217 -260h-242l-75 113l-74 -113h-233zM106 0v1489h283v-1489h-283z" />
<glyph unicode="&#xcf;" horiz-adv-x="696" d="M-8 1628v260h274v-260h-274zM205 0v1489h282v-1489h-282zM432 1628v260h275v-260h-275z" />
<glyph unicode="&#xd0;" horiz-adv-x="1626" d="M82 641v209h250v639h538q140 0 244 -33.5t170.5 -92.5t107 -151t56.5 -197.5t16 -244.5q0 -102 -7.5 -186t-25.5 -164.5t-48 -143t-76 -115.5t-107 -88t-144.5 -54t-185.5 -19h-538v641h-250zM614 238h238q82 0 142 28t95.5 74t57 117t28.5 144t7 169q0 93 -7 161 t-28 131.5t-57 102.5t-96 62.5t-142 23.5h-238v-401h248l-80 -209h-168v-403z" />
<glyph unicode="&#xd1;" horiz-adv-x="1437" d="M135 0v1489h387l508 -1135v1135h273v-1489h-388l-507 1135v-1135h-273zM397 1628q6 105 60 169.5t151 64.5q59 0 119 -28t90 -28q28 0 41.5 14t18.5 42h176q-6 -105 -59 -169.5t-150 -64.5q-59 0 -119 27.5t-90 27.5q-51 0 -60 -55h-178z" />
<glyph unicode="&#xd2;" horiz-adv-x="1406" d="M100 739q0 190 31 328t100.5 237.5t186.5 149t284 49.5t284 -49.5t187 -149t101 -237.5t31 -328q0 -189 -31 -324.5t-101 -232.5t-187 -144.5t-284 -47.5t-284 47.5t-186.5 144.5t-100.5 232.5t-31 324.5zM383 739q0 -266 73 -389t246 -123t246.5 123t73.5 389t-74 396.5 t-246 130.5t-245.5 -130t-73.5 -397zM432 1888h303l127 -260h-215z" />
<glyph unicode="&#xd3;" horiz-adv-x="1406" d="M100 739q0 190 31 328t100.5 237.5t186.5 149t284 49.5t284 -49.5t187 -149t101 -237.5t31 -328q0 -189 -31 -324.5t-101 -232.5t-187 -144.5t-284 -47.5t-284 47.5t-186.5 144.5t-100.5 232.5t-31 324.5zM383 739q0 -266 73 -389t246 -123t246.5 123t73.5 389t-74 396.5 t-246 130.5t-245.5 -130t-73.5 -397zM535 1628h215l215 260h-303z" />
<glyph unicode="&#xd4;" horiz-adv-x="1406" d="M100 739q0 190 31 328t100.5 237.5t186.5 149t284 49.5t284 -49.5t187 -149t101 -237.5t31 -328q0 -189 -31 -324.5t-101 -232.5t-187 -144.5t-284 -47.5t-284 47.5t-186.5 144.5t-100.5 232.5t-31 324.5zM383 739q0 -266 73 -389t246 -123t246.5 123t73.5 389t-74 396.5 t-246 130.5t-245.5 -130t-73.5 -397zM393 1628l209 260h199l217 -260h-242l-76 113l-73 -113h-234z" />
<glyph unicode="&#xd5;" horiz-adv-x="1406" d="M100 739q0 190 31 328t100.5 237.5t186.5 149t284 49.5t284 -49.5t187 -149t101 -237.5t31 -328q0 -189 -31 -324.5t-101 -232.5t-187 -144.5t-284 -47.5t-284 47.5t-186.5 144.5t-100.5 232.5t-31 324.5zM369 1628q6 105 60 169.5t151 64.5q59 0 118.5 -28t89.5 -28 q28 0 41.5 14t18.5 42h176q-6 -105 -59 -169.5t-150 -64.5q-59 0 -119 27.5t-90 27.5q-28 0 -41 -13.5t-18 -41.5h-178zM383 739q0 -266 73 -389t246 -123t246.5 123t73.5 389t-74 396.5t-246 130.5t-245.5 -130t-73.5 -397z" />
<glyph unicode="&#xd6;" horiz-adv-x="1406" d="M100 739q0 190 31 328t100.5 237.5t186.5 149t284 49.5t284 -49.5t187 -149t101 -237.5t31 -328q0 -189 -31 -324.5t-101 -232.5t-187 -144.5t-284 -47.5t-284 47.5t-186.5 144.5t-100.5 232.5t-31 324.5zM342 1628v260h274v-260h-274zM383 739q0 -266 73 -389t246 -123 t246.5 123t73.5 389t-74 396.5t-246 130.5t-245.5 -130t-73.5 -397zM782 1628v260h275v-260h-275z" />
<glyph unicode="&#xd7;" horiz-adv-x="1085" d="M43 414l174 -158l324 330l325 -330l174 158l-333 338l329 335l-170 162l-325 -329l-324 329l-170 -162l330 -335z" />
<glyph unicode="&#xd8;" horiz-adv-x="1406" d="M100 739q0 190 31 328t100.5 237.5t186.5 149t284 49.5q220 0 342 -82l93 160h202l-163 -281q129 -181 129 -561q0 -189 -31 -324.5t-101 -232.5t-187 -144.5t-284 -47.5q-156 0 -268 41l-106 -185h-201l160 273q-187 170 -187 620zM383 739q0 -231 55 -356l469 805 q-72 78 -205 78q-172 0 -245.5 -130t-73.5 -397zM563 252q61 -25 139 -25q173 0 246.5 123t73.5 389q0 143 -25 256z" />
<glyph unicode="&#xd9;" horiz-adv-x="1384" d="M133 485v1004h283v-1002q0 -256 272 -256q135 0 206 60t71 196v1002h286v-1004q0 -262 -141.5 -378.5t-421.5 -116.5q-279 0 -417 116t-138 379zM432 1888h303l127 -260h-215z" />
<glyph unicode="&#xda;" horiz-adv-x="1384" d="M133 485v1004h283v-1002q0 -256 272 -256q135 0 206 60t71 196v1002h286v-1004q0 -262 -141.5 -378.5t-421.5 -116.5q-279 0 -417 116t-138 379zM514 1628h215l215 260h-303z" />
<glyph unicode="&#xdb;" horiz-adv-x="1384" d="M133 485v1004h283v-1002q0 -256 272 -256q135 0 206 60t71 196v1002h286v-1004q0 -262 -141.5 -378.5t-421.5 -116.5q-279 0 -417 116t-138 379zM393 1628l209 260h199l217 -260h-242l-76 113l-73 -113h-234z" />
<glyph unicode="&#xdc;" horiz-adv-x="1384" d="M133 485v1004h283v-1002q0 -256 272 -256q135 0 206 60t71 196v1002h286v-1004q0 -262 -141.5 -378.5t-421.5 -116.5q-279 0 -417 116t-138 379zM342 1628v260h274v-260h-274zM782 1628v260h275v-260h-275z" />
<glyph unicode="&#xdd;" horiz-adv-x="1314" d="M-6 1489h311l352 -576l353 576h311l-520 -840v-649h-285v651zM494 1628h215l215 260h-303z" />
<glyph unicode="&#xde;" horiz-adv-x="1314" d="M143 0v1489h275v-209h256q262 0 401 -125.5t139 -384.5q0 -258 -139.5 -387t-400.5 -129h-256v-254h-275zM418 492h264q148 0 214.5 71t66.5 207q0 140 -65 206t-216 66h-264v-550z" />
<glyph unicode="&#xdf;" horiz-adv-x="1269" d="M129 0v1071q0 221 131 326.5t371 105.5q205 0 326.5 -84t121.5 -237q0 -52 -14.5 -97t-38 -77.5t-51.5 -61t-56 -52t-51.5 -45t-38 -46t-14.5 -49.5q0 -22 10 -39t21 -25t31 -20q77 -45 123 -75t90.5 -67t66.5 -72.5t35.5 -80.5t13.5 -101q0 -133 -100.5 -208.5 t-271.5 -75.5q-174 0 -312 65v203q148 -55 291 -55q65 0 98 22.5t33 77.5q0 36 -32 61t-158 97q-108 61 -155.5 128.5t-47.5 168.5q0 67 26.5 123.5t64 93.5t75 69t64 64t26.5 63q0 127 -176 127q-113 0 -170.5 -57t-57.5 -186v-1055h-274z" />
<glyph unicode="&#xe0;" d="M86 328q0 132 60 213.5t205.5 125.5t393.5 48v30q0 29 -14 49.5t-37.5 33t-60.5 20t-75 10t-89 2.5q-128 0 -295 -37v217q176 47 393 47q98 0 179 -21t143 -62t96.5 -108t34.5 -153v-743h-266v68q-68 -39 -158.5 -60.5t-167.5 -21.5q-157 0 -249.5 89.5t-92.5 252.5z M309 1489h303l127 -260h-215zM367 340q0 -137 143 -137q110 0 235 71v230q-83 -1 -137.5 -5t-104.5 -14.5t-77 -28t-43 -46.5t-16 -70z" />
<glyph unicode="&#xe1;" d="M86 328q0 132 60 213.5t205.5 125.5t393.5 48v30q0 29 -14 49.5t-37.5 33t-60.5 20t-75 10t-89 2.5q-128 0 -295 -37v217q176 47 393 47q98 0 179 -21t143 -62t96.5 -108t34.5 -153v-743h-266v68q-68 -39 -158.5 -60.5t-167.5 -21.5q-157 0 -249.5 89.5t-92.5 252.5z M367 340q0 -137 143 -137q110 0 235 71v230q-83 -1 -137.5 -5t-104.5 -14.5t-77 -28t-43 -46.5t-16 -70zM432 1229h215l215 260h-303z" />
<glyph unicode="&#xe2;" d="M86 328q0 132 60 213.5t205.5 125.5t393.5 48v30q0 29 -14 49.5t-37.5 33t-60.5 20t-75 10t-89 2.5q-128 0 -295 -37v217q176 47 393 47q98 0 179 -21t143 -62t96.5 -108t34.5 -153v-743h-266v68q-68 -39 -158.5 -60.5t-167.5 -21.5q-157 0 -249.5 89.5t-92.5 252.5z M266 1229l209 260h199l217 -260h-242l-76 112l-73 -112h-234zM367 340q0 -137 143 -137q110 0 235 71v230q-83 -1 -137.5 -5t-104.5 -14.5t-77 -28t-43 -46.5t-16 -70z" />
<glyph unicode="&#xe3;" d="M86 328q0 132 60 213.5t205.5 125.5t393.5 48v30q0 29 -14 49.5t-37.5 33t-60.5 20t-75 10t-89 2.5q-128 0 -295 -37v217q176 47 393 47q98 0 179 -21t143 -62t96.5 -108t34.5 -153v-743h-266v68q-68 -39 -158.5 -60.5t-167.5 -21.5q-157 0 -249.5 89.5t-92.5 252.5z M236 1229q6 105 59.5 169t150.5 64q59 0 119 -27.5t90 -27.5q51 0 60 55h176q-6 -105 -59 -169t-150 -64q-59 0 -119 27.5t-90 27.5q-28 0 -41 -13.5t-18 -41.5h-178zM367 340q0 -137 143 -137q110 0 235 71v230q-83 -1 -137.5 -5t-104.5 -14.5t-77 -28t-43 -46.5t-16 -70z " />
<glyph unicode="&#xe4;" d="M86 328q0 132 60 213.5t205.5 125.5t393.5 48v30q0 29 -14 49.5t-37.5 33t-60.5 20t-75 10t-89 2.5q-128 0 -295 -37v217q176 47 393 47q98 0 179 -21t143 -62t96.5 -108t34.5 -153v-743h-266v68q-68 -39 -158.5 -60.5t-167.5 -21.5q-157 0 -249.5 89.5t-92.5 252.5z M238 1229v260h274v-260h-274zM367 340q0 -137 143 -137q110 0 235 71v230q-83 -1 -137.5 -5t-104.5 -14.5t-77 -28t-43 -46.5t-16 -70zM678 1229v260h274v-260h-274z" />
<glyph unicode="&#xe5;" d="M86 328q0 132 60 213.5t205.5 125.5t393.5 48v30q0 29 -14 49.5t-37.5 33t-60.5 20t-75 10t-89 2.5q-128 0 -295 -37v217q176 47 393 47q98 0 179 -21t143 -62t96.5 -108t34.5 -153v-743h-266v68q-68 -39 -158.5 -60.5t-167.5 -21.5q-157 0 -249.5 89.5t-92.5 252.5z M367 340q0 -137 143 -137q110 0 235 71v230q-83 -1 -137.5 -5t-104.5 -14.5t-77 -28t-43 -46.5t-16 -70zM383 1360q0 86 56.5 133t135.5 47t134 -47t55 -133q0 -85 -54.5 -128.5t-134.5 -43.5q-81 0 -136.5 43.5t-55.5 128.5zM524 1360q0 -20 14 -31.5t37 -11.5q50 0 50 43 q0 19 -13.5 32t-36.5 13t-37 -13t-14 -32z" />
<glyph unicode="&#xe6;" horiz-adv-x="1843" d="M66 328q0 132 60 213.5t205.5 125.5t393.5 48v30q0 29 -14 49.5t-37.5 33t-60.5 20t-75 10t-89 2.5q-128 0 -295 -37v217q176 47 393 47q247 0 364 -137q117 137 363 137q248 0 362.5 -124t114.5 -404q0 -83 -8 -151h-686q11 -103 61 -149t164 -46q211 3 430 66v-213 q-230 -80 -446 -80q-55 0 -97.5 4.5t-97.5 19.5t-105.5 49t-93.5 86q-210 -159 -464 -159q-157 0 -249.5 89.5t-92.5 252.5zM346 340q0 -137 143 -137q71 0 157 32.5t153 83.5q-14 88 -17 185q-62 -1 -97 -2t-84 -3.5t-76.5 -7.5t-61 -13t-51.5 -19.5t-35 -28t-24 -39 t-7 -51.5zM1055 629h428q-6 122 -52 177.5t-157 55.5q-114 0 -161 -55t-58 -178z" />
<glyph unicode="&#xe7;" horiz-adv-x="976" d="M78 539q0 126 26 224.5t81 172t146 112.5t214 39q200 0 354 -63v-215q-155 47 -303 47q-72 0 -119 -21t-72.5 -64.5t-35 -98t-9.5 -133.5q0 -85 9.5 -141.5t35.5 -99.5t73 -63t120 -20q144 0 317 49v-215q-88 -35 -190 -51q-63 -9 -129 -12l-12 -49h45q71 0 112 -39.5 t41 -120.5q0 -83 -52 -130.5t-150 -47.5q-118 0 -211 22v133q14 -1 47 -5.5t56.5 -6.5t51.5 -2q99 0 99 41q0 22 -13.5 28.5t-48.5 6.5h-164l43 174q-186 27 -274 171t-88 378z" />
<glyph unicode="&#xe8;" d="M84 526q0 297 120 429t376 132q248 0 362.5 -124t114.5 -404q0 -83 -8 -151h-687q11 -103 61.5 -149t164.5 -46q190 0 430 66v-213q-230 -80 -447 -80q-261 0 -374 128.5t-113 411.5zM289 1489h303l127 -260h-215zM360 629h428q-6 123 -51.5 178t-156.5 55 q-114 0 -161.5 -55t-58.5 -178z" />
<glyph unicode="&#xe9;" d="M84 526q0 297 120 429t376 132q248 0 362.5 -124t114.5 -404q0 -83 -8 -151h-687q11 -103 61.5 -149t164.5 -46q190 0 430 66v-213q-230 -80 -447 -80q-261 0 -374 128.5t-113 411.5zM360 629h428q-6 123 -51.5 178t-156.5 55q-114 0 -161.5 -55t-58.5 -178zM432 1229 h215l215 260h-303z" />
<glyph unicode="&#xea;" d="M84 526q0 297 120 429t376 132q248 0 362.5 -124t114.5 -404q0 -83 -8 -151h-687q11 -103 61.5 -149t164.5 -46q190 0 430 66v-213q-230 -80 -447 -80q-261 0 -374 128.5t-113 411.5zM276 1229l209 260h199l217 -260h-242l-75 112l-74 -112h-234zM360 629h428 q-6 123 -51.5 178t-156.5 55q-114 0 -161.5 -55t-58.5 -178z" />
<glyph unicode="&#xeb;" d="M84 526q0 297 120 429t376 132q248 0 362.5 -124t114.5 -404q0 -83 -8 -151h-687q11 -103 61.5 -149t164.5 -46q190 0 430 66v-213q-230 -80 -447 -80q-261 0 -374 128.5t-113 411.5zM227 1229v260h275v-260h-275zM360 629h428q-6 123 -51.5 178t-156.5 55 q-114 0 -161.5 -55t-58.5 -178zM668 1229v260h274v-260h-274z" />
<glyph unicode="&#xec;" horiz-adv-x="473" d="M-49 1489h303l127 -260h-215zM96 0v1075h283v-1075h-283z" />
<glyph unicode="&#xed;" horiz-adv-x="473" d="M92 1229h215l215 260h-303zM96 0v1075h283v-1075h-283z" />
<glyph unicode="&#xee;" horiz-adv-x="473" d="M-72 1229l209 260h199l217 -260h-242l-75 112l-74 -112h-234zM96 0v1075h283v-1075h-283z" />
<glyph unicode="&#xef;" horiz-adv-x="696" d="M-8 1229v260h274v-260h-274zM205 0v1075h282v-1075h-282zM432 1229v260h275v-260h-275z" />
<glyph unicode="&#xf0;" horiz-adv-x="1122" d="M61 524q0 -536 502 -536q260 0 377 139t117 397q0 207 -69 411t-200 361l154 74l-65 119l-183 -86q-42 43 -92 86h-346q118 -90 219 -191l-106 -51l61 -125l143 70q53 -67 82 -113q-43 6 -92 6q-265 0 -383.5 -144t-118.5 -417zM344 524q0 183 52.5 262.5t166.5 79.5 q122 0 166.5 -76t44.5 -266q0 -173 -52 -247t-159 -74q-115 0 -167 73t-52 248z" />
<glyph unicode="&#xf1;" horiz-adv-x="1198" d="M121 0v1012l276 82v-88q173 81 348 81q166 0 249 -93.5t83 -250.5v-743h-272v743q0 62 -30.5 89.5t-94.5 27.5q-94 0 -283 -76v-784h-276zM274 1229q6 105 60 169t151 64q59 0 119 -27.5t90 -27.5q51 0 60 55h176q-6 -105 -59 -169t-150 -64q-59 0 -119 27.5t-90 27.5 q-28 0 -41 -13.5t-18 -41.5h-179z" />
<glyph unicode="&#xf2;" horiz-adv-x="1165" d="M84 528q0 -258 120.5 -400t377.5 -142q260 0 377.5 140t117.5 402q0 271 -117.5 415t-377.5 144q-498 0 -498 -559zM289 1489h303l127 -260h-215zM367 528q0 179 51 256.5t164 77.5q107 0 160 -79t53 -255q0 -172 -52.5 -244.5t-160.5 -72.5q-115 0 -165 71.5t-50 245.5z " />
<glyph unicode="&#xf3;" horiz-adv-x="1165" d="M84 528q0 -258 120.5 -400t377.5 -142q260 0 377.5 140t117.5 402q0 271 -117.5 415t-377.5 144q-498 0 -498 -559zM367 528q0 179 51 256.5t164 77.5q107 0 160 -79t53 -255q0 -172 -52.5 -244.5t-160.5 -72.5q-115 0 -165 71.5t-50 245.5zM432 1229h215l215 260h-303z " />
<glyph unicode="&#xf4;" horiz-adv-x="1165" d="M84 528q0 -258 120.5 -400t377.5 -142q260 0 377.5 140t117.5 402q0 271 -117.5 415t-377.5 144q-498 0 -498 -559zM276 1229l209 260h199l217 -260h-242l-75 112l-74 -112h-234zM367 528q0 179 51 256.5t164 77.5q107 0 160 -79t53 -255q0 -172 -52.5 -244.5 t-160.5 -72.5q-115 0 -165 71.5t-50 245.5z" />
<glyph unicode="&#xf5;" horiz-adv-x="1165" d="M84 528q0 -258 120.5 -400t377.5 -142q260 0 377.5 140t117.5 402q0 271 -117.5 415t-377.5 144q-498 0 -498 -559zM254 1229q6 105 60 169t151 64q59 0 119 -27.5t90 -27.5q28 0 41 13.5t18 41.5h176q-6 -105 -59 -169t-150 -64q-59 0 -118.5 27.5t-89.5 27.5 q-51 0 -60 -55h-178zM367 528q0 179 51 256.5t164 77.5q107 0 160 -79t53 -255q0 -172 -52.5 -244.5t-160.5 -72.5q-115 0 -165 71.5t-50 245.5z" />
<glyph unicode="&#xf6;" horiz-adv-x="1165" d="M84 528q0 -258 120.5 -400t377.5 -142q260 0 377.5 140t117.5 402q0 271 -117.5 415t-377.5 144q-498 0 -498 -559zM227 1229v260h275v-260h-275zM367 528q0 179 51 256.5t164 77.5q107 0 160 -79t53 -255q0 -172 -52.5 -244.5t-160.5 -72.5q-115 0 -165 71.5t-50 245.5z M668 1229v260h274v-260h-274z" />
<glyph unicode="&#xf7;" horiz-adv-x="1085" d="M78 651v209h928v-209h-928zM412 260h258v252h-258v-252zM412 1014h258v252h-258v-252z" />
<glyph unicode="&#xf8;" horiz-adv-x="1187" d="M-10 -72h209l104 131q116 -73 299 -73q260 0 378 140t118 402t-103 396l199 250h-209l-115 -144q-117 57 -268 57q-498 0 -498 -559q0 -211 82 -352zM387 528q0 179 51 256.5t164 77.5q63 0 111 -31l-322 -401q-4 62 -4 98zM461 256l340 426q14 -60 14 -154 q0 -172 -52.5 -244.5t-160.5 -72.5q-90 0 -141 45z" />
<glyph unicode="&#xf9;" horiz-adv-x="1198" d="M127 328v686l274 82v-783q0 -53 31.5 -76.5t95.5 -23.5q105 0 265 55v807h272v-1075h-272v66q-170 -80 -304 -80q-77 0 -141 19t-114.5 58t-78.5 106.5t-28 158.5zM299 1489h303l127 -260h-215z" />
<glyph unicode="&#xfa;" horiz-adv-x="1198" d="M127 328v686l274 82v-783q0 -53 31.5 -76.5t95.5 -23.5q105 0 265 55v807h272v-1075h-272v66q-170 -80 -304 -80q-77 0 -141 19t-114.5 58t-78.5 106.5t-28 158.5zM442 1229h215l215 260h-303z" />
<glyph unicode="&#xfb;" horiz-adv-x="1198" d="M127 328v686l274 82v-783q0 -53 31.5 -76.5t95.5 -23.5q105 0 265 55v807h272v-1075h-272v66q-170 -80 -304 -80q-77 0 -141 19t-114.5 58t-78.5 106.5t-28 158.5zM303 1229l209 260h199l217 -260h-242l-76 112l-73 -112h-234z" />
<glyph unicode="&#xfc;" horiz-adv-x="1198" d="M127 328v686l274 82v-783q0 -53 31.5 -76.5t95.5 -23.5q105 0 265 55v807h272v-1075h-272v66q-170 -80 -304 -80q-77 0 -141 19t-114.5 58t-78.5 106.5t-28 158.5zM254 1229v260h274v-260h-274zM694 1229v260h275v-260h-275z" />
<glyph unicode="&#xfd;" horiz-adv-x="1198" d="M129 365v649l274 82v-746q0 -52 31 -74t96 -22q87 0 265 53v768h272v-1130q0 -170 -123.5 -257t-329.5 -87q-175 0 -383 47v217q71 -18 156 -28.5t133 -10.5q58 0 96 3t75 12t58 26t33.5 45.5t12.5 69.5v108q-195 -65 -303 -65q-162 0 -262.5 82.5t-100.5 257.5z M453 1229h215l215 260h-303z" />
<glyph unicode="&#xfe;" horiz-adv-x="1146" d="M131 -401v1861l275 82v-512q121 57 233 57q101 0 178.5 -25t129 -70t84.5 -112.5t47 -148.5t14 -182q0 -128 -23 -227t-74.5 -176.5t-141 -118.5t-214.5 -41q-112 0 -233 37v-342zM406 242q104 -31 210 -31q193 0 193 338q0 73 -7.5 125.5t-27.5 96.5t-59 66.5t-97 22.5 q-100 0 -212 -51v-567z" />
<glyph unicode="&#xff;" horiz-adv-x="1198" d="M129 365v649l274 82v-746q0 -52 31 -74t96 -22q87 0 265 53v768h272v-1130q0 -170 -123.5 -257t-329.5 -87q-175 0 -383 47v217q71 -18 156 -28.5t133 -10.5q58 0 96 3t75 12t58 26t33.5 45.5t12.5 69.5v108q-195 -65 -303 -65q-162 0 -262.5 82.5t-100.5 257.5z M254 1229v260h274v-260h-274zM694 1229v260h275v-260h-275z" />
<glyph unicode="&#x100;" horiz-adv-x="1333" d="M12 0l484 1489h346l481 -1489h-287l-112 358h-514l-113 -358h-285zM360 1628v178h615v-178h-615zM485 594h363l-180 594z" />
<glyph unicode="&#x101;" d="M86 328q0 132 60 213.5t205.5 125.5t393.5 48v30q0 29 -14 49.5t-37.5 33t-60.5 20t-75 10t-89 2.5q-128 0 -295 -37v217q176 47 393 47q98 0 179 -21t143 -62t96.5 -108t34.5 -153v-743h-266v68q-68 -39 -158.5 -60.5t-167.5 -21.5q-157 0 -249.5 89.5t-92.5 252.5z M274 1276v178h615v-178h-615zM367 340q0 -137 143 -137q110 0 235 71v230q-83 -1 -137.5 -5t-104.5 -14.5t-77 -28t-43 -46.5t-16 -70z" />
<glyph unicode="&#x102;" horiz-adv-x="1333" d="M12 0l484 1489h346l481 -1489h-287l-112 358h-514l-113 -358h-285zM387 1851h193q3 -38 28.5 -60t63.5 -22q36 0 62.5 22t33.5 60h195q-5 -98 -81.5 -169.5t-207.5 -71.5q-133 0 -210 71.5t-77 169.5zM485 594h363l-180 594z" />
<glyph unicode="&#x103;" d="M86 328q0 132 60 213.5t205.5 125.5t393.5 48v30q0 29 -14 49.5t-37.5 33t-60.5 20t-75 10t-89 2.5q-128 0 -295 -37v217q176 47 393 47q98 0 179 -21t143 -62t96.5 -108t34.5 -153v-743h-266v68q-68 -39 -158.5 -60.5t-167.5 -21.5q-157 0 -249.5 89.5t-92.5 252.5z M272 1499h193q3 -38 28.5 -60t63.5 -22q36 0 62.5 22t33.5 60h195q-5 -98 -82 -170t-207 -72q-133 0 -210 71.5t-77 170.5zM367 340q0 -137 143 -137q110 0 235 71v230q-83 -1 -137.5 -5t-104.5 -14.5t-77 -28t-43 -46.5t-16 -70z" />
<glyph unicode="&#x104;" horiz-adv-x="1333" d="M12 0l484 1489h346l481 -1489h-53q-50 -38 -77.5 -85.5t-27.5 -94.5q0 -72 54 -72q26 0 46 7t56 28v-137q-33 -22 -85.5 -35.5t-92.5 -13.5q-93 0 -142 49t-49 125q0 58 31 119t86 110h-33l-112 358h-514l-113 -358h-285zM485 594h363l-180 594z" />
<glyph unicode="&#x105;" d="M86 328q0 132 60 213.5t205.5 125.5t393.5 48v30q0 29 -14 49.5t-37.5 33t-60.5 20t-75 10t-89 2.5q-128 0 -295 -37v217q176 47 393 47q98 0 179 -21t143 -62t96.5 -108t34.5 -153v-743h-37q-49 -38 -76.5 -85.5t-27.5 -94.5q0 -72 53 -72q26 0 46 7t56 28v-137 q-33 -22 -85.5 -35.5t-92.5 -13.5q-93 0 -141.5 49t-48.5 125q0 57 30 117.5t84 111.5h-26v68q-68 -39 -158.5 -60.5t-167.5 -21.5q-157 0 -249.5 89.5t-92.5 252.5zM367 340q0 -137 143 -137q110 0 235 71v230q-83 -1 -137.5 -5t-104.5 -14.5t-77 -28t-43 -46.5t-16 -70z " />
<glyph unicode="&#x106;" horiz-adv-x="1189" d="M78 748q0 179 32.5 315.5t101.5 236.5t183.5 151.5t272.5 51.5q218 0 450 -73v-216q-131 29 -222 40.5t-196 11.5q-175 0 -255 -131t-80 -387q0 -521 337 -521q176 0 416 58v-219q-252 -76 -450 -76q-126 0 -225.5 37t-167.5 103t-112.5 161.5t-64.5 208.5t-20 248z M494 1628h215l215 260h-303z" />
<glyph unicode="&#x107;" horiz-adv-x="976" d="M78 539q0 126 26 224.5t81 172t146 112.5t214 39q200 0 354 -63v-215q-155 47 -303 47q-72 0 -119 -21t-72.5 -64.5t-35 -98t-9.5 -133.5q0 -85 9.5 -141.5t35.5 -99.5t73 -63t120 -20q144 0 317 49v-215q-171 -65 -374 -65q-463 0 -463 555zM371 1229h215l215 260h-303z " />
<glyph unicode="&#x108;" horiz-adv-x="1189" d="M78 748q0 179 32.5 315.5t101.5 236.5t183.5 151.5t272.5 51.5q218 0 450 -73v-216q-131 29 -222 40.5t-196 11.5q-175 0 -255 -131t-80 -387q0 -521 337 -521q176 0 416 58v-219q-252 -76 -450 -76q-126 0 -225.5 37t-167.5 103t-112.5 161.5t-64.5 208.5t-20 248z M336 1628l209 260h198l218 -260h-242l-76 113l-74 -113h-233z" />
<glyph unicode="&#x109;" horiz-adv-x="976" d="M78 539q0 126 26 224.5t81 172t146 112.5t214 39q200 0 354 -63v-215q-155 47 -303 47q-72 0 -119 -21t-72.5 -64.5t-35 -98t-9.5 -133.5q0 -85 9.5 -141.5t35.5 -99.5t73 -63t120 -20q144 0 317 49v-215q-171 -65 -374 -65q-463 0 -463 555zM201 1229l209 260h198 l217 -260h-241l-76 112l-74 -112h-233z" />
<glyph unicode="&#x10a;" horiz-adv-x="1189" d="M78 748q0 179 32.5 315.5t101.5 236.5t183.5 151.5t272.5 51.5q218 0 450 -73v-216q-131 29 -222 40.5t-196 11.5q-175 0 -255 -131t-80 -387q0 -521 337 -521q176 0 416 58v-219q-252 -76 -450 -76q-126 0 -225.5 37t-167.5 103t-112.5 161.5t-64.5 208.5t-20 248z M489 1628v260h275v-260h-275z" />
<glyph unicode="&#x10b;" horiz-adv-x="976" d="M78 539q0 126 26 224.5t81 172t146 112.5t214 39q200 0 354 -63v-215q-155 47 -303 47q-72 0 -119 -21t-72.5 -64.5t-35 -98t-9.5 -133.5q0 -85 9.5 -141.5t35.5 -99.5t73 -63t120 -20q144 0 317 49v-215q-171 -65 -374 -65q-463 0 -463 555zM369 1229v260h274v-260h-274 z" />
<glyph unicode="&#x10c;" horiz-adv-x="1189" d="M78 748q0 179 32.5 315.5t101.5 236.5t183.5 151.5t272.5 51.5q218 0 450 -73v-216q-131 29 -222 40.5t-196 11.5q-175 0 -255 -131t-80 -387q0 -521 337 -521q176 0 416 58v-219q-252 -76 -450 -76q-126 0 -225.5 37t-167.5 103t-112.5 161.5t-64.5 208.5t-20 248z M326 1888h241l76 -112l74 112h233l-209 -260h-198z" />
<glyph unicode="&#x10d;" horiz-adv-x="976" d="M78 539q0 126 26 224.5t81 172t146 112.5t214 39q200 0 354 -63v-215q-155 47 -303 47q-72 0 -119 -21t-72.5 -64.5t-35 -98t-9.5 -133.5q0 -85 9.5 -141.5t35.5 -99.5t73 -63t120 -20q144 0 317 49v-215q-171 -65 -374 -65q-463 0 -463 555zM190 1489h242l76 -113 l74 113h233l-209 -260h-198z" />
<glyph unicode="&#x10e;" horiz-adv-x="1378" d="M137 0v1489h539q140 0 244 -33.5t170.5 -92.5t107 -151t56.5 -197.5t16 -244.5q0 -102 -7.5 -186t-25.5 -164.5t-48 -143t-76 -115.5t-107 -88t-144.5 -54t-185.5 -19h-539zM326 1888h241l76 -112l74 112h233l-209 -260h-198zM420 238h237q82 0 142 28t95.5 74t57 117 t28.5 144t7 169q0 93 -7 161t-28 131.5t-57 102.5t-96 62.5t-142 23.5h-237v-1013z" />
<glyph unicode="&#x10f;" horiz-adv-x="1433" d="M88 530q0 128 23 226t74.5 173.5t140.5 115.5t213 40q97 0 235 -36v409l273 82v-1540h-273v57q-51 -32 -121.5 -52.5t-134.5 -20.5q-118 0 -202.5 38t-133.5 111.5t-71.5 170.5t-22.5 226zM371 530q0 -60 4.5 -105t16.5 -87t33 -68.5t55 -42.5t81 -16t109.5 18.5 t103.5 44.5v543q-129 39 -213 39q-57 0 -96 -25.5t-58.5 -73.5t-27.5 -102t-8 -125zM1112 1163l82 326h270l-141 -326h-211z" />
<glyph unicode="&#x110;" horiz-adv-x="1556" d="M20 641v209h250v639h539q140 0 244 -33.5t170.5 -92.5t107 -151t56.5 -197.5t16 -244.5q0 -102 -7.5 -186t-25.5 -164.5t-48 -143t-76 -115.5t-107 -88t-144.5 -54t-185.5 -19h-539v641h-250zM553 238h238q82 0 142 28t95.5 74t56.5 117t28 144t7 169q0 77 -5 136 t-18 116t-36.5 96.5t-59 71t-88.5 46.5t-122 15h-238v-401h248l-80 -209h-168v-403z" />
<glyph unicode="&#x111;" horiz-adv-x="1175" d="M68 530q0 126 26.5 225.5t81.5 174.5t146.5 115t216.5 40q97 0 235 -36v139h-254v160h254v110l273 82v-192h102v-160h-102v-1188h-273v57q-51 -32 -121.5 -52.5t-134.5 -20.5q-450 0 -450 546zM350 530q0 -319 211 -319q47 0 109.5 18.5t103.5 44.5v543q-129 39 -213 39 q-57 0 -99 -26t-66 -72.5t-35 -103t-11 -124.5z" />
<glyph unicode="&#x112;" horiz-adv-x="1230" d="M129 0v1489h1006v-238h-723v-381h698l-92 -237h-606v-395h723v-238h-1006zM340 1628v178h614v-178h-614z" />
<glyph unicode="&#x113;" d="M84 526q0 297 120 429t376 132q248 0 362.5 -124t114.5 -404q0 -83 -8 -151h-687q11 -103 61.5 -149t164.5 -46q190 0 430 66v-213q-230 -80 -447 -80q-261 0 -374 128.5t-113 411.5zM274 1276v178h615v-178h-615zM360 629h428q-6 123 -51.5 178t-156.5 55 q-114 0 -161.5 -55t-58.5 -178z" />
<glyph unicode="&#x114;" horiz-adv-x="1230" d="M129 0v1489h1006v-238h-723v-381h698l-92 -237h-606v-395h723v-238h-1006zM367 1851h192q3 -38 28.5 -60t63.5 -22q36 0 63 22t34 60h194q-5 -98 -81.5 -169.5t-207.5 -71.5q-133 0 -209.5 71.5t-76.5 169.5z" />
<glyph unicode="&#x115;" d="M84 526q0 297 120 429t376 132q248 0 362.5 -124t114.5 -404q0 -83 -8 -151h-687q11 -103 61.5 -149t164.5 -46q190 0 430 66v-213q-230 -80 -447 -80q-261 0 -374 128.5t-113 411.5zM297 1499h192q3 -37 29 -59.5t64 -22.5q36 0 62.5 22t33.5 60h194q-5 -98 -81.5 -170 t-206.5 -72q-133 0 -210 71.5t-77 170.5zM360 629h428q-6 123 -51.5 178t-156.5 55q-114 0 -161.5 -55t-58.5 -178z" />
<glyph unicode="&#x116;" horiz-adv-x="1230" d="M129 0v1489h1006v-238h-723v-381h698l-92 -237h-606v-395h723v-238h-1006zM502 1628v260h274v-260h-274z" />
<glyph unicode="&#x117;" d="M84 526q0 297 120 429t376 132q248 0 362.5 -124t114.5 -404q0 -83 -8 -151h-687q11 -103 61.5 -149t164.5 -46q190 0 430 66v-213q-230 -80 -447 -80q-261 0 -374 128.5t-113 411.5zM360 629h428q-6 123 -51.5 178t-156.5 55q-114 0 -161.5 -55t-58.5 -178zM446 1229 v260h275v-260h-275z" />
<glyph unicode="&#x118;" horiz-adv-x="1230" d="M145 0v1489h1006v-238h-723v-381h698l-92 -237h-606v-395h723v-238h-14q-50 -38 -77.5 -85.5t-27.5 -94.5q0 -72 53 -72q42 0 103 35v-137q-33 -22 -85.5 -35.5t-92.5 -13.5q-93 0 -142 49t-49 125q0 58 31 119t86 110h-791z" />
<glyph unicode="&#x119;" d="M84 526q0 297 120 429t376 132q248 0 362.5 -124t114.5 -404q0 -83 -8 -151h-687q11 -103 61.5 -149t164.5 -46q190 0 430 66v-213q-111 -39 -189 -54q-46 -37 -76 -91t-30 -101q0 -72 53 -72q42 0 103 35v-137q-33 -22 -86 -35.5t-93 -13.5q-93 0 -141.5 49t-48.5 125 q0 111 100 217q-12 -2 -39 -2q-261 0 -374 128.5t-113 411.5zM360 629h428q-6 123 -51.5 178t-156.5 55q-114 0 -161.5 -55t-58.5 -178z" />
<glyph unicode="&#x11a;" horiz-adv-x="1230" d="M129 0v1489h1006v-238h-723v-381h698l-92 -237h-606v-395h723v-238h-1006zM336 1888h242l75 -112l74 112h234l-209 -260h-199z" />
<glyph unicode="&#x11b;" d="M84 526q0 297 120 429t376 132q248 0 362.5 -124t114.5 -404q0 -83 -8 -151h-687q11 -103 61.5 -149t164.5 -46q190 0 430 66v-213q-230 -80 -447 -80q-261 0 -374 128.5t-113 411.5zM264 1489h242l76 -113l73 113h234l-209 -260h-199zM360 629h428q-6 123 -51.5 178 t-156.5 55q-114 0 -161.5 -55t-58.5 -178z" />
<glyph unicode="&#x11c;" horiz-adv-x="1396" d="M82 745q0 179 32.5 315.5t101.5 237t184.5 153t275.5 52.5q257 0 485 -73v-226q-219 62 -456 62q-334 0 -334 -521q0 -518 331 -518q123 0 273 39v346h-363v240h643v-852h-280v55q-159 -65 -299 -65q-128 0 -228.5 36t-168.5 101.5t-112.5 160.5t-64.5 208t-20 249z M381 1628l209 260h198l218 -260h-242l-76 113l-74 -113h-233z" />
<glyph unicode="&#x11d;" horiz-adv-x="1169" d="M82 567q0 -102 13.5 -182.5t45.5 -149.5t82.5 -114t128 -70.5t178.5 -25.5q134 0 232 38v-79q0 -96 -63 -126t-212 -30q-121 0 -288 37v-213q203 -49 383 -49q134 0 234 36t160 115t60 195v1126h-274v-53q-104 63 -240 63q-124 0 -210 -34t-136 -102.5t-72 -161 t-22 -220.5zM279 1229l208 260h199l217 -260h-241l-76 112l-74 -112h-233zM365 567q0 59 3.5 100.5t15 79.5t31 60.5t52 35.5t78.5 13q113 0 217 -51v-518q-125 -39 -219 -39q-45 0 -77.5 17t-51.5 44.5t-30.5 70.5t-15 86.5t-3.5 100.5z" />
<glyph unicode="&#x11e;" horiz-adv-x="1396" d="M82 745q0 179 32.5 315.5t101.5 237t184.5 153t275.5 52.5q257 0 485 -73v-226q-219 62 -456 62q-334 0 -334 -521q0 -518 331 -518q123 0 273 39v346h-363v240h643v-852h-280v55q-159 -65 -299 -65q-128 0 -228.5 36t-168.5 101.5t-112.5 160.5t-64.5 208t-20 249z M401 1851h193q3 -38 28.5 -60t63.5 -22q36 0 62.5 22t33.5 60h195q-5 -98 -81.5 -169.5t-207.5 -71.5q-133 0 -210 71.5t-77 169.5z" />
<glyph unicode="&#x11f;" horiz-adv-x="1169" d="M82 567q0 -102 13.5 -182.5t45.5 -149.5t82.5 -114t128 -70.5t178.5 -25.5q134 0 232 38v-79q0 -96 -63 -126t-212 -30q-121 0 -288 37v-213q203 -49 383 -49q134 0 234 36t160 115t60 195v1126h-274v-53q-104 63 -240 63q-124 0 -210 -34t-136 -102.5t-72 -161 t-22 -220.5zM297 1499h192q3 -37 29 -59.5t64 -22.5q36 0 62.5 22t33.5 60h194q-5 -98 -81.5 -170t-206.5 -72q-133 0 -210 71.5t-77 170.5zM365 567q0 59 3.5 100.5t15 79.5t31 60.5t52 35.5t78.5 13q113 0 217 -51v-518q-125 -39 -219 -39q-45 0 -77.5 17t-51.5 44.5 t-30.5 70.5t-15 86.5t-3.5 100.5z" />
<glyph unicode="&#x120;" horiz-adv-x="1396" d="M82 745q0 179 32.5 315.5t101.5 237t184.5 153t275.5 52.5q257 0 485 -73v-226q-219 62 -456 62q-334 0 -334 -521q0 -518 331 -518q123 0 273 39v346h-363v240h643v-852h-280v55q-159 -65 -299 -65q-128 0 -228.5 36t-168.5 101.5t-112.5 160.5t-64.5 208t-20 249z M553 1628v260h274v-260h-274z" />
<glyph unicode="&#x121;" horiz-adv-x="1169" d="M82 567q0 -102 13.5 -182.5t45.5 -149.5t82.5 -114t128 -70.5t178.5 -25.5q134 0 232 38v-79q0 -96 -63 -126t-212 -30q-121 0 -288 37v-213q203 -49 383 -49q134 0 234 36t160 115t60 195v1126h-274v-53q-104 63 -240 63q-124 0 -210 -34t-136 -102.5t-72 -161 t-22 -220.5zM365 567q0 59 3.5 100.5t15 79.5t31 60.5t52 35.5t78.5 13q113 0 217 -51v-518q-125 -39 -219 -39q-45 0 -77.5 17t-51.5 44.5t-30.5 70.5t-15 86.5t-3.5 100.5zM446 1229v260h275v-260h-275z" />
<glyph unicode="&#x122;" horiz-adv-x="1396" d="M82 745q0 179 32.5 315.5t101.5 237t184.5 153t275.5 52.5q257 0 485 -73v-226q-219 62 -456 62q-334 0 -334 -521q0 -518 331 -518q123 0 273 39v346h-363v240h643v-852h-280v55q-159 -65 -299 -65q-128 0 -228.5 36t-168.5 101.5t-112.5 160.5t-64.5 208t-20 249z M494 -408l73 263h285l-137 -263h-221z" />
<glyph unicode="&#x123;" horiz-adv-x="1169" d="M82 567q0 -102 13.5 -182.5t45.5 -149.5t82.5 -114t128 -70.5t178.5 -25.5q134 0 232 38v-79q0 -96 -63 -126t-212 -30q-121 0 -288 37v-213q203 -49 383 -49q134 0 234 36t160 115t60 195v1126h-274v-53q-104 63 -240 63q-124 0 -210 -34t-136 -102.5t-72 -161 t-22 -220.5zM365 567q0 59 3.5 100.5t15 79.5t31 60.5t52 35.5t78.5 13q113 0 217 -51v-518q-125 -39 -219 -39q-45 0 -77.5 17t-51.5 44.5t-30.5 70.5t-15 86.5t-3.5 100.5zM416 1276l141 326h231l-81 -326h-291z" />
<glyph unicode="&#x124;" horiz-adv-x="1404" d="M133 0v1489h283v-617h571v617h283v-1489h-283v635h-571v-635h-283zM389 1628l209 260h199l217 -260h-242l-76 113l-73 -113h-234z" />
<glyph unicode="&#x125;" horiz-adv-x="1200" d="M131 0v1458l275 82v-526q174 71 325 71q167 0 253.5 -95.5t86.5 -250.5v-739h-274v739q0 62 -32 90.5t-99 28.5q-69 0 -260 -72v-786h-275zM293 1628l209 260h198l218 -260h-242l-76 113l-74 -113h-233z" />
<glyph unicode="&#x126;" horiz-adv-x="1603" d="M80 1030v209h131v250h283v-250h618v250h283v-250h131v-209h-131v-1030h-283v635h-618v-635h-283v1030h-131zM494 872h618v158h-618v-158z" />
<glyph unicode="&#x127;" horiz-adv-x="1200" d="M18 1188v160h113v110l275 82v-192h241v-160h-241v-174q174 71 325 71q167 0 253.5 -95.5t86.5 -250.5v-739h-274v739q0 62 -32 90.5t-99 28.5q-69 0 -260 -72v-786h-275v1188h-113z" />
<glyph unicode="&#x128;" horiz-adv-x="495" d="M-84 1628q6 105 60 169.5t151 64.5q59 0 119 -28t90 -28q28 0 41 14t18 42h176q-6 -105 -59 -169.5t-150 -64.5q-59 0 -118.5 27.5t-89.5 27.5q-51 0 -60 -55h-178zM106 0v1489h283v-1489h-283z" />
<glyph unicode="&#x129;" horiz-adv-x="473" d="M-94 1229q6 105 60 169t151 64q59 0 119 -27.5t90 -27.5q28 0 41 13.5t18 41.5h176q-6 -105 -59 -169t-150 -64q-59 0 -119 27.5t-90 27.5q-28 0 -41 -13.5t-18 -41.5h-178zM98 0v1075h275v-1075h-275z" />
<glyph unicode="&#x12a;" horiz-adv-x="495" d="M-18 1628v178h532v-178h-532zM106 0v1489h283v-1489h-283z" />
<glyph unicode="&#x12b;" horiz-adv-x="473" d="M-18 1276v178h532v-178h-532zM98 0v1075h275v-1075h-275z" />
<glyph unicode="&#x12c;" horiz-adv-x="495" d="M-39 1851h193q3 -38 28.5 -60t63.5 -22q36 0 62.5 22t33.5 60h195q-5 -98 -81.5 -169.5t-207.5 -71.5q-133 0 -210 71.5t-77 169.5zM106 0v1489h283v-1489h-283z" />
<glyph unicode="&#x12d;" horiz-adv-x="495" d="M-41 1499h193q3 -38 28.5 -60t63.5 -22q36 0 62.5 22t33.5 60h195q-5 -98 -82 -170t-207 -72q-133 0 -210 71.5t-77 170.5zM98 0v1075h275v-1075h-275z" />
<glyph unicode="&#x12e;" horiz-adv-x="495" d="M59 -229q0 58 31 119t86 110h-70v1489h283v-1489h-12q-50 -38 -77.5 -85.5t-27.5 -94.5q0 -72 54 -72q26 0 46 7t56 28v-137q-33 -22 -85.5 -35.5t-92.5 -13.5q-93 0 -142 49t-49 125z" />
<glyph unicode="&#x12f;" horiz-adv-x="473" d="M43 -229q0 58 31 119t86 110h-62v1075h275v-1075h-13q-49 -38 -76.5 -85.5t-27.5 -94.5q0 -72 53 -72q42 0 103 35v-137q-33 -22 -86 -35.5t-93 -13.5q-93 0 -141.5 49t-48.5 125zM98 1229v260h275v-260h-275z" />
<glyph unicode="&#x130;" horiz-adv-x="473" d="M94 0v1489h283v-1489h-283zM98 1581v260h275v-260h-275z" />
<glyph unicode="&#x131;" horiz-adv-x="473" d="M98 0v1075h275v-1075h-275z" />
<glyph unicode="&#x132;" horiz-adv-x="1392" d="M160 0v1491h274v-1491h-274zM569 33v213q162 -27 265 -27q66 0 91 28.5t25 106.5v1135h283v-1163q0 -340 -346 -340q-67 0 -161 13t-157 34z" />
<glyph unicode="&#x133;" horiz-adv-x="1071" d="M119 0v1073h274v-1073h-274zM119 1229v260h274v-260h-274zM371 -147q143 -31 190 -31q62 0 86.5 21.5t24.5 78.5v1151h276v-1110q0 -149 -84 -253.5t-227 -104.5t-266 33v215zM674 1229v260h274v-260h-274z" />
<glyph unicode="&#x134;" horiz-adv-x="808" d="M16 33v213q162 -27 265 -27q66 0 91 28.5t25 106.5v1135h283v-1163q0 -340 -346 -340q-67 0 -161 13t-157 34zM252 1628l209 260h198l218 -260h-242l-76 113l-74 -113h-233z" />
<glyph unicode="&#x135;" horiz-adv-x="532" d="M-201 -156q103 -18 215 -18q66 0 91.5 28.5t25.5 106.5v1112h283v-1141q0 -340 -346 -340q-115 0 -269 35v217zM-76 1229l209 260h199l217 -260h-242l-76 112l-73 -112h-234z" />
<glyph unicode="&#x136;" horiz-adv-x="1294" d="M113 0v1489h282v-557l553 557h336l-725 -737l731 -752h-340l-555 571v-571h-282zM479 -408l74 263h285l-138 -263h-221z" />
<glyph unicode="&#x137;" horiz-adv-x="1081" d="M104 0v1458l275 82v-846l387 381h326l-527 -526l537 -549h-330l-393 387v-387h-275zM377 -408l74 263h284l-137 -263h-221z" />
<glyph unicode="&#x138;" horiz-adv-x="1132" d="M111 0v1075h274v-381l387 381h326l-527 -526l537 -549h-330l-393 387v-387h-274z" />
<glyph unicode="&#x139;" horiz-adv-x="1105" d="M121 0v1489h282v-1251h691l-93 -238h-880zM172 1628h215l215 260h-303z" />
<glyph unicode="&#x13a;" horiz-adv-x="473" d="M92 1628h215l215 260h-303zM98 0v1458l275 82v-1540h-275z" />
<glyph unicode="&#x13b;" horiz-adv-x="1105" d="M121 0v1489h282v-1251h691l-93 -238h-880zM406 -408l73 263h285l-137 -263h-221z" />
<glyph unicode="&#x13c;" horiz-adv-x="473" d="M29 -408l73 263h285l-137 -263h-221zM98 0v1458l275 82v-1540h-275z" />
<glyph unicode="&#x13d;" horiz-adv-x="1105" d="M121 0v1489h282v-1251h693l-92 -238h-883zM627 1163l82 326h270l-141 -326h-211z" />
<glyph unicode="&#x13e;" horiz-adv-x="757" d="M98 0v1458l275 82v-1540h-275zM432 1163l82 326h270l-141 -326h-211z" />
<glyph unicode="&#x13f;" horiz-adv-x="1105" d="M121 0v1489h282v-1251h695l-92 -238h-885zM616 645v305h275v-305h-275z" />
<glyph unicode="&#x140;" horiz-adv-x="778" d="M90 0v1458l275 82v-1540h-275zM453 606v305h274v-305h-274z" />
<glyph unicode="&#x141;" horiz-adv-x="1351" d="M74 520l223 121v848h283v-696l409 223l92 -158l-501 -270v-350h692l-92 -238h-883v434l-131 -69z" />
<glyph unicode="&#x142;" horiz-adv-x="552" d="M25 508v209l104 59v682l274 82v-608l125 72v-209l-125 -72v-723h-274v567z" />
<glyph unicode="&#x143;" horiz-adv-x="1437" d="M135 0v1489h387l508 -1135v1135h273v-1489h-388l-507 1135v-1135h-273zM592 1628h215l215 260h-303z" />
<glyph unicode="&#x144;" horiz-adv-x="1198" d="M121 0v1012l276 82v-88q173 81 348 81q166 0 249 -93.5t83 -250.5v-743h-272v743q0 62 -30.5 89.5t-94.5 27.5q-94 0 -283 -76v-784h-276zM459 1229h215l215 260h-303z" />
<glyph unicode="&#x145;" horiz-adv-x="1437" d="M135 0v1489h387l508 -1135v1135h273v-1489h-388l-507 1135v-1135h-273zM524 -408l74 263h285l-138 -263h-221z" />
<glyph unicode="&#x146;" horiz-adv-x="1198" d="M121 0v1012l276 82v-88q173 81 348 81q166 0 249 -93.5t83 -250.5v-743h-272v743q0 62 -30.5 89.5t-94.5 27.5q-94 0 -283 -76v-784h-276zM422 -408l74 263h284l-137 -263h-221z" />
<glyph unicode="&#x147;" horiz-adv-x="1437" d="M135 0v1489h387l508 -1135v1135h273v-1489h-388l-507 1135v-1135h-273zM428 1888h242l75 -112l74 112h234l-209 -260h-199z" />
<glyph unicode="&#x148;" horiz-adv-x="1198" d="M121 0v1012l276 82v-88q173 81 348 81q166 0 249 -93.5t83 -250.5v-743h-272v743q0 62 -30.5 89.5t-94.5 27.5q-94 0 -283 -76v-784h-276zM274 1489h242l76 -113l74 113h233l-209 -260h-198z" />
<glyph unicode="&#x149;" horiz-adv-x="1269" d="M16 1163l82 326h271l-152 -326h-201zM217 0v1012l277 82v-88q173 81 348 81q166 0 249 -93.5t83 -250.5v-743h-273v743q0 62 -30.5 89.5t-94.5 27.5q-93 0 -282 -76v-784h-277z" />
<glyph unicode="&#x14a;" horiz-adv-x="1437" d="M135 0v1489h367l528 -1012v1012h273v-1493q0 -163 -81.5 -250.5t-265.5 -87.5q-68 0 -164.5 13t-158.5 34v207q137 -29 274 -29q67 0 95 27t28 90l-622 1135v-1135h-273z" />
<glyph unicode="&#x14b;" horiz-adv-x="1198" d="M121 0v1012l276 82v-88q173 81 348 81q166 0 249 -93.5t83 -250.5v-802q0 -162 -80.5 -249t-263.5 -87q-110 0 -223 30v205q76 -12 172 -12q67 0 95 27t28 90v798q0 62 -30.5 89.5t-94.5 27.5q-94 0 -283 -76v-784h-276z" />
<glyph unicode="&#x14c;" horiz-adv-x="1406" d="M100 739q0 190 31 328t100.5 237.5t186.5 149t284 49.5t284 -49.5t187 -149t101 -237.5t31 -328q0 -189 -31 -324.5t-101 -232.5t-187 -144.5t-284 -47.5t-284 47.5t-186.5 144.5t-100.5 232.5t-31 324.5zM383 739q0 -266 73 -389t246 -123t246.5 123t73.5 389t-74 396.5 t-246 130.5t-245.5 -130t-73.5 -397zM391 1628v178h615v-178h-615z" />
<glyph unicode="&#x14d;" horiz-adv-x="1165" d="M84 528q0 -258 120.5 -400t377.5 -142q260 0 377.5 140t117.5 402q0 271 -117.5 415t-377.5 144q-498 0 -498 -559zM279 1276v178h614v-178h-614zM367 528q0 179 51 256.5t164 77.5q107 0 160 -79t53 -255q0 -172 -52.5 -244.5t-160.5 -72.5q-115 0 -165 71.5t-50 245.5z " />
<glyph unicode="&#x14e;" horiz-adv-x="1406" d="M100 739q0 190 31 328t100.5 237.5t186.5 149t284 49.5t284 -49.5t187 -149t101 -237.5t31 -328q0 -189 -31 -324.5t-101 -232.5t-187 -144.5t-284 -47.5t-284 47.5t-186.5 144.5t-100.5 232.5t-31 324.5zM383 739q0 -266 73 -389t246 -123t246.5 123t73.5 389t-74 396.5 t-246 130.5t-245.5 -130t-73.5 -397zM412 1851h192q3 -38 28.5 -60t63.5 -22q36 0 63 22t34 60h194q-5 -98 -81.5 -169.5t-207.5 -71.5q-133 0 -209.5 71.5t-76.5 169.5z" />
<glyph unicode="&#x14f;" horiz-adv-x="1165" d="M84 528q0 -258 120.5 -400t377.5 -142q260 0 377.5 140t117.5 402q0 271 -117.5 415t-377.5 144q-498 0 -498 -559zM299 1499h193q3 -38 28.5 -60t63.5 -22q36 0 62.5 22t33.5 60h194q-5 -98 -81.5 -170t-206.5 -72q-133 0 -210 71.5t-77 170.5zM367 528q0 179 51 256.5 t164 77.5q107 0 160 -79t53 -255q0 -172 -52.5 -244.5t-160.5 -72.5q-115 0 -165 71.5t-50 245.5z" />
<glyph unicode="&#x150;" horiz-adv-x="1406" d="M100 739q0 190 31 328t100.5 237.5t186.5 149t284 49.5t284 -49.5t187 -149t101 -237.5t31 -328q0 -189 -31 -324.5t-101 -232.5t-187 -144.5t-284 -47.5t-284 47.5t-186.5 144.5t-100.5 232.5t-31 324.5zM352 1628h195l215 260h-283zM383 739q0 -266 73 -389t246 -123 t246.5 123t73.5 389t-74 396.5t-246 130.5t-245.5 -130t-73.5 -397zM698 1628h195l215 260h-283z" />
<glyph unicode="&#x151;" horiz-adv-x="1165" d="M84 528q0 -258 120.5 -400t377.5 -142q260 0 377.5 140t117.5 402q0 271 -117.5 415t-377.5 144q-498 0 -498 -559zM248 1229h194l215 260h-282zM367 528q0 179 51 256.5t164 77.5q107 0 160 -79t53 -255q0 -172 -52.5 -244.5t-160.5 -72.5q-115 0 -165 71.5t-50 245.5z M594 1229h194l216 260h-283z" />
<glyph unicode="&#x152;" horiz-adv-x="2027" d="M100 739q0 190 31 328t100.5 237.5t186.5 149t284 49.5q108 0 187.5 -25t140.5 -87v96h916v-221h-639v-402h622l-86 -225h-536v-418h639v-221h-916v98q-61 -61 -140 -84.5t-188 -23.5q-167 0 -284 47.5t-186.5 144.5t-100.5 232.5t-31 324.5zM383 739q0 -266 73 -389 t246 -123t246.5 123t73.5 389t-74 396.5t-246 130.5t-245.5 -130t-73.5 -397z" />
<glyph unicode="&#x153;" horiz-adv-x="1841" d="M53 528q0 -258 120.5 -400t377.5 -142q127 0 221.5 45t151.5 121q120 -166 387 -166q216 0 446 80v213q-240 -66 -430 -66q-115 0 -168.5 46.5t-64.5 148.5h694q8 68 8 151q0 280 -114.5 404t-362.5 124q-132 0 -232 -46t-159 -128q-57 80 -152.5 127t-224.5 47 q-498 0 -498 -559zM336 528q0 179 51 256.5t164 77.5q108 0 164.5 -79.5t56.5 -254.5q0 -170 -56 -243.5t-165 -73.5q-115 0 -165 71.5t-50 245.5zM1092 629q11 122 61.5 177.5t165.5 55.5q111 0 157 -55.5t52 -177.5h-436z" />
<glyph unicode="&#x154;" horiz-adv-x="1337" d="M139 0v1489h570q261 0 382 -111t121 -370q0 -184 -59 -292t-184 -155l313 -561h-317l-287 520h-258v-520h-281zM420 758h270q124 0 182 60t58 190q0 132 -57 187.5t-183 55.5h-270v-493zM463 1628h215l215 260h-303z" />
<glyph unicode="&#x155;" horiz-adv-x="862" d="M117 0v1014l274 82v-72q139 57 283 57q80 0 135 -6v-237q-94 4 -129 4q-129 0 -289 -41v-801h-274zM305 1229h215l215 260h-303z" />
<glyph unicode="&#x156;" horiz-adv-x="1337" d="M139 0v1489h570q261 0 382 -111t121 -370q0 -184 -59 -292t-184 -155l313 -561h-317l-287 520h-258v-520h-281zM420 758h270q124 0 182 60t58 190q0 132 -57 187.5t-183 55.5h-270v-493zM479 -408l74 263h285l-138 -263h-221z" />
<glyph unicode="&#x157;" horiz-adv-x="862" d="M43 -408l74 263h284l-137 -263h-221zM117 0v1014l274 82v-72q139 57 283 57q80 0 135 -6v-237q-62 4 -135 4q-129 0 -283 -41v-801h-274z" />
<glyph unicode="&#x158;" horiz-adv-x="1337" d="M139 0v1489h570q261 0 382 -111t121 -370q0 -184 -59 -292t-184 -155l313 -561h-317l-287 520h-258v-520h-281zM311 1888h242l76 -112l73 112h234l-209 -260h-199zM420 758h270q124 0 182 60t58 190q0 132 -57 187.5t-183 55.5h-270v-493z" />
<glyph unicode="&#x159;" horiz-adv-x="862" d="M117 0v1014l274 82v-72q156 57 283 57q80 0 135 -6v-237q-62 4 -76 4h-59q-112 0 -283 -41v-801h-274zM147 1489h242l76 -113l74 113h233l-209 -260h-198z" />
<glyph unicode="&#x15a;" horiz-adv-x="1167" d="M78 1096q0 407 510 407q219 0 430 -69v-215q-196 53 -410 53q-56 0 -98.5 -7t-82 -24.5t-60.5 -53.5t-21 -89q0 -34 6 -59.5t24 -46t36.5 -33.5t58.5 -28t73 -24.5t97 -25.5q117 -30 195 -63.5t139 -84t89 -121.5t28 -168q0 -226 -133.5 -346.5t-372.5 -120.5 q-235 0 -480 76v213q287 -57 459 -57q133 0 196.5 57t63.5 174q0 35 -12.5 61.5t-32.5 45t-59.5 35.5t-78.5 28.5t-105 28.5q-233 57 -346 161t-113 296zM438 1628h215l215 260h-303z" />
<glyph unicode="&#x15b;" horiz-adv-x="1056" d="M78 774q0 83 32.5 144.5t91 97.5t133.5 53.5t167 17.5q171 0 416 -59v-217q-241 51 -414 51q-79 0 -114.5 -18.5t-35.5 -59.5q0 -50 41.5 -74t159.5 -46q214 -40 316 -123.5t102 -227.5q0 -172 -120 -249.5t-351 -77.5q-91 0 -214.5 19.5t-195.5 49.5v213 q209 -57 391 -57q121 0 167 19t46 77q0 53 -40.5 77t-172.5 52q-210 39 -307.5 117t-97.5 221zM362 1229h216l215 260h-304z" />
<glyph unicode="&#x15c;" horiz-adv-x="1167" d="M78 1096q0 407 510 407q219 0 430 -69v-215q-196 53 -410 53q-56 0 -98.5 -7t-82 -24.5t-60.5 -53.5t-21 -89q0 -34 6 -59.5t24 -46t36.5 -33.5t58.5 -28t73 -24.5t97 -25.5q117 -30 195 -63.5t139 -84t89 -121.5t28 -168q0 -226 -133.5 -346.5t-372.5 -120.5 q-235 0 -480 76v213q287 -57 459 -57q133 0 196.5 57t63.5 174q0 35 -12.5 61.5t-32.5 45t-59.5 35.5t-78.5 28.5t-105 28.5q-233 57 -346 161t-113 296zM264 1628l209 260h199l217 -260h-242l-76 113l-73 -113h-234z" />
<glyph unicode="&#x15d;" horiz-adv-x="1056" d="M78 774q0 83 32.5 144.5t91 97.5t133.5 53.5t167 17.5q171 0 416 -59v-217q-241 51 -414 51q-79 0 -114.5 -18.5t-35.5 -59.5q0 -50 41.5 -74t159.5 -46q214 -40 316 -123.5t102 -227.5q0 -172 -120 -249.5t-351 -77.5q-91 0 -214.5 19.5t-195.5 49.5v213 q209 -57 391 -57q121 0 167 19t46 77q0 53 -40.5 77t-172.5 52q-210 39 -307.5 117t-97.5 221zM190 1229l209 260h199l217 -260h-242l-75 112l-74 -112h-234z" />
<glyph unicode="&#x15e;" horiz-adv-x="1167" d="M78 1096q0 407 510 407q219 0 430 -69v-215q-196 53 -410 53q-56 0 -98.5 -7t-82 -24.5t-60.5 -53.5t-21 -89q0 -34 6 -59.5t24 -46t36.5 -33.5t58.5 -28t73 -24.5t97 -25.5q117 -30 195 -63.5t139 -84t89 -121.5t28 -168q0 -226 -133.5 -346.5t-372.5 -120.5 q-235 0 -480 76v213q287 -57 459 -57q133 0 196.5 57t63.5 174q0 35 -12.5 61.5t-32.5 45t-59.5 35.5t-78.5 28.5t-105 28.5q-233 57 -346 161t-113 296zM410 -408l73 263h285l-137 -263h-221z" />
<glyph unicode="&#x15f;" horiz-adv-x="1024" d="M78 774q0 83 31 144.5t88 97.5t129 53.5t161 17.5q164 0 402 -59v-211q-235 51 -408 51q-149 0 -149 -84q0 -47 45 -71t162 -49q208 -44 305.5 -125.5t97.5 -225.5q0 -172 -116 -251.5t-339 -79.5q-87 0 -206.5 19.5t-188.5 49.5v207q201 -57 385 -57q113 0 162 23.5 t49 82.5q0 51 -43 74.5t-176 54.5q-206 48 -298.5 122.5t-92.5 215.5zM309 -408l74 263h285l-138 -263h-221z" />
<glyph unicode="&#x160;" horiz-adv-x="1167" d="M78 1096q0 407 510 407q219 0 430 -69v-215q-196 53 -410 53q-56 0 -98.5 -7t-82 -24.5t-60.5 -53.5t-21 -89q0 -34 6 -59.5t24 -46t36.5 -33.5t58.5 -28t73 -24.5t97 -25.5q117 -30 195 -63.5t139 -84t89 -121.5t28 -168q0 -226 -133.5 -346.5t-372.5 -120.5 q-235 0 -480 76v213q287 -57 459 -57q133 0 196.5 57t63.5 174q0 35 -12.5 61.5t-32.5 45t-59.5 35.5t-78.5 28.5t-105 28.5q-233 57 -346 161t-113 296zM264 1888h242l76 -112l73 112h234l-209 -260h-199z" />
<glyph unicode="&#x161;" horiz-adv-x="1024" d="M78 774q0 83 31 144.5t88 97.5t129 53.5t161 17.5q164 0 402 -59v-211q-235 51 -408 51q-149 0 -149 -84q0 -47 45 -71t162 -49q208 -44 305.5 -125.5t97.5 -225.5q0 -172 -116 -251.5t-339 -79.5q-87 0 -206.5 19.5t-188.5 49.5v207q201 -57 385 -57q113 0 162 23.5 t49 82.5q0 51 -43 74.5t-176 54.5q-206 48 -298.5 122.5t-92.5 215.5zM172 1489h242l75 -113l74 113h234l-209 -260h-199z" />
<glyph unicode="&#x162;" horiz-adv-x="1325" d="M49 1251v238h1245l-92 -238h-414v-1251h-282v1251h-457zM430 -408l74 263h284l-137 -263h-221z" />
<glyph unicode="&#x163;" horiz-adv-x="880" d="M31 850v225h188v271l270 81v-352h302v-225h-302v-526q0 -70 19 -95.5t82 -25.5q81 0 235 37v-215q-152 -48 -278 -48q-165 0 -246.5 97t-81.5 254v522h-188zM285 -408l73 263h285l-137 -263h-221z" />
<glyph unicode="&#x164;" horiz-adv-x="1325" d="M49 1251v238h1245l-92 -238h-414v-1251h-282v1251h-457zM342 1888h242l75 -112l74 112h234l-209 -260h-199z" />
<glyph unicode="&#x165;" horiz-adv-x="1085" d="M31 850v225h188v271l270 81v-352h302v-225h-302v-526q0 -70 19 -95.5t82 -25.5q81 0 235 37v-215q-152 -48 -278 -48q-165 0 -246.5 97t-81.5 254v522h-188zM760 1163l82 326h270l-141 -326h-211z" />
<glyph unicode="&#x166;" horiz-adv-x="1325" d="M49 1251v238h1245l-92 -238h-414v-274h297v-209h-297v-768h-282v768h-270v209h270v274h-457z" />
<glyph unicode="&#x167;" horiz-adv-x="847" d="M55 539v188h187v119h-187v229h187v271l274 81v-352h299v-229h-299v-119h301v-188h-301v-220q0 -70 17.5 -95t80.5 -25q82 0 236 37v-216q-149 -47 -279 -47q-165 0 -247 97t-82 254v215h-187z" />
<glyph unicode="&#x168;" horiz-adv-x="1384" d="M133 485v1004h283v-1002q0 -256 272 -256q135 0 206 60t71 196v1002h286v-1004q0 -262 -141.5 -378.5t-421.5 -116.5q-279 0 -417 116t-138 379zM365 1628q6 105 59.5 169.5t150.5 64.5q59 0 119 -28t90 -28q28 0 41.5 14t18.5 42h176q-6 -105 -59 -169.5t-150 -64.5 q-59 0 -119 27.5t-90 27.5q-28 0 -41 -13.5t-18 -41.5h-178z" />
<glyph unicode="&#x169;" horiz-adv-x="1198" d="M127 328v686l274 82v-783q0 -53 31.5 -76.5t95.5 -23.5q105 0 265 55v807h272v-1075h-272v66q-170 -80 -304 -80q-77 0 -141 19t-114.5 58t-78.5 106.5t-28 158.5zM260 1229q6 105 60 169t151 64q59 0 119 -27.5t90 -27.5q28 0 41 13.5t18 41.5h176q-6 -105 -58.5 -169 t-149.5 -64q-59 0 -119 27.5t-90 27.5q-51 0 -60 -55h-178z" />
<glyph unicode="&#x16a;" horiz-adv-x="1384" d="M133 485v1004h283v-1002q0 -256 272 -256q135 0 206 60t71 196v1002h286v-1004q0 -262 -141.5 -378.5t-421.5 -116.5q-279 0 -417 116t-138 379zM377 1628v178h614v-178h-614z" />
<glyph unicode="&#x16b;" horiz-adv-x="1198" d="M127 328v686l274 82v-783q0 -53 31.5 -76.5t95.5 -23.5q105 0 265 55v807h272v-1075h-272v66q-170 -80 -304 -80q-77 0 -141 19t-114.5 58t-78.5 106.5t-28 158.5zM299 1276v178h614v-178h-614z" />
<glyph unicode="&#x16c;" horiz-adv-x="1384" d="M133 485v1004h283v-1002q0 -256 272 -256q135 0 206 60t71 196v1002h286v-1004q0 -262 -141.5 -378.5t-421.5 -116.5q-279 0 -417 116t-138 379zM412 1851h192q3 -38 28.5 -60t63.5 -22q36 0 63 22t34 60h194q-5 -98 -81.5 -169.5t-207.5 -71.5q-133 0 -209.5 71.5 t-76.5 169.5z" />
<glyph unicode="&#x16d;" horiz-adv-x="1198" d="M127 328v686l274 82v-783q0 -53 31.5 -76.5t95.5 -23.5q105 0 265 55v807h272v-1075h-272v66q-170 -80 -304 -80q-77 0 -141 19t-114.5 58t-78.5 106.5t-28 158.5zM315 1499h193q3 -38 28.5 -60t63.5 -22q36 0 62.5 22t33.5 60h195q-5 -98 -82 -170t-207 -72 q-133 0 -210 71.5t-77 170.5z" />
<glyph unicode="&#x16e;" horiz-adv-x="1384" d="M133 485v1004h283v-1002q0 -256 272 -256q135 0 206 60t71 196v1002h286v-1004q0 -262 -141.5 -378.5t-421.5 -116.5q-279 0 -417 116t-138 379zM496 1743q0 86 56.5 133t135.5 47t134 -47t55 -133q0 -85 -54.5 -128.5t-134.5 -43.5q-81 0 -136.5 43.5t-55.5 128.5z M637 1743q0 -20 14 -31.5t37 -11.5q49 0 49 43q0 19 -13 32t-36 13t-37 -13t-14 -32z" />
<glyph unicode="&#x16f;" horiz-adv-x="1198" d="M127 328v686l274 82v-783q0 -53 31.5 -76.5t95.5 -23.5q105 0 265 55v807h272v-1075h-272v66q-170 -80 -304 -80q-77 0 -141 19t-114.5 58t-78.5 106.5t-28 158.5zM420 1360q0 86 56.5 133t135.5 47t134 -47t55 -133q0 -85 -54.5 -128.5t-134.5 -43.5q-81 0 -136.5 43.5 t-55.5 128.5zM561 1360q0 -20 14 -31.5t37 -11.5q50 0 50 43q0 19 -13.5 32t-36.5 13t-37 -13t-14 -32z" />
<glyph unicode="&#x170;" horiz-adv-x="1384" d="M133 485v1004h283v-1002q0 -256 272 -256q135 0 206 60t71 196v1002h286v-1004q0 -262 -141.5 -378.5t-421.5 -116.5q-279 0 -417 116t-138 379zM369 1628h194l215 260h-282zM715 1628h194l215 260h-282z" />
<glyph unicode="&#x171;" horiz-adv-x="1198" d="M127 328v686l274 82v-783q0 -53 31.5 -76.5t95.5 -23.5q105 0 265 55v807h272v-1075h-272v66q-170 -80 -304 -80q-77 0 -141 19t-114.5 58t-78.5 106.5t-28 158.5zM274 1229h195l215 260h-283zM621 1229h194l215 260h-282z" />
<glyph unicode="&#x172;" horiz-adv-x="1384" d="M133 485v1004h283v-1002q0 -256 272 -256q135 0 206 60t71 196v1002h286v-1004q0 -196 -81 -309t-242 -160q-47 -13 -115 -20q-45 -37 -69.5 -84.5t-24.5 -91.5q0 -72 53 -72q26 0 46 7t56 28v-137q-33 -22 -85.5 -35.5t-92.5 -13.5q-93 0 -141.5 49t-48.5 125 q0 54 27.5 116.5t76.5 104.5q-238 16 -357.5 132t-119.5 361z" />
<glyph unicode="&#x173;" horiz-adv-x="1198" d="M127 328v686l274 82v-783q0 -53 31.5 -76.5t95.5 -23.5q105 0 265 55v807h272v-1075h-16q-50 -38 -77.5 -85.5t-27.5 -94.5q0 -72 53 -72q42 0 103 35v-137q-33 -22 -85.5 -35.5t-92.5 -13.5q-93 0 -142 49t-49 125q0 58 31 119t86 110h-55v66q-170 -80 -304 -80 q-77 0 -141 19t-114.5 58t-78.5 106.5t-28 158.5z" />
<glyph unicode="&#x174;" horiz-adv-x="1908" d="M20 1489h281l217 -1219l256 1219h361l254 -1219l219 1219h280l-305 -1489h-381l-248 1133l-249 -1133h-381zM649 1628l209 260h199l217 -260h-242l-76 113l-73 -113h-234z" />
<glyph unicode="&#x175;" horiz-adv-x="1679" d="M20 1075l283 -1075h342l197 801l194 -801h342l279 1075h-271l-180 -803l-188 803h-352l-187 -803l-188 803h-271zM532 1229l209 260h199l217 -260h-242l-75 112l-74 -112h-234z" />
<glyph unicode="&#x176;" horiz-adv-x="1314" d="M-6 1489h311l352 -576l353 576h311l-520 -840v-649h-285v651zM352 1628l209 260h199l217 -260h-242l-76 113l-73 -113h-234z" />
<glyph unicode="&#x177;" horiz-adv-x="1198" d="M129 365v649l274 82v-746q0 -52 31 -74t96 -22q87 0 265 53v768h272v-1130q0 -170 -123.5 -257t-329.5 -87q-175 0 -383 47v217q71 -18 156 -28.5t133 -10.5q58 0 96 3t75 12t58 26t33.5 45.5t12.5 69.5v108q-195 -65 -303 -65q-162 0 -262.5 82.5t-100.5 257.5z M285 1229l209 260h198l217 -260h-241l-76 112l-74 -112h-233z" />
<glyph unicode="&#x178;" horiz-adv-x="1314" d="M-6 1489h311l352 -576l353 576h311l-520 -840v-649h-285v651zM309 1628v260h275v-260h-275zM750 1628v260h274v-260h-274z" />
<glyph unicode="&#x179;" horiz-adv-x="1220" d="M102 0v215l672 1036h-672v238h1010v-211l-684 -1040h721l-90 -238h-957zM453 1628h215l215 260h-303z" />
<glyph unicode="&#x17a;" horiz-adv-x="1054" d="M92 0v209l518 637h-514v229h858v-192l-526 -654h563l-88 -229h-811zM350 1229h215l215 260h-303z" />
<glyph unicode="&#x17b;" horiz-adv-x="1220" d="M102 0v215l672 1036h-672v238h1010v-211l-684 -1040h721l-90 -238h-957zM453 1628v260h274v-260h-274z" />
<glyph unicode="&#x17c;" horiz-adv-x="1054" d="M92 0v209l518 637h-514v229h858v-192l-526 -654h563l-88 -229h-811zM375 1229v260h274v-260h-274z" />
<glyph unicode="&#x17d;" horiz-adv-x="1220" d="M102 0v215l672 1036h-672v238h1010v-211l-684 -1040h721l-90 -238h-957zM287 1888h241l76 -112l74 112h233l-209 -260h-198z" />
<glyph unicode="&#x17e;" horiz-adv-x="1054" d="M92 0v209l518 637h-514v229h858v-192l-526 -654h563l-88 -229h-811zM213 1489h242l75 -113l74 113h234l-209 -260h-199z" />
<glyph unicode="&#x17f;" horiz-adv-x="849" d="M197 0h274v1200q0 69 18 95t80 26q46 0 117 -11t123 -28v215q-108 47 -266 47q-175 0 -260.5 -93t-85.5 -255v-1196z" />
<glyph unicode="&#x180;" horiz-adv-x="1167" d="M18 1188h121v-1188h273v57q51 -32 121.5 -52.5t134.5 -20.5q118 0 202.5 38t133.5 111.5t71.5 170.5t22.5 226q0 128 -23 226t-74.5 173.5t-140.5 115.5t-213 40q-97 0 -235 -36v139h235v160h-235v194l-273 -82v-112h-121v-160zM412 274v543q129 39 213 39q57 0 96 -25.5 t58.5 -73.5t27.5 -102t8 -125q0 -60 -4.5 -105t-16.5 -87t-33 -68.5t-55 -42.5t-81 -16t-109.5 18.5t-103.5 44.5z" />
<glyph unicode="&#x181;" horiz-adv-x="1495" d="M18 1223q0 135 79 200.5t208 65.5h596q256 0 366.5 -101.5t110.5 -324.5q0 -192 -118 -289q79 -43 119 -123t40 -217q0 -228 -127 -331t-368 -103h-578v1257h-27q-53 0 -74.5 -16.5t-21.5 -62.5q0 -57 15 -119h-201q-19 90 -19 164zM618 236h318q203 0 203 198 q0 199 -203 199h-318v-397zM618 868h277q107 0 155 49.5t48 143.5q0 101 -51 146.5t-152 45.5h-277v-385z" />
<glyph unicode="&#x182;" horiz-adv-x="1316" d="M123 0v1489h975v-229h-701v-394h256h11q56 0 89 -1t98 -9t107 -23.5t95.5 -47.5t84.5 -76.5t53.5 -115.5t22.5 -161q0 -432 -495 -432h-596zM397 229h326q211 0 211 203q0 205 -211 205h-326v-408z" />
<glyph unicode="&#x183;" horiz-adv-x="1167" d="M139 0h273v57q51 -32 121.5 -52.5t134.5 -20.5q118 0 202.5 38t133.5 111.5t71.5 170.5t22.5 226q0 128 -23 226t-74.5 173.5t-140.5 115.5t-213 40q-97 0 -235 -36v231h479v209h-752v-1489zM412 274v543q129 39 213 39q57 0 96 -25.5t58.5 -73.5t27.5 -102t8 -125 q0 -60 -4.5 -105t-16.5 -87t-33 -68.5t-55 -42.5t-81 -16t-109.5 18.5t-103.5 44.5z" />
<glyph unicode="&#x184;" horiz-adv-x="1331" d="M-27 1286l359 201h102v-621h242h11q55 0 88 -1t97.5 -9t106.5 -23.5t95.5 -47.5t84.5 -76.5t53.5 -115.5t22.5 -161q0 -432 -496 -432h-577v1044zM434 229h311q111 0 160 52t49 151q0 205 -209 205h-311v-408z" />
<glyph unicode="&#x185;" horiz-adv-x="1175" d="M-18 1307l139 -238v-1069h272v57q51 -32 121.5 -52.5t134.5 -20.5q118 0 202.5 38t133.5 111.5t71.5 170.5t22.5 226q0 128 -23 226t-74 173.5t-140 115.5t-213 40q-98 0 -236 -36v440h-88zM393 274v543q129 39 213 39q57 0 96 -25.5t59 -73.5t28 -102t8 -125 q0 -60 -4.5 -105t-17 -87t-33 -68.5t-55 -42.5t-81.5 -16t-109.5 18.5t-103.5 44.5z" />
<glyph unicode="&#x186;" horiz-adv-x="1189" d="M78 66q252 -76 450 -76q126 0 225.5 37t167.5 103t112.5 161.5t64.5 208.5t20 248q0 179 -32.5 315.5t-101.5 236.5t-183.5 151.5t-272.5 51.5q-227 0 -450 -73v-216q131 29 222 40.5t196 11.5q175 0 255 -131t80 -387q0 -521 -337 -521q-176 0 -416 58v-219z" />
<glyph unicode="&#x187;" horiz-adv-x="1208" d="M78 748q0 179 32.5 315.5t101.5 236.5t183.5 151.5t272.5 51.5q118 0 223 -18l22 -4q22 99 97.5 158t191.5 59q84 0 174 -19v-180q-58 14 -139 14q-119 0 -119 -83v-216q-131 29 -222 40.5t-196 11.5q-175 0 -255 -131t-80 -387q0 -521 337 -521q176 0 416 58v-219 q-252 -76 -450 -76q-126 0 -225.5 37t-167.5 103t-112.5 161.5t-64.5 208.5t-20 248z" />
<glyph unicode="&#x188;" horiz-adv-x="976" d="M78 539q0 126 26 224.5t81 172t146 112.5t214 39q63 0 151 -10q22 96 97.5 153.5t189.5 57.5q89 0 174 -18v-180q-58 14 -139 14q-56 0 -87.5 -16.5t-31.5 -63.5v-215q-155 47 -303 47q-72 0 -119 -21t-72.5 -64.5t-35 -98t-9.5 -133.5q0 -85 9.5 -141.5t35.5 -99.5 t73 -63t120 -20q144 0 317 49v-215q-171 -65 -374 -65q-463 0 -463 555z" />
<glyph unicode="&#x189;" horiz-adv-x="1556" d="M20 641v209h250v639h539q140 0 244 -33.5t170.5 -92.5t107 -151t56.5 -197.5t16 -244.5q0 -102 -7.5 -186t-25.5 -164.5t-48 -143t-76 -115.5t-107 -88t-144.5 -54t-185.5 -19h-539v641h-250zM553 238h238q82 0 142 28t95.5 74t56.5 117t28 144t7 169q0 77 -5 136 t-18 116t-36.5 96.5t-59 71t-88.5 46.5t-122 15h-238v-401h248l-80 -209h-168v-403z" />
<glyph unicode="&#x18a;" horiz-adv-x="1576" d="M-2 1223q0 135 79 200.5t208 65.5h571q140 0 244 -33.5t170.5 -92.5t107 -151t56.5 -197.5t16 -244.5q0 -102 -7.5 -186t-25.5 -164.5t-48 -143t-76 -115.5t-107 -88t-144.5 -54t-185.5 -19h-539v1257h-18q-53 0 -74.5 -16.5t-21.5 -62.5q0 -61 14 -119h-201 q-18 85 -18 164zM600 238h238q82 0 142 28t95.5 74t56.5 117t28 144t7 169q0 77 -5 136t-18 116t-36.5 96.5t-59 71t-88.5 46.5t-122 15h-238v-1013z" />
<glyph unicode="&#x18b;" horiz-adv-x="1316" d="M82 432q0 -432 496 -432h596v1489h-975v-229h700v-394h-256q-165 0 -251 -19q-310 -70 -310 -415zM362 432q0 205 211 205h326v-408h-326q-211 0 -211 203z" />
<glyph unicode="&#x18c;" horiz-adv-x="1167" d="M66 530q0 128 23 226t74 173.5t140 115.5t213 40q98 0 236 -36v231h-480v209h752v-1489h-272v57q-51 -32 -121.5 -52.5t-134.5 -20.5q-118 0 -202.5 38t-133.5 111.5t-71.5 170.5t-22.5 226zM348 530q0 -60 4.5 -105t17 -87t33 -68.5t55 -42.5t81.5 -16t109.5 18.5 t103.5 44.5v543q-129 39 -213 39q-57 0 -96 -25.5t-59 -73.5t-28 -102t-8 -125z" />
<glyph unicode="&#x18d;" horiz-adv-x="1165" d="M96 598q0 222 138.5 355.5t361.5 133.5q146 0 258.5 -56.5t178 -172t65.5 -276.5q0 -163 -88.5 -286t-237.5 -202q133 -106 133 -237q0 -113 -95 -184.5t-278 -71.5q-104 0 -204.5 39t-161.5 90l88 196q60 -42 153 -74t171 -32q79 0 79 45q0 6 -2.5 12.5t-8 14t-11 14 t-16 15.5l-17.5 15t-21 16.5t-21.5 16.5t-24 18t-23.5 17q-167 122 -256.5 215.5t-124.5 179.5t-35 199zM367 588q0 -92 50 -169.5t185 -172.5q217 125 217 334q0 130 -68.5 204t-162.5 74q-96 0 -158.5 -72t-62.5 -198z" />
<glyph unicode="&#x18e;" horiz-adv-x="1230" d="M129 0h1006v1489h-1006v-238h723v-381h-608l-90 -237h698v-395h-723v-238z" />
<glyph unicode="&#x18f;" horiz-adv-x="1406" d="M94 711l4 172h924q-12 207 -85 294t-255 87q-136 0 -254 -22t-274 -73v224q292 108 555 108q321 -4 460.5 -178.5t139.5 -562.5q0 -278 -66.5 -448t-199 -246t-345.5 -76q-308 0 -456 170.5t-148 550.5zM369 651q4 -114 21 -190.5t54.5 -131.5t99 -79.5t154.5 -24.5 q74 0 127.5 17.5t89 49.5t58 86t33.5 118t16 155h-653z" />
<glyph unicode="&#x190;" horiz-adv-x="1112" d="M68 420q0 -225 134 -332.5t380 -107.5q230 0 473 114v219q-255 -104 -447 -104q-137 0 -196 51t-64 162q0 69 25.5 116.5t76 73.5t113 36.5t148.5 10.5h106v228h-106q-60 0 -110 9.5t-97.5 32.5t-75 70t-27.5 113q0 80 47 119t160 43q164 0 398 -113v219 q-199 123 -398 123q-246 0 -364.5 -93t-118.5 -292q0 -114 50 -190.5t147 -128.5q-123 -43 -188.5 -134.5t-65.5 -244.5z" />
<glyph unicode="&#x191;" horiz-adv-x="1208" d="M-63 -170q70 -6 124 -6q68 0 95.5 25.5t27.5 91.5v1550h967v-238h-684v-383h639l-92 -237h-547v-696q0 -164 -85 -250t-271 -86q-101 0 -174 14v215z" />
<glyph unicode="&#x192;" horiz-adv-x="1064" d="M-4 -367q97 -32 223 -32q84 0 144 24.5t95.5 71.5t54.5 101.5t28 127.5l110 924h303v225h-276l16 127q8 72 28 100.5t75 28.5q101 0 243 -39v205q-124 45 -282 45q-84 0 -146.5 -27t-99 -76t-57 -105.5t-29.5 -127.5l-16 -131h-236v-225h209l-111 -932q-6 -55 -26 -77.5 t-74 -22.5q-41 0 -149 18z" />
<glyph unicode="&#x193;" horiz-adv-x="1396" d="M82 745q0 179 32.5 315.5t101.5 237t184.5 153t275.5 52.5q115 0 280 -24q21 101 96.5 160t192.5 59q84 0 174 -19v-200q-58 14 -139 14q-119 0 -119 -84v-205q-219 62 -456 62q-334 0 -334 -521q0 -518 331 -518q123 0 273 39v346h-363v240h643v-852h-280v55 q-159 -65 -299 -65q-128 0 -228.5 36t-168.5 101.5t-112.5 160.5t-64.5 208t-20 249z" />
<glyph unicode="&#x194;" horiz-adv-x="1349" d="M14 1489h291l371 -903l368 903h291l-516 -1165q86 -183 121 -279.5t35 -179.5q0 -264 -297 -264q-144 0 -213.5 74t-69.5 198q0 86 30.5 187.5t104.5 265.5zM616 -109q0 -84 64 -84q65 0 65 87q0 34 -16 80t-55 132q-58 -155 -58 -215z" />
<glyph unicode="&#x195;" horiz-adv-x="1843" d="M131 0v1458l275 82v-526q171 71 325 71q167 0 253.5 -95.5t86.5 -250.5v-426q0 -53 31.5 -76.5t95.5 -23.5q104 0 264 55v807h273v-1075h-273v66q-170 -80 -303 -80q-77 0 -141 19t-114.5 58t-78.5 106.5t-28 158.5v411q0 62 -32 90.5t-99 28.5q-62 0 -260 -72v-786h-275 z" />
<glyph unicode="&#x196;" horiz-adv-x="495" d="M106 0v1456l283 88v-1544h-283z" />
<glyph unicode="&#x197;" horiz-adv-x="716" d="M31 641v209h176v639h282v-639h224l-80 -209h-144v-641h-282v641h-176z" />
<glyph unicode="&#x198;" horiz-adv-x="1294" d="M113 0v1196q0 178 87 263t267 85q80 0 168 -16v-215q-64 12 -141 12q-57 0 -78 -29t-21 -96v-268l553 557h336l-725 -737l731 -752h-340l-555 571v-571h-282z" />
<glyph unicode="&#x199;" horiz-adv-x="1081" d="M104 0v1165q0 336 355 336q80 0 168 -14v-213q-78 10 -125 10q-67 0 -95 -28.5t-28 -94.5v-467l387 381h326l-527 -526l537 -549h-330l-393 387v-387h-275z" />
<glyph unicode="&#x19a;" horiz-adv-x="716" d="M31 647v209h176v602l282 84v-686h224l-80 -209h-144v-647h-282v647h-176z" />
<glyph unicode="&#x19b;" horiz-adv-x="1085" d="M23 0l385 1024l-35 96l-178 -86l-74 158l192 90l-75 209h274l35 -96l215 102l72 -156l-226 -108l461 -1233h-272l-252 676l-254 -676h-268z" />
<glyph unicode="&#x19c;" horiz-adv-x="1892" d="M133 334v1155h275v-1155q0 -62 33 -90.5t100 -28.5q18 0 39 3t53 12t50.5 14.5t65.5 21.5t64 21q-2 14 -2 47v1155h272v-1155q0 -119 136 -119q94 0 268 61v1213h272v-1428l-272 -81v75q-162 -67 -336 -67q-163 0 -258 98l-2 4q-120 -52 -217.5 -77t-200.5 -25 q-167 0 -253.5 95.5t-86.5 250.5z" />
<glyph unicode="&#x19d;" horiz-adv-x="1454" d="M-104 -170q57 -8 137 -8q67 0 95 27.5t28 91.5v1548h366l529 -1012v1012h272v-1489h-272l-623 1135v-1198q0 -166 -83 -252t-275 -86q-86 0 -174 18v213z" />
<glyph unicode="&#x19e;" horiz-adv-x="1198" d="M121 0v1012l276 82v-88q173 81 348 81q166 0 249 -93.5t83 -250.5v-1142h-272v1142q0 62 -30.5 89.5t-94.5 27.5q-94 0 -283 -76v-784h-276z" />
<glyph unicode="&#x19f;" horiz-adv-x="1406" d="M100 739q0 190 31 328t100.5 237.5t186.5 149t284 49.5t284 -49.5t187 -149t101 -237.5t31 -328q0 -189 -31 -324.5t-101 -232.5t-187 -144.5t-284 -47.5t-284 47.5t-186.5 144.5t-100.5 232.5t-31 324.5zM385 649q9 -217 83 -319.5t234 -102.5t232 101t86 321h-635z M387 858h631q-20 208 -91.5 308t-224.5 100q-176 0 -247 -136q-56 -103 -68 -272z" />
<glyph unicode="&#x1a0;" horiz-adv-x="1576" d="M100 739q0 190 31 328t100.5 237.5t186.5 149t284 49.5t284 -49.5t187 -149t101 -237.5t31 -328q0 -189 -31 -324.5t-101 -232.5t-187 -144.5t-284 -47.5t-284 47.5t-186.5 144.5t-100.5 232.5t-31 324.5zM383 739q0 -266 73 -389t246 -123t246.5 123t73.5 389t-74 396.5 t-246 130.5t-245.5 -130t-73.5 -397zM1264 1163l82 326h270l-141 -326h-211z" />
<glyph unicode="&#x1a1;" horiz-adv-x="1392" d="M84 528q0 -258 120.5 -400t377.5 -142q260 0 377.5 140t117.5 402q0 271 -117.5 415t-377.5 144q-498 0 -498 -559zM367 528q0 179 51 256.5t164 77.5q107 0 160 -79t53 -255q0 -172 -52.5 -244.5t-160.5 -72.5q-115 0 -165 71.5t-50 245.5zM1077 750h211l142 325h-271z " />
<glyph unicode="&#x1a2;" horiz-adv-x="1945" d="M100 739q0 190 31 328t100.5 237.5t186.5 149t284 49.5q230 0 377 -104q188 90 367 90q166 0 249 -93.5t83 -250.5v-1542h-273v1542q0 62 -30.5 89.5t-94.5 27.5q-56 0 -161 -31q86 -192 86 -492q0 -189 -31 -324.5t-101 -232.5t-187 -144.5t-284 -47.5t-284 47.5 t-186.5 144.5t-100.5 232.5t-31 324.5zM383 739q0 -266 73 -389t246 -123t246.5 123t73.5 389t-74 396.5t-246 130.5t-245.5 -130t-73.5 -397z" />
<glyph unicode="&#x1a3;" horiz-adv-x="1699" d="M84 528q0 -258 120.5 -400t377.5 -142q260 0 377.5 140t117.5 402q0 184 -55 314q14 2 41 7.5t44 8t32 2.5q64 0 94.5 -27.5t30.5 -89.5v-1142h272v1142q0 157 -83 250.5t-249 93.5q-155 0 -327 -73q-106 73 -295 73q-498 0 -498 -559zM367 528q0 179 51 256.5t164 77.5 q107 0 160 -79t53 -255q0 -172 -52.5 -244.5t-160.5 -72.5q-115 0 -165 71.5t-50 245.5z" />
<glyph unicode="&#x1a4;" horiz-adv-x="1515" d="M-2 1223q0 135 79 200.5t208 65.5h618q257 0 378.5 -123.5t121.5 -386.5t-122 -389.5t-378 -126.5h-289v-463h-282v1257h-33q-53 0 -74.5 -16.5t-21.5 -62.5q0 -61 14 -119h-201q-18 85 -18 164zM614 700h267q120 0 179.5 72.5t59.5 206.5q0 137 -58.5 204.5t-180.5 67.5 h-267v-551z" />
<glyph unicode="&#x1a5;" horiz-adv-x="1173" d="M131 -401v1566q0 336 354 336q80 0 168 -14v-213q-78 10 -125 10q-67 0 -94.5 -28t-27.5 -95v-131q121 57 233 57q101 0 178.5 -25t129 -70t84.5 -112.5t47 -148.5t14 -182q0 -128 -23 -227t-74.5 -176.5t-141 -118.5t-214.5 -41q-112 0 -233 37v-342zM406 242 q104 -31 210 -31q193 0 193 338q0 73 -7.5 125.5t-27.5 96.5t-59 66.5t-97 22.5q-100 0 -212 -51v-567z" />
<glyph unicode="&#x1a6;" horiz-adv-x="1337" d="M139 0v1489h281v-162h289q261 0 382 -111t121 -370q0 -183 -59 -290t-186 -157l376 -673h-317l-348 632h-258v-358h-281zM420 596h270q124 0 182 60t58 190q0 132 -57 188t-183 56h-270v-494z" />
<glyph unicode="&#x1a7;" horiz-adv-x="1167" d="M80 444q0 -226 133 -346.5t373 -120.5q234 0 479 76v213q-287 -57 -459 -57q-133 0 -196.5 57t-63.5 174q0 35 12.5 61.5t32.5 45t60 35.5t79 28.5t105 28.5q233 57 346 161t113 296q0 407 -510 407q-219 0 -430 -69v-215q196 53 409 53q56 0 98.5 -7t82 -24.5 t60.5 -53.5t21 -89q0 -34 -6 -59.5t-24 -46t-36.5 -33.5t-58.5 -28t-73 -24.5t-97 -25.5q-117 -30 -195 -63.5t-138.5 -84t-88.5 -121.5t-28 -168z" />
<glyph unicode="&#x1a8;" horiz-adv-x="1056" d="M78 313q0 -172 120 -249.5t351 -77.5q91 0 214 19.5t195 49.5v213q-209 -57 -391 -57q-121 0 -167 19t-46 77q0 53 40.5 77t172.5 52q210 39 308 117t98 221q0 83 -32.5 144.5t-91 97.5t-133.5 53.5t-167 17.5q-171 0 -416 -59v-217q241 51 414 51q79 0 114 -18.5 t35 -59.5q0 -50 -42 -74t-158 -46q-214 -40 -316 -123.5t-102 -227.5z" />
<glyph unicode="&#x1a9;" horiz-adv-x="1243" d="M72 0v166l499 584l-477 553v186h1051v-232h-688l432 -505l-453 -521h744v-231h-1108z" />
<glyph unicode="&#x1aa;" horiz-adv-x="716" d="M39 1421q0 -81 52.5 -122.5t125.5 -41.5q18 0 39 3v-1301q0 -149 84 -253.5t227 -104.5q93 0 187 16v215q-75 -14 -111 -14q-62 0 -86.5 21.5t-24.5 78.5v1366q0 307 -305 307q-79 0 -133.5 -44t-54.5 -126zM152 1421q0 29 17.5 44.5t47.5 15.5t47 -15.5t17 -44.5 q0 -57 -64 -57q-65 0 -65 57z" />
<glyph unicode="&#x1ab;" horiz-adv-x="880" d="M31 850v225h188v271l270 81v-352h302v-225h-302v-531q0 -70 19 -95t82 -25q81 0 235 37v-299q0 -164 -85 -250t-271 -86q-101 0 -174 14v205q70 -6 125 -6q70 0 101.5 26t31.5 90v45h-43q-145 7 -218 105t-73 244v526h-188z" />
<glyph unicode="&#x1ac;" horiz-adv-x="1325" d="M18 1223q0 135 79 200.5t208 65.5h1010l-92 -238h-414v-1251h-283v1251h-207q-53 0 -74.5 -17t-21.5 -63q0 -50 15 -112h-201q-19 90 -19 164z" />
<glyph unicode="&#x1ad;" horiz-adv-x="880" d="M31 850h188v-541q0 -338 344 -338q124 0 266 39v213q-137 -26 -215 -26q-68 0 -96.5 26.5t-28.5 89.5v537h302v225h-302v125q0 68 19 94.5t82 26.5q46 0 116.5 -11t122.5 -28v215q-108 47 -266 47q-175 0 -259.5 -92.5t-84.5 -255.5v-121h-188v-225z" />
<glyph unicode="&#x1ae;" horiz-adv-x="1325" d="M49 1251v238h1245l-92 -238h-414v-1312q0 -63 28 -90t95 -27t140 8v-209q-123 -24 -199 -24q-346 0 -346 337v1317h-457z" />
<glyph unicode="&#x1af;" horiz-adv-x="1617" d="M133 485v1004h283v-1002q0 -256 272 -256q135 0 206 60t71 196v1002h286v-1004q0 -262 -141.5 -378.5t-421.5 -116.5q-279 0 -417 116t-138 379zM1300 1163l82 326h271l-142 -326h-211z" />
<glyph unicode="&#x1b0;" horiz-adv-x="1413" d="M127 328v686l274 82v-783q0 -53 31.5 -76.5t95.5 -23.5q105 0 265 55v807h272v-1075h-272v66q-170 -80 -304 -80q-77 0 -141 19t-114.5 58t-78.5 106.5t-28 158.5zM1108 750h211l141 325h-270z" />
<glyph unicode="&#x1b1;" horiz-adv-x="1531" d="M61 1257h242q-91 -105 -153 -249.5t-62 -300.5q0 -155 48.5 -288t136.5 -228.5t218 -150t287 -54.5q125 0 232.5 36t186.5 101t135 152.5t84 192.5t28 220q0 175 -62 319t-159 250h247v232h-624v-205q130 -81 225.5 -237t95.5 -326q0 -88 -26 -175t-74 -159.5 t-124.5 -117t-168.5 -44.5q-125 0 -220 73.5t-141 185.5t-46 239q0 168 96.5 325t226.5 236v205h-629v-232z" />
<glyph unicode="&#x1b2;" horiz-adv-x="1384" d="M135 360v1129h279v-1129q0 -72 35 -104.5t126 -32.5q43 0 79 6.5t78.5 27t75.5 55.5t65.5 97.5t54 146.5t34.5 208t13 278q0 224 -117 224l37 245q172 0 264 -123t92 -346q0 -189 -18 -341t-49.5 -261t-80.5 -189.5t-103.5 -130t-126 -79t-141.5 -40.5t-157 -11 q-220 0 -330 84t-110 286z" />
<glyph unicode="&#x1b3;" horiz-adv-x="1454" d="M-8 1489h309l354 -582l232 371q36 57 58 87.5t56 65.5t72.5 50.5t85.5 15.5q53 0 114 -23.5t104 -50.5t108 -73l-90 -191q-44 35 -94.5 64.5t-75.5 29.5q-31 0 -54 -20.5t-57 -73.5l-317 -510v-649h-279v649z" />
<glyph unicode="&#x1b4;" horiz-adv-x="1198" d="M129 365v649l274 82v-746q0 -52 31 -74t96 -22q87 0 265 53v449q0 329 360 329q80 0 168 -14v-213q-78 10 -125 10q-69 0 -100 -26t-31 -90v-805q0 -170 -123.5 -257t-329.5 -87q-175 0 -383 47v217q71 -18 156 -28.5t133 -10.5q58 0 96 3t75 12t58 26t33.5 45.5 t12.5 69.5v106q-195 -65 -303 -65q-162 0 -262.5 82.5t-100.5 257.5z" />
<glyph unicode="&#x1b5;" horiz-adv-x="1220" d="M102 0v215l279 430h-268v203h399l262 403h-672v238h1010v-211l-283 -430h281l-80 -203h-334l-268 -407h721l-90 -238h-957z" />
<glyph unicode="&#x1b6;" horiz-adv-x="1054" d="M92 0v209l176 217h-166v197h326l182 223h-514v229h858v-192l-209 -260h216l-80 -197h-295l-158 -197h563l-88 -229h-811z" />
<glyph unicode="&#x1b7;" horiz-adv-x="1228" d="M29 102h276q0 -120 69 -196t185 -76q303 0 303 418q0 177 -109 277t-321 100v194l363 438h-691v232h1010v-229l-366 -439q391 -93 391 -573q0 -645 -584 -645q-241 0 -383.5 131.5t-142.5 367.5z" />
<glyph unicode="&#x1b8;" horiz-adv-x="1228" d="M74 248q0 -645 583 -645q241 0 384 131.5t143 367.5h-277q0 -120 -69 -196t-185 -76q-303 0 -303 418q0 177 109 277t321 100v194l-362 438h690v232h-1010v-229l367 -439q-391 -93 -391 -573z" />
<glyph unicode="&#x1b9;" horiz-adv-x="983" d="M70 86q0 -239 105.5 -362t348.5 -123q193 0 309.5 116t116.5 320h-262q0 -90 -46 -152.5t-118 -62.5q-188 0 -188 264q0 134 78 196t239 62v180l-270 326h512v225h-811v-221l268 -313q-136 -48 -209 -171.5t-73 -283.5z" />
<glyph unicode="&#x1ba;" horiz-adv-x="1003" d="M57 -106q0 125 106 201t314 114q117 22 162 43t45 65q0 45 -35.5 65.5t-124.5 20.5q-40 0 -139 -6v187l244 266h-510v225h809v-223l-238 -252q112 -18 186 -99.5t74 -195.5q0 -231 -405 -307q-133 -26 -167 -41q-50 -24 -50 -70q0 -42 49 -55.5t168 -13.5q207 0 389 49 v-205q-72 -24 -196.5 -42.5t-209.5 -18.5q-230 0 -350.5 70t-120.5 223z" />
<glyph unicode="&#x1bb;" horiz-adv-x="1085" d="M61 0v209l336 330q52 49 99 106h-424v203h563q53 109 53 205q0 114 -55.5 165.5t-192.5 51.5t-366 -68v223q91 31 204 54.5t191 23.5q257 0 381.5 -107t124.5 -329q0 -110 -41 -219h135l-80 -203h-172q-90 -125 -223 -258l-156 -156h598l-92 -231h-883z" />
<glyph unicode="&#x1bc;" horiz-adv-x="1187" d="M37 1253v236h1055l-93 -236h-522v-307q39 6 107 6q260 0 389 -119t129 -370q0 -235 -126 -358t-370 -123q-201 0 -475 73v226q265 -60 451 -60q124 0 175.5 60.5t51.5 181.5q0 151 -65 202.5t-242 51.5q-97 0 -287 -19v555h-178z" />
<glyph unicode="&#x1bd;" horiz-adv-x="901" d="M20 852v223h830l-86 -223h-361v-154h43q93 0 164 -18t126 -58t83.5 -110t28.5 -168q0 -177 -96.5 -267.5t-278.5 -90.5q-144 0 -356 57v209q214 -47 340 -47q63 0 94 38t31 101q0 80 -40 110.5t-139 30.5q-124 0 -256 -12v379h-127z" />
<glyph unicode="&#x1be;" horiz-adv-x="1105" d="M31 883v229h202v234l275 79v-313h303v-229h-303v-193q0 -39 36.5 -66t135.5 -46q194 -37 291.5 -109.5t97.5 -202.5q0 -149 -118.5 -220t-327.5 -71q-79 0 -191.5 18.5t-177.5 43.5v209q194 -51 354 -51q110 0 150.5 11.5t40.5 55.5q0 18 -4 31t-18.5 24t-24.5 17.5 t-39.5 14t-46 11.5t-60.5 13q-193 39 -283 110.5t-90 194.5v205h-202z" />
<glyph unicode="&#x1bf;" horiz-adv-x="1173" d="M119 -403v1429l278 84v-68q123 45 234 45q230 0 344.5 -111.5t114.5 -344.5q0 -274 -183 -465t-510 -244v-241zM397 145q200 47 303 171.5t103 314.5q0 125 -48 181t-143 56q-112 0 -215 -47v-676z" />
<glyph unicode="&#x1c0;" horiz-adv-x="495" d="M106 0v1489h283v-1489h-283z" />
<glyph unicode="&#x1c1;" horiz-adv-x="808" d="M106 0v1489h263v-1489h-263zM444 0v1489h263v-1489h-263z" />
<glyph unicode="&#x1c2;" horiz-adv-x="819" d="M74 469v201h194v170h-194v200h194v449h283v-449h194v-200h-194v-170h194v-201h-194v-469h-283v469h-194z" />
<glyph unicode="&#x1c3;" horiz-adv-x="591" d="M156 0v281h278v-281h-278zM160 1489h254v-1069h-236z" />
<glyph unicode="&#x1c4;" horiz-adv-x="2437" d="M137 0v1489h539q140 0 244 -33.5t170.5 -92.5t107 -151t56.5 -197.5t16 -244.5q0 -102 -7.5 -186t-25.5 -164.5t-48 -143t-76 -115.5t-107 -88t-144.5 -54t-185.5 -19h-539zM420 238h237q82 0 142 28t95.5 74t57 117t28.5 144t7 169q0 93 -7 161t-28 131.5t-57 102.5 t-96 62.5t-142 23.5h-237v-1013zM1305 0v215l671 1036h-671v238h1009v-211l-684 -1040h721l-90 -238h-956zM1497 1888h242l76 -112l73 112h234l-209 -260h-199z" />
<glyph unicode="&#x1c5;" horiz-adv-x="2375" d="M137 0v1489h539q140 0 244 -33.5t170.5 -92.5t107 -151t56.5 -197.5t16 -244.5q0 -102 -7.5 -186t-25.5 -164.5t-48 -143t-76 -115.5t-107 -88t-144.5 -54t-185.5 -19h-539zM420 238h237q82 0 142 28t95.5 74t57 117t28.5 144t7 169q0 93 -7 161t-28 131.5t-57 102.5 t-96 62.5t-142 23.5h-237v-1013zM1374 0v209l518 637h-514v229h858v-192l-526 -654h563l-88 -229h-811zM1491 1489h242l75 -113l74 113h234l-209 -260h-199z" />
<glyph unicode="&#x1c6;" horiz-adv-x="2170" d="M88 530q0 128 23 226t74.5 173.5t140.5 115.5t213 40q97 0 235 -36v409l273 82v-1540h-273v57q-51 -32 -121.5 -52.5t-134.5 -20.5q-118 0 -202.5 38t-133.5 111.5t-71.5 170.5t-22.5 226zM371 530q0 -60 4.5 -105t16.5 -87t33 -68.5t55 -42.5t81 -16t109.5 18.5 t103.5 44.5v543q-129 39 -213 39q-57 0 -96 -25.5t-58.5 -73.5t-27.5 -102t-8 -125zM1198 0v209l518 637h-514v229h858v-192l-526 -654h563l-88 -229h-811zM1315 1489h241l76 -113l74 113h233l-208 -260h-199z" />
<glyph unicode="&#x1c7;" horiz-adv-x="1925" d="M121 0v1489h282v-1251h676l-92 -238h-866zM1149 33v213q162 -27 264 -27q66 0 91.5 28.5t25.5 106.5v1135h282v-1163q0 -340 -346 -340q-67 0 -160.5 13t-156.5 34z" />
<glyph unicode="&#x1c8;" horiz-adv-x="1699" d="M121 0v1489h282v-1251h676l-92 -238h-866zM991 -147q143 -31 191 -31q62 0 86 21.5t24 78.5v1151h277v-1110q0 -148 -84.5 -253t-227.5 -105t-266 33v215zM1294 1229v260h275v-260h-275z" />
<glyph unicode="&#x1c9;" horiz-adv-x="1003" d="M98 0v1458l275 82v-1540h-275zM307 -147q143 -31 191 -31q62 0 86 21.5t24 78.5v1151h277v-1110q0 -148 -84.5 -253t-227.5 -105t-266 33v215zM610 1229v260h275v-260h-275z" />
<glyph unicode="&#x1ca;" horiz-adv-x="2150" d="M135 0v1489h387l508 -1186v1186h273v-1489h-388l-507 1186v-1186h-273zM1364 33v213q162 -27 246 -27q66 0 91 28.5t25 106.5v1135h283v-1163q0 -163 -83 -251.5t-269 -88.5q-66 0 -149 12.5t-144 34.5z" />
<glyph unicode="&#x1cb;" horiz-adv-x="1986" d="M135 0v1489h387l508 -1186v1186h273v-1489h-388l-507 1186v-1186h-273zM1249 -147q143 -31 191 -31q62 0 86 21.5t24 78.5v1151h277v-1110q0 -149 -84 -253.5t-227 -104.5q-144 0 -267 33v215zM1552 1184v305h275v-305h-275z" />
<glyph unicode="&#x1cc;" horiz-adv-x="1699" d="M121 0v1012l276 82v-88q173 81 348 81q166 0 249 -93.5t83 -250.5v-743h-272v743q0 62 -30.5 89.5t-94.5 27.5q-94 0 -283 -76v-784h-276zM971 -147q143 -31 190 -31q62 0 86.5 21.5t24.5 78.5v1151h276v-1110q0 -149 -84 -253.5t-227 -104.5t-266 33v215zM1274 1184v305 h274v-305h-274z" />
<glyph unicode="&#x1cd;" horiz-adv-x="1333" d="M12 0l484 1489h346l481 -1489h-287l-112 358h-514l-113 -358h-285zM352 1888h242l76 -112l73 112h234l-209 -260h-199zM485 594h363l-180 594z" />
<glyph unicode="&#x1ce;" d="M86 328q0 132 60 213.5t205.5 125.5t393.5 48v30q0 29 -14 49.5t-37.5 33t-60.5 20t-75 10t-89 2.5q-128 0 -295 -37v217q176 47 393 47q98 0 179 -21t143 -62t96.5 -108t34.5 -153v-743h-266v68q-68 -39 -158.5 -60.5t-167.5 -21.5q-157 0 -249.5 89.5t-92.5 252.5z M256 1489h242l75 -113l74 113h234l-209 -260h-199zM367 340q0 -137 143 -137q110 0 235 71v230q-83 -1 -137.5 -5t-104.5 -14.5t-77 -28t-43 -46.5t-16 -70z" />
<glyph unicode="&#x1cf;" horiz-adv-x="495" d="M-70 1888h242l76 -112l74 112h233l-209 -260h-199zM106 0v1489h283v-1489h-283z" />
<glyph unicode="&#x1d0;" horiz-adv-x="473" d="M-82 1489h242l76 -113l73 113h234l-209 -260h-199zM98 0v1075h275v-1075h-275z" />
<glyph unicode="&#x1d1;" horiz-adv-x="1406" d="M100 739q0 190 31 328t100.5 237.5t186.5 149t284 49.5t284 -49.5t187 -149t101 -237.5t31 -328q0 -189 -31 -324.5t-101 -232.5t-187 -144.5t-284 -47.5t-284 47.5t-186.5 144.5t-100.5 232.5t-31 324.5zM381 1888h242l75 -112l74 112h234l-209 -260h-199zM383 739 q0 -266 73 -389t246 -123t246.5 123t73.5 389t-74 396.5t-246 130.5t-245.5 -130t-73.5 -397z" />
<glyph unicode="&#x1d2;" horiz-adv-x="1165" d="M84 528q0 -258 120.5 -400t377.5 -142q260 0 377.5 140t117.5 402q0 271 -117.5 415t-377.5 144q-498 0 -498 -559zM272 1489h242l76 -113l74 113h233l-209 -260h-199zM367 528q0 179 51 256.5t164 77.5q107 0 160 -79t53 -255q0 -172 -52.5 -244.5t-160.5 -72.5 q-115 0 -165 71.5t-50 245.5z" />
<glyph unicode="&#x1d3;" horiz-adv-x="1384" d="M133 485v1004h283v-1002q0 -256 272 -256q135 0 206 60t71 196v1002h286v-1004q0 -262 -141.5 -378.5t-421.5 -116.5q-279 0 -417 116t-138 379zM389 1888h242l76 -112l73 112h234l-209 -260h-199z" />
<glyph unicode="&#x1d4;" horiz-adv-x="1198" d="M127 328v686l274 82v-783q0 -53 31.5 -76.5t95.5 -23.5q105 0 265 55v807h272v-1075h-272v66q-170 -80 -304 -80q-77 0 -141 19t-114.5 58t-78.5 106.5t-28 158.5zM293 1489h242l75 -113l74 113h234l-209 -260h-199z" />
<glyph unicode="&#x1d5;" horiz-adv-x="1384" d="M133 485v1004h283v-1002q0 -256 272 -256q135 0 206 60t71 196v1002h286v-1004q0 -262 -141.5 -378.5t-421.5 -116.5q-279 0 -417 116t-138 379zM342 1581v240h274v-240h-274zM395 1888v158h615v-158h-615zM782 1581v240h275v-240h-275z" />
<glyph unicode="&#x1d6;" horiz-adv-x="1198" d="M127 328v686l274 82v-783q0 -53 31.5 -76.5t95.5 -23.5q105 0 265 55v807h272v-1075h-272v66q-170 -80 -304 -80q-77 0 -141 19t-114.5 58t-78.5 106.5t-28 158.5zM254 1229v260h274v-260h-274zM305 1628v178h615v-178h-615zM694 1229v260h275v-260h-275z" />
<glyph unicode="&#x1d7;" horiz-adv-x="1384" d="M133 485v1004h283v-1002q0 -256 272 -256q135 0 206 60t71 196v1002h286v-1004q0 -262 -141.5 -378.5t-421.5 -116.5q-279 0 -417 116t-138 379zM342 1581v240h274v-240h-274zM565 1845h215l215 201h-303zM782 1581v240h275v-240h-275z" />
<glyph unicode="&#x1d8;" horiz-adv-x="1198" d="M127 328v686l274 82v-783q0 -53 31.5 -76.5t95.5 -23.5q105 0 265 55v807h272v-1075h-272v66q-170 -80 -304 -80q-77 0 -141 19t-114.5 58t-78.5 106.5t-28 158.5zM254 1229v260h274v-260h-274zM475 1628h215l215 260h-303zM694 1229v260h275v-260h-275z" />
<glyph unicode="&#x1d9;" horiz-adv-x="1384" d="M133 485v1004h283v-1002q0 -256 272 -256q135 0 206 60t71 196v1002h286v-1004q0 -262 -141.5 -378.5t-421.5 -116.5q-279 0 -417 116t-138 379zM342 1581v240h274v-240h-274zM383 2046h242l75 -92l74 92h234l-209 -219h-199zM782 1581v240h275v-240h-275z" />
<glyph unicode="&#x1da;" horiz-adv-x="1198" d="M127 328v686l274 82v-783q0 -53 31.5 -76.5t95.5 -23.5q105 0 265 55v807h272v-1075h-272v66q-170 -80 -304 -80q-77 0 -141 19t-114.5 58t-78.5 106.5t-28 158.5zM254 1229v260h274v-260h-274zM293 1888h242l75 -112l74 112h234l-209 -260h-199zM694 1229v260h275v-260 h-275z" />
<glyph unicode="&#x1db;" horiz-adv-x="1384" d="M133 485v1004h283v-1002q0 -256 272 -256q135 0 206 60t71 196v1002h286v-1004q0 -262 -141.5 -378.5t-421.5 -116.5q-279 0 -417 116t-138 379zM342 1581v240h274v-240h-274zM414 2046h303l127 -201h-215zM782 1581v240h275v-240h-275z" />
<glyph unicode="&#x1dc;" horiz-adv-x="1198" d="M127 328v686l274 82v-783q0 -53 31.5 -76.5t95.5 -23.5q105 0 265 55v807h272v-1075h-272v66q-170 -80 -304 -80q-77 0 -141 19t-114.5 58t-78.5 106.5t-28 158.5zM254 1229v260h283v-260h-283zM322 1888h303l127 -260h-215zM694 1229v260h275v-260h-275z" />
<glyph unicode="&#x1dd;" d="M84 514q0 84 8 152h686q-11 103 -61 148.5t-164 45.5q-208 0 -430 -65v213q227 79 446 79q261 0 374.5 -128.5t113.5 -411.5q0 -297 -120 -429t-376 -132q-248 0 -362.5 124t-114.5 404zM352 444q6 -122 52 -177.5t157 -55.5q114 0 161 55t58 178h-428z" />
<glyph unicode="&#x1de;" horiz-adv-x="1333" d="M12 0l484 1489h346l481 -1489h-287l-112 358h-514l-113 -358h-285zM309 1581v240h275v-240h-275zM362 1888v158h615v-158h-615zM485 594h363l-180 594zM750 1581v240h274v-240h-274z" />
<glyph unicode="&#x1df;" d="M86 328q0 132 60 213.5t205.5 125.5t393.5 48v30q0 29 -14 49.5t-37.5 33t-60.5 20t-75 10t-89 2.5q-128 0 -295 -37v217q176 47 393 47q98 0 179 -21t143 -62t96.5 -108t34.5 -153v-743h-266v68q-68 -39 -158.5 -60.5t-167.5 -21.5q-157 0 -249.5 89.5t-92.5 252.5z M217 1229v260h275v-260h-275zM268 1628v178h615v-178h-615zM367 340q0 -137 143 -137q110 0 235 71v230q-83 -1 -137.5 -5t-104.5 -14.5t-77 -28t-43 -46.5t-16 -70zM657 1229v260h275v-260h-275z" />
<glyph unicode="&#x1e0;" horiz-adv-x="1333" d="M12 0l484 1489h346l481 -1489h-287l-112 358h-514l-113 -358h-285zM362 1888v158h615v-158h-615zM485 594h363l-180 594zM532 1581v240h275v-240h-275z" />
<glyph unicode="&#x1e1;" d="M86 328q0 132 60 213.5t205.5 125.5t393.5 48v30q0 29 -14 49.5t-37.5 33t-60.5 20t-75 10t-89 2.5q-128 0 -295 -37v217q176 47 393 47q98 0 179 -21t143 -62t96.5 -108t34.5 -153v-743h-266v68q-68 -39 -158.5 -60.5t-167.5 -21.5q-157 0 -249.5 89.5t-92.5 252.5z M268 1628v178h615v-178h-615zM367 340q0 -137 143 -137q110 0 235 71v230q-83 -1 -137.5 -5t-104.5 -14.5t-77 -28t-43 -46.5t-16 -70zM438 1229v260h275v-260h-275z" />
<glyph unicode="&#x1e2;" horiz-adv-x="1849" d="M16 0l709 1489h1036v-238h-579v-381h555l-92 -237h-463v-395h579v-238h-862v358h-426l-170 -358h-287zM586 594h313v655zM1016 1628v178h614v-178h-614z" />
<glyph unicode="&#x1e3;" horiz-adv-x="1843" d="M66 328q0 132 60 213.5t205.5 125.5t393.5 48v30q0 29 -14 49.5t-37.5 33t-60.5 20t-75 10t-89 2.5q-128 0 -295 -37v217q176 47 393 47q247 0 364 -137q117 137 363 137q248 0 362.5 -124t114.5 -404q0 -83 -8 -151h-686q11 -103 61 -149t164 -46q211 3 430 66v-213 q-230 -80 -446 -80q-55 0 -97.5 4.5t-97.5 19.5t-105.5 49t-93.5 86q-210 -159 -464 -159q-157 0 -249.5 89.5t-92.5 252.5zM346 340q0 -137 143 -137q71 0 157 32.5t153 83.5q-14 88 -17 185q-62 -1 -97 -2t-84 -3.5t-76.5 -7.5t-61 -13t-51.5 -19.5t-35 -28t-24 -39 t-7 -51.5zM602 1276v178h615v-178h-615zM1055 629h428q-6 122 -52 177.5t-157 55.5q-114 0 -161 -55t-58 -178z" />
<glyph unicode="&#x1e4;" horiz-adv-x="1413" d="M82 745q0 179 32.5 315.5t101.5 237t184.5 153t275.5 52.5q257 0 485 -73v-226q-219 62 -456 62q-334 0 -334 -521q0 -518 331 -518q123 0 273 39v68h-332v201h332v77h-363v240h643v-317h218l-82 -201h-136v-334h-280v55q-159 -65 -299 -65q-128 0 -228.5 36 t-168.5 101.5t-112.5 160.5t-64.5 208t-20 249z" />
<glyph unicode="&#x1e5;" horiz-adv-x="1169" d="M82 567q0 -102 13.5 -182.5t45.5 -149.5t82.5 -114t128 -70.5t178.5 -25.5q134 0 232 38v-73h-242v-113h215q-31 -31 -83.5 -40t-164.5 -9q-121 0 -288 37v-213q203 -49 383 -49q184 0 302.5 68.5t145.5 205.5h92l45 113h-131v1085h-274v-53q-104 63 -240 63 q-124 0 -210 -34t-136 -102.5t-72 -161t-22 -220.5zM365 567q0 59 3.5 100.5t15 79.5t31 60.5t52 35.5t78.5 13q113 0 217 -51v-518q-125 -39 -219 -39q-45 0 -77.5 17t-51.5 44.5t-30.5 70.5t-15 86.5t-3.5 100.5z" />
<glyph unicode="&#x1e6;" horiz-adv-x="1396" d="M82 745q0 179 32.5 315.5t101.5 237t184.5 153t275.5 52.5q257 0 485 -73v-226q-219 62 -456 62q-334 0 -334 -521q0 -518 331 -518q123 0 273 39v346h-363v240h643v-852h-280v55q-159 -65 -299 -65q-128 0 -228.5 36t-168.5 101.5t-112.5 160.5t-64.5 208t-20 249z M371 1888h241l76 -112l74 112h233l-209 -260h-198z" />
<glyph unicode="&#x1e7;" horiz-adv-x="1169" d="M82 567q0 -102 13.5 -182.5t45.5 -149.5t82.5 -114t128 -70.5t178.5 -25.5q134 0 232 38v-79q0 -96 -63 -126t-212 -30q-121 0 -288 37v-213q203 -49 383 -49q134 0 234 36t160 115t60 195v1126h-274v-53q-104 63 -240 63q-124 0 -210 -34t-136 -102.5t-72 -161 t-22 -220.5zM268 1489h242l76 -113l73 113h234l-209 -260h-199zM365 567q0 59 3.5 100.5t15 79.5t31 60.5t52 35.5t78.5 13q113 0 217 -51v-518q-125 -39 -219 -39q-45 0 -77.5 17t-51.5 44.5t-30.5 70.5t-15 86.5t-3.5 100.5z" />
<glyph unicode="&#x1e8;" horiz-adv-x="1294" d="M113 0v1489h282v-557l553 557h336l-725 -737l731 -752h-340l-555 571v-571h-282zM340 1888h242l75 -112l74 112h234l-209 -260h-199z" />
<glyph unicode="&#x1e9;" horiz-adv-x="1081" d="M104 0v1458l275 82v-846l387 381h326l-527 -526l537 -549h-330l-393 387v-387h-275zM270 1888h242l76 -112l74 112h233l-209 -260h-199z" />
<glyph unicode="&#x1ea;" horiz-adv-x="1406" d="M100 739q0 190 31 328t100.5 237.5t186.5 149t284 49.5t284 -49.5t187 -149t101 -237.5t31 -328q0 -287 -74 -459t-246 -243q-78 -33 -166 -39q-100 -84 -100 -178q0 -72 53 -72q26 0 46 7t56 28v-137q-33 -22 -85.5 -35.5t-92.5 -13.5q-93 0 -141.5 49t-48.5 125 q0 56 28.5 117.5t79.5 105.5q-142 11 -241.5 64.5t-159.5 150t-86.5 226t-26.5 304.5zM383 739q0 -266 73 -389t246 -123t246.5 123t73.5 389t-74 396.5t-246 130.5t-245.5 -130t-73.5 -397z" />
<glyph unicode="&#x1eb;" horiz-adv-x="1165" d="M84 528q0 -392 268 -503q68 -26 146 -35q-49 -41 -77 -102.5t-28 -116.5q0 -76 49 -125t142 -49q40 0 92.5 13.5t85.5 35.5v137q-61 -35 -103 -35q-53 0 -53 72q0 90 99 176q130 14 215 88.5t121 185.5t36 258q0 271 -117.5 415t-377.5 144q-498 0 -498 -559zM367 528 q0 179 51 256.5t164 77.5q107 0 160 -79t53 -255q0 -172 -52.5 -244.5t-160.5 -72.5q-115 0 -165 71.5t-50 245.5z" />
<glyph unicode="&#x1ec;" horiz-adv-x="1406" d="M100 739q0 190 31 328t100.5 237.5t186.5 149t284 49.5t284 -49.5t187 -149t101 -237.5t31 -328q0 -287 -74 -459t-246 -243q-78 -33 -166 -39q-100 -84 -100 -178q0 -72 53 -72q26 0 46 7t56 28v-137q-33 -22 -85.5 -35.5t-92.5 -13.5q-93 0 -141.5 49t-48.5 125 q0 56 28.5 117.5t79.5 105.5q-142 11 -241.5 64.5t-159.5 150t-86.5 226t-26.5 304.5zM383 739q0 -266 73 -389t246 -123t246.5 123t73.5 389t-74 396.5t-246 130.5t-245.5 -130t-73.5 -397zM393 1628v178h615v-178h-615z" />
<glyph unicode="&#x1ed;" horiz-adv-x="1165" d="M84 528q0 -392 268 -503q68 -26 146 -35q-49 -41 -77 -102.5t-28 -116.5q0 -76 49 -125t142 -49q40 0 92.5 13.5t85.5 35.5v137q-61 -35 -103 -35q-53 0 -53 72q0 90 99 176q130 14 215 88.5t121 185.5t36 258q0 271 -117.5 415t-377.5 144q-498 0 -498 -559zM274 1276 v178h615v-178h-615zM367 528q0 179 51 256.5t164 77.5q107 0 160 -79t53 -255q0 -172 -52.5 -244.5t-160.5 -72.5q-115 0 -165 71.5t-50 245.5z" />
<glyph unicode="&#x1ee;" horiz-adv-x="1228" d="M29 102h276q0 -120 69 -196t185 -76q303 0 303 418q0 177 -109 277t-321 100v194l363 438h-691v232h1010v-229l-366 -439q391 -93 391 -573q0 -645 -584 -645q-241 0 -383.5 131.5t-142.5 367.5zM295 1888h242l75 -112l74 112h234l-209 -260h-199z" />
<glyph unicode="&#x1ef;" horiz-adv-x="983" d="M49 37h262q0 -90 46 -152.5t118 -62.5q189 0 189 264q0 134 -78.5 196t-239.5 62v180l270 326h-512v225h811v-221l-268 -313q136 -48 209.5 -171.5t73.5 -283.5q0 -239 -106 -362t-349 -123q-193 0 -309.5 116t-116.5 320zM186 1489h242l76 -113l74 113h233l-209 -260 h-199z" />
<glyph unicode="&#x1f0;" horiz-adv-x="552" d="M-164 -147q143 -31 191 -31q62 0 86 21.5t24 78.5v1153h277v-1112q0 -148 -84.5 -253t-227.5 -105t-266 33v215zM-41 1489h242l75 -113l74 113h234l-209 -260h-199z" />
<glyph unicode="&#x1f1;" horiz-adv-x="2437" d="M137 0v1489h539q140 0 244 -33.5t170.5 -92.5t107 -151t56.5 -197.5t16 -244.5q0 -102 -7.5 -186t-25.5 -164.5t-48 -143t-76 -115.5t-107 -88t-144.5 -54t-185.5 -19h-539zM420 238h237q82 0 142 28t95.5 74t57 117t28.5 144t7 169q0 93 -7 161t-28 131.5t-57 102.5 t-96 62.5t-142 23.5h-237v-1013zM1305 0v215l671 1036h-671v238h1009v-211l-684 -1040h721l-90 -238h-956z" />
<glyph unicode="&#x1f2;" horiz-adv-x="2375" d="M137 0v1489h539q140 0 244 -33.5t170.5 -92.5t107 -151t56.5 -197.5t16 -244.5q0 -102 -7.5 -186t-25.5 -164.5t-48 -143t-76 -115.5t-107 -88t-144.5 -54t-185.5 -19h-539zM420 238h237q82 0 142 28t95.5 74t57 117t28.5 144t7 169q0 93 -7 161t-28 131.5t-57 102.5 t-96 62.5t-142 23.5h-237v-1013zM1374 0v209l518 637h-514v229h858v-192l-526 -654h563l-88 -229h-811z" />
<glyph unicode="&#x1f3;" horiz-adv-x="2170" d="M88 530q0 128 23 226t74.5 173.5t140.5 115.5t213 40q97 0 235 -36v409l273 82v-1540h-273v57q-51 -32 -121.5 -52.5t-134.5 -20.5q-118 0 -202.5 38t-133.5 111.5t-71.5 170.5t-22.5 226zM371 530q0 -60 4.5 -105t16.5 -87t33 -68.5t55 -42.5t81 -16t109.5 18.5 t103.5 44.5v543q-129 39 -213 39q-57 0 -96 -25.5t-58.5 -73.5t-27.5 -102t-8 -125zM1198 0v209l518 637h-514v229h858v-192l-526 -654h563l-88 -229h-811z" />
<glyph unicode="&#x1f4;" horiz-adv-x="1396" d="M82 745q0 179 32.5 315.5t101.5 237t184.5 153t275.5 52.5q257 0 485 -73v-226q-219 62 -456 62q-334 0 -334 -521q0 -518 331 -518q123 0 273 39v346h-363v240h643v-852h-280v55q-159 -65 -299 -65q-128 0 -228.5 36t-168.5 101.5t-112.5 160.5t-64.5 208t-20 249z M555 1628h215l215 260h-303z" />
<glyph unicode="&#x1f5;" horiz-adv-x="1169" d="M82 567q0 -102 13.5 -182.5t45.5 -149.5t82.5 -114t128 -70.5t178.5 -25.5q134 0 232 38v-79q0 -96 -63 -126t-212 -30q-121 0 -288 37v-213q203 -49 383 -49q134 0 234 36t160 115t60 195v1126h-274v-53q-104 63 -240 63q-124 0 -210 -34t-136 -102.5t-72 -161 t-22 -220.5zM365 567q0 59 3.5 100.5t15 79.5t31 60.5t52 35.5t78.5 13q113 0 217 -51v-518q-125 -39 -219 -39q-45 0 -77.5 17t-51.5 44.5t-30.5 70.5t-15 86.5t-3.5 100.5zM412 1229h215l215 260h-303z" />
<glyph unicode="&#x1f6;" horiz-adv-x="2088" d="M133 0v1489h283v-617h581v617h283v-1176q0 -53 31.5 -76.5t95.5 -23.5q104 0 264 55v807h273v-1075h-273v66q-170 -80 -303 -80q-78 0 -142.5 19t-117 58t-82 106.5t-29.5 158.5v307h-581v-635h-283z" />
<glyph unicode="&#x1f7;" horiz-adv-x="1208" d="M135 -399v1841l285 86v-70q124 45 227 45q238 0 348.5 -127t110.5 -397q0 -136 -46 -268t-131 -244.5t-217 -194.5t-292 -112v-473zM420 389q98 26 174.5 85.5t123.5 140t71 173t24 191.5q0 161 -45 231t-139 70q-100 0 -209 -47v-844z" />
<glyph unicode="&#x1f8;" horiz-adv-x="1437" d="M135 0v1489h387l508 -1186v1186h273v-1489h-388l-507 1186v-1186h-273zM449 1888h303l127 -260h-215z" />
<glyph unicode="&#x1f9;" horiz-adv-x="1198" d="M121 0v1012l276 82v-88q173 81 348 81q166 0 249 -93.5t83 -250.5v-743h-272v743q0 62 -30.5 89.5t-94.5 27.5q-94 0 -283 -76v-784h-276zM311 1489h303l127 -260h-215z" />
<glyph unicode="&#x1fa;" horiz-adv-x="1333" d="M12 0l484 1489h346l481 -1489h-287l-112 358h-514l-113 -358h-285zM475 1743q0 86 57 133t136 47h8l78 123h282l-211 -197q31 -50 31 -106q0 -85 -54 -128.5t-134 -43.5q-81 0 -137 43.5t-56 128.5zM485 594h363l-180 594zM616 1743q0 -20 14 -31.5t38 -11.5q49 0 49 43 q0 19 -13 32t-36 13t-37.5 -13t-14.5 -32z" />
<glyph unicode="&#x1fb;" d="M86 328q0 132 60 213.5t205.5 125.5t393.5 48v30q0 29 -14 49.5t-37.5 33t-60.5 20t-75 10t-89 2.5q-128 0 -295 -37v217q176 47 393 47q98 0 179 -21t143 -62t96.5 -108t34.5 -153v-743h-266v68q-68 -39 -158.5 -60.5t-167.5 -21.5q-157 0 -249.5 89.5t-92.5 252.5z M367 340q0 -137 143 -137q110 0 235 71v230q-83 -1 -137.5 -5t-104.5 -14.5t-77 -28t-43 -46.5t-16 -70zM383 1360q0 86 56.5 133t135.5 47t134 -47t55 -133q0 -85 -54.5 -128.5t-134.5 -43.5q-81 0 -136.5 43.5t-55.5 128.5zM442 1628h215l215 260h-303zM524 1360 q0 -20 14 -31.5t37 -11.5q50 0 50 43q0 19 -13.5 32t-36.5 13t-37 -13t-14 -32z" />
<glyph unicode="&#x1fc;" horiz-adv-x="1849" d="M16 0l709 1489h1036v-238h-579v-381h555l-92 -237h-463v-395h579v-238h-862v358h-426l-170 -358h-287zM586 594h313v655zM870 1628h215l215 260h-303z" />
<glyph unicode="&#x1fd;" horiz-adv-x="1843" d="M66 328q0 132 60 213.5t205.5 125.5t393.5 48v30q0 29 -14 49.5t-37.5 33t-60.5 20t-75 10t-89 2.5q-128 0 -295 -37v217q176 47 393 47q247 0 364 -137q117 137 363 137q248 0 362.5 -124t114.5 -404q0 -83 -8 -151h-686q11 -103 61 -149t164 -46q211 3 430 66v-213 q-230 -80 -446 -80q-55 0 -97.5 4.5t-97.5 19.5t-105.5 49t-93.5 86q-210 -159 -464 -159q-157 0 -249.5 89.5t-92.5 252.5zM346 340q0 -137 143 -137q71 0 157 32.5t153 83.5q-14 88 -17 185q-62 -1 -97 -2t-84 -3.5t-76.5 -7.5t-61 -13t-51.5 -19.5t-35 -28t-24 -39 t-7 -51.5zM807 1229h215l215 260h-303zM1055 629h428q-6 122 -52 177.5t-157 55.5q-114 0 -161 -55t-58 -178z" />
<glyph unicode="&#x1fe;" horiz-adv-x="1406" d="M100 739q0 190 31 328t100.5 237.5t186.5 149t284 49.5q221 0 345 -82l114 197l152 -88l-135 -232q127 -189 127 -559q0 -189 -31 -324.5t-101 -232.5t-187 -144.5t-284 -47.5q-160 0 -264 39l-137 -234l-149 90l135 234q-98 98 -142.5 248t-44.5 372zM383 739 q0 -235 57 -358l469 807q-75 78 -207 78q-172 0 -245.5 -130t-73.5 -397zM555 1628h215l215 260h-303zM567 252q61 -25 135 -25q173 0 246.5 123t73.5 389q0 139 -25 252z" />
<glyph unicode="&#x1ff;" horiz-adv-x="1165" d="M25 41l120 -102l117 135q130 -88 320 -88q260 0 377.5 140t117.5 402q0 242 -92 381l133 152l-121 102l-127 -145q-123 69 -288 69q-498 0 -498 -559q0 -197 72 -335zM367 528q0 179 51 256.5t164 77.5q75 0 120 -39l-333 -385q-2 27 -2 90zM428 1229h215l215 260h-303z M430 266l352 408q13 -67 13 -146q0 -172 -52.5 -244.5t-160.5 -72.5q-100 0 -152 55z" />
<glyph unicode="&#x200;" horiz-adv-x="1333" d="M12 0l484 1489h346l481 -1489h-287l-112 358h-514l-113 -358h-285zM197 1888h282l127 -260h-194zM485 594h363l-180 594zM543 1888h282l127 -260h-194z" />
<glyph unicode="&#x201;" d="M86 328q0 132 60 213.5t205.5 125.5t393.5 48v30q0 29 -14 49.5t-37.5 33t-60.5 20t-75 10t-89 2.5q-128 0 -295 -37v217q176 47 393 47q98 0 179 -21t143 -62t96.5 -108t34.5 -153v-743h-266v68q-68 -39 -158.5 -60.5t-167.5 -21.5q-157 0 -249.5 89.5t-92.5 252.5z M131 1489h283l127 -260h-195zM367 340q0 -137 143 -137q110 0 235 71v230q-83 -1 -137.5 -5t-104.5 -14.5t-77 -28t-43 -46.5t-16 -70zM477 1489h283l127 -260h-195z" />
<glyph unicode="&#x202;" horiz-adv-x="1333" d="M12 0l484 1489h346l481 -1489h-287l-112 358h-514l-113 -358h-285zM387 1618h193q3 38 28.5 60t63.5 22q36 0 62.5 -22t33.5 -60h195q-5 98 -82 170t-207 72q-133 0 -210 -71.5t-77 -170.5zM485 594h363l-180 594z" />
<glyph unicode="&#x203;" d="M86 328q0 132 60 213.5t205.5 125.5t393.5 48v30q0 29 -14 49.5t-37.5 33t-60.5 20t-75 10t-89 2.5q-128 0 -295 -37v217q176 47 393 47q98 0 179 -21t143 -62t96.5 -108t34.5 -153v-743h-266v68q-68 -39 -158.5 -60.5t-167.5 -21.5q-157 0 -249.5 89.5t-92.5 252.5z M283 1266h192q3 38 28.5 60t63.5 22q36 0 63 -22t34 -60h194q-5 98 -81.5 169.5t-207.5 71.5q-133 0 -209.5 -71.5t-76.5 -169.5zM367 340q0 -137 143 -137q110 0 235 71v230q-83 -1 -137.5 -5t-104.5 -14.5t-77 -28t-43 -46.5t-16 -70z" />
<glyph unicode="&#x204;" horiz-adv-x="1230" d="M129 0v1489h1006v-238h-723v-381h698l-92 -237h-606v-395h723v-238h-1006zM197 1888h282l127 -260h-194zM543 1888h282l127 -260h-194z" />
<glyph unicode="&#x205;" d="M84 526q0 297 120 429t376 132q248 0 362.5 -124t114.5 -404q0 -83 -8 -151h-687q11 -103 61.5 -149t164.5 -46q190 0 430 66v-213q-230 -80 -447 -80q-261 0 -374 128.5t-113 411.5zM131 1489h283l127 -260h-195zM360 629h428q-6 123 -51.5 178t-156.5 55 q-114 0 -161.5 -55t-58.5 -178zM477 1489h283l127 -260h-195z" />
<glyph unicode="&#x206;" horiz-adv-x="1230" d="M129 0v1489h1006v-238h-723v-381h698l-92 -237h-606v-395h723v-238h-1006zM387 1618h193q3 38 28.5 60t63.5 22q36 0 62.5 -22t33.5 -60h195q-5 98 -82 170t-207 72q-133 0 -210 -71.5t-77 -170.5z" />
<glyph unicode="&#x207;" d="M84 526q0 297 120 429t376 132q248 0 362.5 -124t114.5 -404q0 -83 -8 -151h-687q11 -103 61.5 -149t164.5 -46q190 0 430 66v-213q-230 -80 -447 -80q-261 0 -374 128.5t-113 411.5zM299 1266h193q3 38 28.5 60t63.5 22q36 0 62.5 -22t33.5 -60h194q-5 98 -81.5 169.5 t-206.5 71.5q-133 0 -210 -71.5t-77 -169.5zM360 629h428q-6 123 -51.5 178t-156.5 55q-114 0 -161.5 -55t-58.5 -178z" />
<glyph unicode="&#x208;" horiz-adv-x="614" d="M-119 1888h283l127 -260h-195zM168 0v1489h283v-1489h-283zM227 1888h283l127 -260h-195z" />
<glyph unicode="&#x209;" horiz-adv-x="614" d="M-123 1489h283l127 -260h-195zM168 0v1075h283v-1075h-283zM223 1489h283l127 -260h-195z" />
<glyph unicode="&#x20a;" horiz-adv-x="495" d="M-37 1618h193q3 38 28.5 60t63.5 22q36 0 62.5 -22t33.5 -60h195q-5 98 -82 170t-207 72q-133 0 -210 -71.5t-77 -170.5zM106 0v1489h283v-1489h-283z" />
<glyph unicode="&#x20b;" horiz-adv-x="473" d="M-49 1266h192q3 37 29 59.5t64 22.5q36 0 62.5 -22t33.5 -60h194q-5 98 -81.5 169.5t-206.5 71.5q-133 0 -210 -71.5t-77 -169.5zM106 0v1075h283v-1075h-283z" />
<glyph unicode="&#x20c;" horiz-adv-x="1406" d="M100 739q0 190 31 328t100.5 237.5t186.5 149t284 49.5t284 -49.5t187 -149t101 -237.5t31 -328q0 -189 -31 -324.5t-101 -232.5t-187 -144.5t-284 -47.5t-284 47.5t-186.5 144.5t-100.5 232.5t-31 324.5zM256 1888h283l127 -260h-195zM383 739q0 -266 73 -389t246 -123 t246.5 123t73.5 389t-74 396.5t-246 130.5t-245.5 -130t-73.5 -397zM602 1888h283l127 -260h-195z" />
<glyph unicode="&#x20d;" horiz-adv-x="1165" d="M84 528q0 -258 120.5 -400t377.5 -142q260 0 377.5 140t117.5 402q0 271 -117.5 415t-377.5 144q-498 0 -498 -559zM129 1489h283l127 -260h-195zM367 528q0 179 51 256.5t164 77.5q107 0 160 -79t53 -255q0 -172 -52.5 -244.5t-160.5 -72.5q-115 0 -165 71.5t-50 245.5z M475 1489h283l127 -260h-195z" />
<glyph unicode="&#x20e;" horiz-adv-x="1406" d="M100 739q0 190 31 328t100.5 237.5t186.5 149t284 49.5t284 -49.5t187 -149t101 -237.5t31 -328q0 -189 -31 -324.5t-101 -232.5t-187 -144.5t-284 -47.5t-284 47.5t-186.5 144.5t-100.5 232.5t-31 324.5zM383 739q0 -266 73 -389t246 -123t246.5 123t73.5 389t-74 396.5 t-246 130.5t-245.5 -130t-73.5 -397zM424 1618h192q3 37 29 59.5t64 22.5q36 0 62.5 -22t33.5 -60h194q-5 98 -81.5 170t-206.5 72q-133 0 -210 -71.5t-77 -170.5z" />
<glyph unicode="&#x20f;" horiz-adv-x="1165" d="M84 528q0 -258 120.5 -400t377.5 -142q260 0 377.5 140t117.5 402q0 271 -117.5 415t-377.5 144q-498 0 -498 -559zM305 1266h193q3 38 28.5 60t63.5 22q36 0 62.5 -22t33.5 -60h195q-5 98 -81.5 169.5t-207.5 71.5q-133 0 -210 -71.5t-77 -169.5zM367 528 q0 179 51 256.5t164 77.5q107 0 160 -79t53 -255q0 -172 -52.5 -244.5t-160.5 -72.5q-115 0 -165 71.5t-50 245.5z" />
<glyph unicode="&#x210;" horiz-adv-x="1337" d="M139 0v1489h570q261 0 382 -111t121 -370q0 -184 -59 -292t-184 -155l313 -561h-317l-287 520h-258v-520h-281zM195 1888h282l127 -260h-194zM420 758h270q124 0 182 60t58 190q0 132 -57 187.5t-183 55.5h-270v-493zM541 1888h282l127 -260h-194z" />
<glyph unicode="&#x211;" horiz-adv-x="862" d="M18 1489h283l127 -260h-195zM117 0v1014l274 82v-72q156 57 283 57q80 0 135 -6v-237q-62 4 -76 4h-59q-112 0 -283 -41v-801h-274zM365 1489h282l127 -260h-194z" />
<glyph unicode="&#x212;" horiz-adv-x="1337" d="M139 0v1489h570q261 0 382 -111t121 -370q0 -184 -59 -292t-184 -155l313 -561h-317l-287 520h-258v-520h-281zM342 1618h193q3 38 28.5 60t63.5 22q36 0 62.5 -22t33.5 -60h195q-5 98 -82 170t-207 72q-133 0 -210 -71.5t-77 -170.5zM420 758h270q124 0 182 60t58 190 q0 132 -57 187.5t-183 55.5h-270v-493z" />
<glyph unicode="&#x213;" horiz-adv-x="862" d="M117 0v1014l274 82v-72q156 57 283 57q80 0 135 -6v-237q-62 4 -76 4h-59q-112 0 -283 -41v-801h-274zM180 1266h193q3 38 28.5 60t63.5 22q36 0 62.5 -22t33.5 -60h195q-5 98 -81.5 169.5t-207.5 71.5q-133 0 -210 -71.5t-77 -169.5z" />
<glyph unicode="&#x214;" horiz-adv-x="1384" d="M133 485v1004h283v-1002q0 -256 272 -256q135 0 206 60t71 196v1002h286v-1004q0 -262 -141.5 -378.5t-421.5 -116.5q-279 0 -417 116t-138 379zM246 1888h282l127 -260h-194zM592 1888h282l127 -260h-194z" />
<glyph unicode="&#x215;" horiz-adv-x="1198" d="M127 328v686l274 82v-783q0 -53 31.5 -76.5t95.5 -23.5q105 0 265 55v807h272v-1075h-272v66q-170 -80 -304 -80q-77 0 -141 19t-114.5 58t-78.5 106.5t-28 158.5zM162 1489h282l127 -260h-194zM508 1489h283l127 -260h-195z" />
<glyph unicode="&#x216;" horiz-adv-x="1384" d="M133 485v1004h283v-1002q0 -256 272 -256q135 0 206 60t71 196v1002h286v-1004q0 -262 -141.5 -378.5t-421.5 -116.5q-279 0 -417 116t-138 379zM412 1618h192q3 38 28.5 60t63.5 22q36 0 63 -22t34 -60h194q-5 98 -82 170t-207 72q-133 0 -209.5 -71.5t-76.5 -170.5z " />
<glyph unicode="&#x217;" horiz-adv-x="1198" d="M127 328v686l274 82v-783q0 -53 31.5 -76.5t95.5 -23.5q105 0 265 55v807h272v-1075h-272v66q-170 -80 -304 -80q-77 0 -141 19t-114.5 58t-78.5 106.5t-28 158.5zM315 1266h193q3 38 28.5 60t63.5 22q36 0 62.5 -22t33.5 -60h195q-5 98 -81.5 169.5t-207.5 71.5 q-133 0 -210 -71.5t-77 -169.5z" />
<glyph unicode="&#x218;" horiz-adv-x="1167" d="M78 1096q0 407 510 407q219 0 430 -69v-215q-196 53 -410 53q-56 0 -98.5 -7t-82 -24.5t-60.5 -53.5t-21 -89q0 -34 6 -59.5t24 -46t36.5 -33.5t58.5 -28t73 -24.5t97 -25.5q117 -30 195 -63.5t139 -84t89 -121.5t28 -168q0 -226 -133.5 -346.5t-372.5 -120.5 q-235 0 -480 76v213q287 -57 459 -57q133 0 196.5 57t63.5 174q0 35 -12.5 61.5t-32.5 45t-59.5 35.5t-78.5 28.5t-105 28.5q-233 57 -346 161t-113 296zM401 -408l74 263h285l-137 -263h-222z" />
<glyph unicode="&#x219;" horiz-adv-x="1024" d="M78 774q0 83 31 144.5t88 97.5t129 53.5t161 17.5q164 0 402 -59v-211q-235 51 -408 51q-149 0 -149 -84q0 -47 45 -71t162 -49q208 -44 305.5 -125.5t97.5 -225.5q0 -172 -116 -251.5t-339 -79.5q-87 0 -206.5 19.5t-188.5 49.5v207q201 -57 385 -57q113 0 162 23.5 t49 82.5q0 51 -43 74.5t-176 54.5q-206 48 -298.5 122.5t-92.5 215.5zM319 -408l74 263h285l-137 -263h-222z" />
<glyph unicode="&#x21a;" horiz-adv-x="1325" d="M49 1251v238h1245l-92 -238h-414v-1251h-282v1251h-457zM426 -408l74 263h284l-137 -263h-221z" />
<glyph unicode="&#x21b;" horiz-adv-x="880" d="M31 850v225h188v271l270 81v-352h302v-225h-302v-526q0 -70 19 -95.5t82 -25.5q81 0 235 37v-215q-152 -48 -278 -48q-165 0 -246.5 97t-81.5 254v522h-188zM299 -408l74 263h284l-137 -263h-221z" />
<glyph unicode="&#x21c;" horiz-adv-x="1112" d="M53 66q139 13 260 40.5t224 70.5t163 107.5t60 143.5q0 56 -15.5 97.5t-44 65.5t-55 37t-63.5 23q-144 -56 -449 -116v223q8 3 40.5 9t39.5 9q55 12 92 20.5t93.5 25.5t94.5 34t81.5 44t69.5 57.5t43.5 72.5t17.5 90q0 75 -46 112.5t-155 41.5q-165 0 -404 -117v221 q210 125 420 125q77 0 143 -10.5t128.5 -38t106 -70t69.5 -110.5t26 -156q0 -193 -172 -332q230 -94 230 -329q0 -100 -33.5 -185.5t-91 -147t-137 -110.5t-167.5 -80t-188.5 -51t-193.5 -28.5t-187 -8.5v220z" />
<glyph unicode="&#x21d;" horiz-adv-x="1112" d="M68 -188q139 13 255.5 37.5t218.5 64.5t160 101.5t58 138.5q0 115 -101 178q-189 -88 -512 -152v219q7 3 38.5 8.5t39.5 8.5q51 12 79 18.5t79.5 20.5t82.5 27.5t73.5 33.5t68.5 43t51 52.5t36.5 66t11.5 78.5q0 47 -39.5 78.5t-122.5 31.5q-197 0 -430 -112v215 q95 58 210.5 91.5t219.5 33.5q94 0 172 -19.5t140 -58.5t97 -106t35 -156q0 -158 -121 -279q89 -59 132.5 -126.5t43.5 -166.5t-34 -182t-90.5 -141.5t-136 -105t-166 -75t-184.5 -47t-186.5 -25.5t-178.5 -7v213z" />
<glyph unicode="&#x21e;" horiz-adv-x="1404" d="M133 0v1489h283v-617h571v617h283v-1489h-283v635h-571v-635h-283zM389 1888l209 -260h199l217 260h-242l-76 -112l-73 112h-234z" />
<glyph unicode="&#x21f;" horiz-adv-x="1200" d="M131 0v1458l275 82v-526q174 71 325 71q167 0 253.5 -95.5t86.5 -250.5v-739h-274v739q0 62 -32 90.5t-99 28.5q-69 0 -260 -72v-786h-275zM293 1888l209 -260h198l218 260h-242l-76 -112l-74 112h-233z" />
<glyph unicode="&#x220;" horiz-adv-x="1198" d="M121 0v1427l276 82v-88q175 82 348 82q166 0 249 -93.5t83 -250.5v-1558h-272v1558q0 62 -30.5 89.5t-94.5 27.5q-94 0 -283 -76v-1200h-276z" />
<glyph unicode="&#x221;" horiz-adv-x="1515" d="M88 530q0 128 23 226t74.5 174.5t140.5 116.5t213 40q97 0 235 -36v407l273 82v-1397q67 39 153 39q124 0 209.5 -77t85.5 -201q0 -158 -92.5 -231.5t-255.5 -73.5q-89 0 -167.5 43t-123.5 127q-47 -57 -100 -152l-178 111q34 64 94 138t114 118v61q-131 -61 -268 -61 q-118 0 -202.5 38t-133.5 111.5t-71.5 170.5t-22.5 226zM371 530q0 -60 4.5 -105t16.5 -87t33 -68.5t55 -42.5t81 -16t109.5 18.5t103.5 44.5v545q-129 39 -213 39q-46 0 -80.5 -18t-55 -47t-33 -73t-17 -89t-4.5 -101zM1069 -106q0 -105 86 -105q46 0 69 30t23 75 q0 46 -23 78t-69 32t-66 -31.5t-20 -78.5z" />
<glyph unicode="&#x222;" horiz-adv-x="1280" d="M80 406q0 229 248 364q-209 136 -209 338q0 162 106.5 266t302.5 127v-229q-125 -41 -125 -164q0 -89 53 -142.5t177 -95.5q123 43 178 96t55 142q0 123 -129 164v229q195 -25 301.5 -128.5t106.5 -264.5q0 -197 -213 -336q118 -55 192 -146.5t74 -219.5 q0 -193 -147 -313t-418 -120q-270 0 -411.5 118t-141.5 315zM352 406q0 -94 74.5 -151.5t206.5 -57.5q137 0 209.5 57t72.5 152q0 97 -78 166.5t-204 93.5q-127 -24 -204 -93.5t-77 -166.5z" />
<glyph unicode="&#x223;" horiz-adv-x="1126" d="M76 408q0 125 60 216t155 146q-182 133 -182 338q0 162 92.5 266t263.5 127v-229q-52 -20 -78.5 -63.5t-26.5 -100.5q0 -86 45.5 -141.5t149.5 -96.5q105 42 152 97t47 141q0 56 -27.5 100t-81.5 64v229q169 -25 260.5 -128.5t91.5 -264.5q0 -194 -184 -336 q231 -126 231 -364q0 -193 -127 -313t-362 -120q-234 0 -356.5 118t-122.5 315zM315 408q0 -95 63 -152t177 -57q119 0 179.5 56.5t60.5 152.5q0 95 -66.5 165.5t-173.5 94.5q-109 -23 -174.5 -94.5t-65.5 -165.5z" />
<glyph unicode="&#x224;" horiz-adv-x="1220" d="M102 0v215l672 1036h-672v238h1010v-211l-684 -1040h397q159 0 244.5 -89t85.5 -243q0 -52 -14 -131h-213q10 92 10 110q0 55 -26 85t-91 30h-719z" />
<glyph unicode="&#x225;" horiz-adv-x="1054" d="M98 0v209l518 637h-514v229h859v-192l-527 -654h221q162 0 246 -86.5t84 -240.5q0 -52 -14 -127h-213q10 92 10 110q0 55 -26 85t-91 30h-553z" />
<glyph unicode="&#x226;" horiz-adv-x="1333" d="M12 0l484 1489h346l481 -1489h-287l-112 358h-514l-113 -358h-285zM485 594h363l-180 594zM530 1628v260h275v-260h-275z" />
<glyph unicode="&#x227;" d="M86 328q0 132 60 213.5t205.5 125.5t393.5 48v30q0 29 -14 49.5t-37.5 33t-60.5 20t-75 10t-89 2.5q-128 0 -295 -37v217q176 47 393 47q98 0 179 -21t143 -62t96.5 -108t34.5 -153v-743h-266v68q-68 -39 -158.5 -60.5t-167.5 -21.5q-157 0 -249.5 89.5t-92.5 252.5z M367 340q0 -137 143 -137q110 0 235 71v230q-83 -1 -137.5 -5t-104.5 -14.5t-77 -28t-43 -46.5t-16 -70zM438 1229v260h275v-260h-275z" />
<glyph unicode="&#x228;" horiz-adv-x="1230" d="M129 0v1489h1006v-238h-723v-381h698l-92 -237h-606v-395h723v-238h-433l-14 -63h45q71 0 112.5 -39.5t41.5 -120.5q0 -83 -52.5 -130.5t-150.5 -47.5q-117 0 -211 22v133q13 -1 46.5 -5.5t57.5 -6.5t52 -2q98 0 98 41q0 22 -13 28.5t-48 6.5h-164l43 184h-416z" />
<glyph unicode="&#x229;" d="M84 526q0 297 120 429t376 132q248 0 362.5 -124t114.5 -404q0 -83 -8 -151h-687q11 -103 61.5 -149t164.5 -46q190 0 430 66v-213q-126 -42 -232 -62q-95 -13 -163 -16l-13 -51h45q71 0 112.5 -39.5t41.5 -120.5q0 -83 -52.5 -130.5t-150.5 -47.5q-118 0 -211 22v133 q13 -1 46.5 -5.5t57.5 -6.5t52 -2q98 0 98 41q0 22 -13 28.5t-48 6.5h-164l41 176q-204 29 -292.5 154t-88.5 380zM360 629h428q-6 123 -51.5 178t-156.5 55q-114 0 -161.5 -55t-58.5 -178z" />
<glyph unicode="&#x22a;" horiz-adv-x="1406" d="M100 739q0 190 31 328t100.5 237.5t186.5 149t284 49.5t284 -49.5t187 -149t101 -237.5t31 -328q0 -189 -31 -324.5t-101 -232.5t-187 -144.5t-284 -47.5t-284 47.5t-186.5 144.5t-100.5 232.5t-31 324.5zM342 1581v240h274v-240h-274zM383 739q0 -266 73 -389t246 -123 t246.5 123t73.5 389t-74 396.5t-246 130.5t-245.5 -130t-73.5 -397zM395 1888v158h615v-158h-615zM782 1581v240h275v-240h-275z" />
<glyph unicode="&#x22b;" horiz-adv-x="1165" d="M84 528q0 -258 120.5 -400t377.5 -142q260 0 377.5 140t117.5 402q0 271 -117.5 415t-377.5 144q-498 0 -498 -559zM233 1229v260h275v-260h-275zM285 1628v178h614v-178h-614zM367 528q0 179 51 256.5t164 77.5q107 0 160 -79t53 -255q0 -172 -52.5 -244.5t-160.5 -72.5 q-115 0 -165 71.5t-50 245.5zM674 1229v260h274v-260h-274z" />
<glyph unicode="&#x22c;" horiz-adv-x="1406" d="M100 739q0 190 31 328t100.5 237.5t186.5 149t284 49.5t284 -49.5t187 -149t101 -237.5t31 -328q0 -189 -31 -324.5t-101 -232.5t-187 -144.5t-284 -47.5t-284 47.5t-186.5 144.5t-100.5 232.5t-31 324.5zM369 1608q6 102 59 157.5t152 55.5q59 0 118.5 -28t89.5 -28 q28 0 41.5 14t18.5 42h176q-6 -102 -58 -157.5t-151 -55.5q-59 0 -119 27.5t-90 27.5q-28 0 -41 -13.5t-18 -41.5h-178zM383 739q0 -266 73 -389t246 -123t246.5 123t73.5 389t-74 396.5t-246 130.5t-245.5 -130t-73.5 -397zM395 1888v158h615v-158h-615z" />
<glyph unicode="&#x22d;" horiz-adv-x="1165" d="M84 528q0 -258 120.5 -400t377.5 -142q260 0 377.5 140t117.5 402q0 271 -117.5 415t-377.5 144q-498 0 -498 -559zM254 1229q6 105 60 169t151 64q59 0 119 -27.5t90 -27.5q28 0 41 13.5t18 41.5h176q-6 -105 -59 -169t-150 -64q-59 0 -118.5 27.5t-89.5 27.5 q-51 0 -60 -55h-178zM285 1628v178h614v-178h-614zM367 528q0 179 51 256.5t164 77.5q107 0 160 -79t53 -255q0 -172 -52.5 -244.5t-160.5 -72.5q-115 0 -165 71.5t-50 245.5z" />
<glyph unicode="&#x22e;" horiz-adv-x="1406" d="M100 739q0 190 31 328t100.5 237.5t186.5 149t284 49.5t284 -49.5t187 -149t101 -237.5t31 -328q0 -189 -31 -324.5t-101 -232.5t-187 -144.5t-284 -47.5t-284 47.5t-186.5 144.5t-100.5 232.5t-31 324.5zM383 739q0 -266 73 -389t246 -123t246.5 123t73.5 389t-74 396.5 t-246 130.5t-245.5 -130t-73.5 -397zM569 1628v260h275v-260h-275z" />
<glyph unicode="&#x22f;" horiz-adv-x="1165" d="M84 528q0 -258 120.5 -400t377.5 -142q260 0 377.5 140t117.5 402q0 271 -117.5 415t-377.5 144q-498 0 -498 -559zM367 528q0 179 51 256.5t164 77.5q107 0 160 -79t53 -255q0 -172 -52.5 -244.5t-160.5 -72.5q-115 0 -165 71.5t-50 245.5zM455 1229v260h274v-260h-274z " />
<glyph unicode="&#x230;" horiz-adv-x="1406" d="M100 739q0 190 31 328t100.5 237.5t186.5 149t284 49.5t284 -49.5t187 -149t101 -237.5t31 -328q0 -189 -31 -324.5t-101 -232.5t-187 -144.5t-284 -47.5t-284 47.5t-186.5 144.5t-100.5 232.5t-31 324.5zM383 739q0 -266 73 -389t246 -123t246.5 123t73.5 389t-74 396.5 t-246 130.5t-245.5 -130t-73.5 -397zM395 1888v158h615v-158h-615zM569 1581v240h275v-240h-275z" />
<glyph unicode="&#x3a9;" horiz-adv-x="1531" d="M61 0v231h242q-91 105 -153 250t-62 301q0 155 48.5 288t136.5 228.5t218 150t287 54.5q125 0 232.5 -36t186.5 -101t135 -152.5t84 -192.5t28 -220q0 -175 -62 -319.5t-159 -250.5h247v-231h-624v205q130 81 225.5 237t95.5 326q0 88 -26 175t-74 159.5t-124.5 117 t-168.5 44.5q-125 0 -220 -73.5t-141 -185.5t-46 -239q0 -168 96.5 -325t226.5 -236v-205h-629z" />
<glyph unicode="&#x3c0;" horiz-adv-x="1185" d="M133 0h283v838h352v-838h283v1075h-918v-1075z" />
<glyph unicode="&#x400;" horiz-adv-x="1230" d="M129 0v1489h1006v-238h-723v-381h698l-92 -237h-606v-395h723v-238h-1006zM350 1888h303l127 -260h-215z" />
<glyph unicode="&#x401;" horiz-adv-x="1230" d="M129 0v1489h1006v-238h-723v-381h698l-92 -237h-606v-395h723v-238h-1006zM309 1628v260h275v-260h-275zM750 1628v260h274v-260h-274z" />
<glyph unicode="&#x402;" horiz-adv-x="1617" d="M49 1251v238h1245l-92 -238h-414v-209q172 48 297 48q482 0 482 -549q0 -557 -520 -557v227q133 16 180 92t47 238q0 81 -10 136.5t-36 99t-74 64.5t-120 21q-76 0 -246 -37v-825h-282v1251h-457z" />
<glyph unicode="&#x403;" horiz-adv-x="1044" d="M123 0v1489h881l-93 -238h-505v-1251h-283zM391 1628h215l215 260h-303z" />
<glyph unicode="&#x404;" horiz-adv-x="1189" d="M78 748q0 179 32.5 315.5t101.5 236.5t183.5 151.5t272.5 51.5q218 0 450 -73v-216q-131 29 -222 40.5t-196 11.5q-159 0 -238 -106.5t-93 -309.5h518l-80 -209h-438q9 -195 94 -304.5t239 -109.5q176 0 416 58v-219q-252 -76 -450 -76q-126 0 -225.5 37t-167.5 103 t-112.5 161.5t-64.5 208.5t-20 248z" />
<glyph unicode="&#x405;" horiz-adv-x="1167" d="M78 1096q0 407 510 407q219 0 430 -69v-215q-196 53 -410 53q-56 0 -98.5 -7t-82 -24.5t-60.5 -53.5t-21 -89q0 -34 6 -59.5t24 -46t36.5 -33.5t58.5 -28t73 -24.5t97 -25.5q117 -30 195 -63.5t139 -84t89 -121.5t28 -168q0 -226 -133.5 -346.5t-372.5 -120.5 q-235 0 -480 76v213q287 -57 459 -57q133 0 196.5 57t63.5 174q0 35 -12.5 61.5t-32.5 45t-59.5 35.5t-78.5 28.5t-105 28.5q-233 57 -346 161t-113 296z" />
<glyph unicode="&#x406;" horiz-adv-x="495" d="M106 0v1489h283v-1489h-283z" />
<glyph unicode="&#x407;" horiz-adv-x="696" d="M-31 1581v258h275v-258h-275zM205 0v1489h282v-1489h-282zM453 1581v258h274v-258h-274z" />
<glyph unicode="&#x408;" horiz-adv-x="808" d="M16 33v213q162 -27 265 -27q66 0 91 28.5t25 106.5v1135h283v-1163q0 -340 -346 -340q-67 0 -161 13t-157 34z" />
<glyph unicode="&#x409;" horiz-adv-x="2088" d="M25 33v213q162 -27 264 -27q66 0 91.5 28.5t25.5 106.5v1135h923v-619h180q124 0 215 -23t159 -73.5t102 -137.5t34 -210q0 -107 -23.5 -183.5t-63.5 -123t-106.5 -73.5t-140 -36.5t-176.5 -9.5h-465v1255h-356v-929q0 -340 -346 -340q-67 0 -160.5 13t-156.5 34z M1329 223h174q63 0 102 7.5t70 28.5t44.5 62t13.5 105q0 66 -13.5 108t-45 64t-70 29.5t-99.5 7.5h-176v-412z" />
<glyph unicode="&#x40a;" horiz-adv-x="1822" d="M115 0v1489h282v-617h351v617h282v-619h182q124 0 215 -23t159 -73.5t102 -137.5t34 -210q0 -107 -23.5 -183.5t-63.5 -123t-106.5 -73.5t-140 -36.5t-176.5 -9.5h-464v635h-351v-635h-282zM1030 223h176q63 0 102 7.5t70 28.5t44.5 62t13.5 105q0 66 -13.5 108t-45 64 t-70 29.5t-99.5 7.5h-178v-412z" />
<glyph unicode="&#x40b;" horiz-adv-x="1597" d="M49 1251v238h1245l-92 -238h-414v-362q200 96 381 96q166 0 249 -93.5t83 -250.5v-641h-272v641q0 62 -30.5 89.5t-94.5 27.5q-108 0 -316 -88v-670h-282v1251h-457z" />
<glyph unicode="&#x40c;" horiz-adv-x="1294" d="M113 0v1489h282v-557l553 557h336l-725 -737l731 -752h-340l-555 571v-571h-282zM473 1628h215l215 260h-303z" />
<glyph unicode="&#x40d;" horiz-adv-x="1437" d="M135 0h387l508 1186v-1186h273v1489h-388l-507 -1186v1186h-273v-1489zM438 1888h303l127 -260h-215z" />
<glyph unicode="&#x40e;" horiz-adv-x="1198" d="M129 778v649l274 82v-745q0 -52 31 -74t96 -22q87 0 265 53v768h272v-1155q0 -170 -123.5 -257t-329.5 -87q-175 0 -383 47v217q71 -18 156 -28.5t133 -10.5q58 0 96 3t75 12t58 26t33.5 45.5t12.5 69.5v133q-198 -66 -303 -66q-162 0 -262.5 82.5t-100.5 257.5z M313 1851h193q3 -38 28.5 -60t63.5 -22q36 0 62.5 22t33.5 60h195q-5 -98 -81.5 -169.5t-207.5 -71.5q-133 0 -210 71.5t-77 169.5z" />
<glyph unicode="&#x40f;" horiz-adv-x="1384" d="M133 0v1489h283v-1251h571v1251h283v-1489h-443v-399h-282v399h-412z" />
<glyph unicode="&#x410;" horiz-adv-x="1333" d="M12 0l484 1489h346l481 -1489h-287l-112 358h-514l-113 -358h-285zM485 594h363l-180 594z" />
<glyph unicode="&#x411;" horiz-adv-x="1198" d="M143 0v1489h285h569v-238h-569v-381h180q124 0 215 -23t159 -73.5t102 -137.5t34 -210q0 -107 -23.5 -183.5t-63.5 -123t-106.5 -73.5t-140 -36.5t-176.5 -9.5h-465zM428 223h174q62 0 101.5 7.5t70 28.5t44 62t13.5 105q0 66 -13.5 108t-44.5 64t-69.5 29.5t-99.5 7.5 h-176v-412z" />
<glyph unicode="&#x412;" horiz-adv-x="1316" d="M135 0v1489h555q256 0 366.5 -101.5t110.5 -324.5q0 -192 -118 -289q79 -43 119 -123t40 -217q0 -228 -127 -331t-368 -103h-578zM408 236h317q203 0 203 198q0 199 -203 199h-317v-397zM408 868h276q107 0 155 49.5t48 143.5q0 101 -51 146.5t-152 45.5h-276v-385z" />
<glyph unicode="&#x413;" horiz-adv-x="1044" d="M123 0v1489h881l-93 -238h-505v-1251h-283z" />
<glyph unicode="&#x414;" horiz-adv-x="1382" d="M25 231h129q99 198 138.5 384.5t39.5 461.5v412h874v-1258h123v-630h-287v399h-731v-399h-286v630zM459 231h467v1026h-308v-237q0 -237 -35 -422t-124 -367z" />
<glyph unicode="&#x415;" horiz-adv-x="1230" d="M129 0v1489h1006v-238h-723v-381h698l-92 -237h-606v-395h723v-238h-1006z" />
<glyph unicode="&#x416;" horiz-adv-x="1757" d="M23 0l217 618q32 90 99 145.5t163 59.5l-479 666h325l385 -602v602h287v-600l387 600h326l-482 -664q95 0 165.5 -56.5t101.5 -145.5l213 -623h-285l-180 547q-19 55 -46 82.5t-77 27.5h-123v-657h-287v657h-108q-48 0 -84 -29t-54 -85l-180 -543h-284z" />
<glyph unicode="&#x417;" horiz-adv-x="1112" d="M51 55v224q162 -34 257 -47t188 -13q132 0 189.5 50t62.5 157q0 68 -25 114t-75 70t-109.5 33.5t-143.5 9.5h-110v238h110q57 0 105.5 9.5t94.5 32t72.5 68t26.5 109.5q0 77 -45 114.5t-153 43.5q-172 0 -398 -64v219q81 33 200.5 56.5t197.5 23.5q246 0 363.5 -94.5 t117.5 -294.5q0 -209 -189 -313q242 -84 242 -375q0 -227 -133 -336.5t-377 -109.5q-213 0 -469 75z" />
<glyph unicode="&#x418;" horiz-adv-x="1437" d="M135 0h387l508 1186v-1186h273v1489h-388l-507 -1186v1186h-273v-1489z" />
<glyph unicode="&#x419;" horiz-adv-x="1437" d="M135 0h387l508 1186v-1186h273v1489h-388l-507 -1186v1186h-273v-1489zM426 1851h192q3 -37 29 -59.5t64 -22.5q36 0 62.5 22t33.5 60h194q-5 -98 -81.5 -169.5t-206.5 -71.5q-133 0 -210 71.5t-77 169.5z" />
<glyph unicode="&#x41a;" horiz-adv-x="1294" d="M113 0v1489h282v-557l553 557h336l-725 -737l731 -752h-340l-555 571v-571h-282z" />
<glyph unicode="&#x41b;" horiz-adv-x="1495" d="M25 33v213q162 -27 264 -27q66 0 91.5 28.5t25.5 106.5v1135h925v-1489h-284v1255h-359v-929q0 -340 -346 -340q-67 0 -160.5 13t-156.5 34z" />
<glyph unicode="&#x41c;" horiz-adv-x="1742" d="M133 0v1489h434l305 -1208l304 1208h434v-1489h-262v1182l-293 -1127h-367l-293 1127v-1182h-262z" />
<glyph unicode="&#x41d;" horiz-adv-x="1404" d="M133 0v1489h283v-617h571v617h283v-1489h-283v635h-571v-635h-283z" />
<glyph unicode="&#x41e;" horiz-adv-x="1406" d="M100 739q0 190 31 328t100.5 237.5t186.5 149t284 49.5t284 -49.5t187 -149t101 -237.5t31 -328q0 -189 -31 -324.5t-101 -232.5t-187 -144.5t-284 -47.5t-284 47.5t-186.5 144.5t-100.5 232.5t-31 324.5zM383 739q0 -266 73 -389t246 -123t246.5 123t73.5 389t-74 396.5 t-246 130.5t-245.5 -130t-73.5 -397z" />
<glyph unicode="&#x41f;" horiz-adv-x="1384" d="M133 0h283v1251h551v-1251h282v1489h-1116v-1489z" />
<glyph unicode="&#x420;" horiz-adv-x="1314" d="M141 0v1489h572q257 0 378 -123t121 -387q0 -263 -121.5 -389.5t-377.5 -126.5h-289v-463h-283zM424 700h266q120 0 180 72.5t60 206.5q0 137 -59 204.5t-181 67.5h-266v-551z" />
<glyph unicode="&#x421;" horiz-adv-x="1189" d="M78 748q0 179 32.5 315.5t101.5 236.5t183.5 151.5t272.5 51.5q218 0 450 -73v-216q-131 29 -222 40.5t-196 11.5q-175 0 -255 -131t-80 -387q0 -521 337 -521q176 0 416 58v-219q-252 -76 -450 -76q-126 0 -225.5 37t-167.5 103t-112.5 161.5t-64.5 208.5t-20 248z" />
<glyph unicode="&#x422;" horiz-adv-x="1325" d="M49 1251v238h1245l-92 -238h-414v-1251h-282v1251h-457z" />
<glyph unicode="&#x423;" horiz-adv-x="1198" d="M129 778v649l274 82v-745q0 -52 31 -74t96 -22q87 0 265 53v768h272v-1155q0 -170 -123.5 -257t-329.5 -87q-175 0 -383 47v217q71 -18 156 -28.5t133 -10.5q58 0 96 3t75 12t58 26t33.5 45.5t12.5 69.5v133q-198 -66 -303 -66q-162 0 -262.5 82.5t-100.5 257.5z" />
<glyph unicode="&#x424;" horiz-adv-x="1406" d="M102 735q0 249 117.5 396.5t345.5 179.5v178h262v-176q236 -32 358 -179t122 -399q0 -498 -480 -555v-180h-262v182q-463 57 -463 553zM395 735q0 -180 76 -256q36 -36 94 -57v645q-170 -68 -170 -332zM827 414q103 21 145 98t42 223q0 182 -78 269q-45 48 -109 69v-659z " />
<glyph unicode="&#x425;" horiz-adv-x="1310" d="M14 0l480 743l-480 746h326l315 -494l320 494h321l-479 -744l479 -745h-323l-318 492l-317 -492h-324z" />
<glyph unicode="&#x426;" horiz-adv-x="1423" d="M133 0v1489h283v-1251h551v1251h282v-1385h92v-436h-282v332h-926z" />
<glyph unicode="&#x427;" horiz-adv-x="1198" d="M129 737v690l274 82v-786q0 -52 31 -74t96 -22q115 0 285 61v801h272v-1489h-272v471q-199 -74 -323 -74q-162 0 -262.5 82.5t-100.5 257.5z" />
<glyph unicode="&#x428;" horiz-adv-x="1857" d="M154 0v1489h282v-1251h359v1251h278v-1251h350v1251h283v-1489h-1552z" />
<glyph unicode="&#x429;" horiz-adv-x="1884" d="M154 0v1489h282v-1251h359v1251h278v-1251h350v1251h283v-1385h96v-436h-282v332h-1366z" />
<glyph unicode="&#x42a;" horiz-adv-x="1386" d="M-4 1255v234h612v-619h180q124 0 215 -23t159 -73.5t102 -137.5t34 -210q0 -107 -23.5 -183.5t-63.5 -123t-106.5 -73.5t-140 -36.5t-176.5 -9.5h-464v1255h-328zM608 223h174q63 0 102 7.5t70 28.5t44.5 62t13.5 105q0 66 -13.5 108t-45 64t-70 29.5t-99.5 7.5h-176 v-412z" />
<glyph unicode="&#x42b;" horiz-adv-x="1576" d="M133 0v1489h285v-619h162q124 0 215 -23t159 -73.5t102 -137.5t34 -210q0 -107 -23.5 -183.5t-63.5 -123t-106.5 -73.5t-140 -36.5t-176.5 -9.5h-447zM418 223h155q63 0 102 7.5t70 28.5t44.5 62t13.5 105q0 66 -13.5 108t-45 64t-70 29.5t-99.5 7.5h-157v-412zM1167 0 v1489h283v-1489h-283z" />
<glyph unicode="&#x42c;" horiz-adv-x="1198" d="M143 0v1489h285v-619h162q124 0 215 -23t159 -73.5t102 -137.5t34 -210q0 -107 -23.5 -183.5t-63.5 -123t-106.5 -73.5t-140 -36.5t-176.5 -9.5h-447zM428 223h156q62 0 101.5 7.5t70 28.5t44 62t13.5 105q0 66 -13.5 108t-44.5 64t-69.5 29.5t-99.5 7.5h-158v-412z" />
<glyph unicode="&#x42d;" horiz-adv-x="1189" d="M78 66q252 -76 450 -76q126 0 225.5 37t167.5 103t112.5 161.5t64.5 208.5t20 248q0 179 -32.5 315.5t-101.5 236.5t-183.5 151.5t-272.5 51.5q-227 0 -450 -73v-216q131 29 222 40.5t196 11.5q158 0 235.5 -104.5t95.5 -311.5h-518l80 -209h438q-11 -195 -95.5 -304.5 t-237.5 -109.5q-176 0 -416 58v-219z" />
<glyph unicode="&#x42e;" horiz-adv-x="1896" d="M133 0v1489h283v-617h180q19 317 160 474t438 157q167 0 284 -49.5t186.5 -149t100.5 -237.5t31 -328q0 -189 -31 -324.5t-100.5 -232.5t-186.5 -144.5t-284 -47.5q-307 0 -446 158.5t-154 486.5h-178v-635h-283zM874 739q0 -266 73.5 -389t246.5 -123t246 123t73 389 t-73.5 396.5t-245.5 130.5t-246 -130t-74 -397z" />
<glyph unicode="&#x42f;" horiz-adv-x="1337" d="M49 0h318l286 520h258v-520h281v1489h-569q-261 0 -382.5 -111t-121.5 -370q0 -184 58.5 -290.5t184.5 -156.5zM401 1008q0 132 57 187.5t183 55.5h270v-493h-270q-124 0 -182 60t-58 190z" />
<glyph unicode="&#x430;" d="M86 328q0 132 60 213.5t205.5 125.5t393.5 48v30q0 29 -14 49.5t-37.5 33t-60.5 20t-75 10t-89 2.5q-128 0 -295 -37v217q176 47 393 47q98 0 179 -21t143 -62t96.5 -108t34.5 -153v-743h-266v68q-68 -39 -158.5 -60.5t-167.5 -21.5q-157 0 -249.5 89.5t-92.5 252.5z M367 340q0 -137 143 -137q110 0 235 71v230q-83 -1 -137.5 -5t-104.5 -14.5t-77 -28t-43 -46.5t-16 -70z" />
<glyph unicode="&#x431;" horiz-adv-x="1157" d="M86 528q0 -258 120.5 -400t377.5 -142q260 0 377.5 140t117.5 402q0 271 -117.5 415t-377.5 144q-126 0 -213 -43q19 42 45 77.5t53 61.5t64 47.5t68.5 36t75 26t76.5 17.5t81 11t78.5 7t78.5 5v238q-103 -9 -187.5 -22.5t-180.5 -41t-171 -66t-142.5 -99.5t-110.5 -140 q-36 -67 -59 -141t-33.5 -167.5t-14 -153t-6.5 -175.5v-37zM369 528q0 179 51 256.5t164 77.5q107 0 160 -79t53 -255q0 -172 -52.5 -244.5t-160.5 -72.5q-115 0 -165 71.5t-50 245.5z" />
<glyph unicode="&#x432;" horiz-adv-x="1095" d="M143 0v1075h504q190 0 272 -70t82 -225q0 -70 -33.5 -132t-97.5 -93q30 -12 43.5 -18.5t41 -27t41 -44t25 -66.5t11.5 -98q0 -165 -95.5 -233t-277.5 -68h-516zM406 219h225q61 0 96 31t35 90q0 63 -33 88t-98 25h-225v-234zM406 651h196q131 0 131 101q0 62 -33 86 t-98 24h-196v-211z" />
<glyph unicode="&#x433;" horiz-adv-x="860" d="M123 0v1075h721l-92 -237h-346v-838h-283z" />
<glyph unicode="&#x434;" horiz-adv-x="1187" d="M51 213h103q135 218 135 553v309h747v-862h101v-545h-271v332h-553v-332h-262v545zM438 215h326v639h-221v-135q0 -271 -105 -504z" />
<glyph unicode="&#x435;" d="M84 526q0 297 120 429t376 132q248 0 362.5 -124t114.5 -404q0 -83 -8 -151h-687q11 -103 61.5 -149t164.5 -46q190 0 430 66v-213q-230 -80 -447 -80q-261 0 -374 128.5t-113 411.5zM360 629h428q-6 123 -51.5 178t-156.5 55q-114 0 -161.5 -55t-58.5 -178z" />
<glyph unicode="&#x436;" horiz-adv-x="1423" d="M2 1075h311l262 -360v360h269v-362l260 362h313l-399 -489q87 -5 146.5 -51t95.5 -142l147 -393h-279l-114 336q-23 66 -56 88t-81 22h-33v-446h-269v446h-30q-48 0 -80 -22t-55 -88l-117 -336h-277l146 393q33 90 95 139t144 54z" />
<glyph unicode="&#x437;" horiz-adv-x="860" d="M59 88v211q228 -104 338 -104q150 0 150 116q0 76 -57 104.5t-162 28.5h-109v213h109q34 0 63 5t57.5 18t45 39t16.5 63q0 78 -111 78q-60 0 -143.5 -28t-165.5 -87v211q70 57 157.5 89t170.5 32q174 0 259 -72t85 -221q0 -67 -38 -121.5t-93 -87.5q170 -75 170 -264 q0 -166 -96 -250t-271 -84q-188 0 -375 111z" />
<glyph unicode="&#x438;" horiz-adv-x="1214" d="M139 0v1075h275v-674l340 674h315v-1075h-272v680l-344 -680h-314z" />
<glyph unicode="&#x439;" horiz-adv-x="1214" d="M139 0v1075h275v-674l340 674h315v-1075h-272v680l-344 -680h-314zM301 1499h193q3 -38 28.5 -60t63.5 -22q36 0 62.5 22t33.5 60h195q-5 -98 -82 -170t-207 -72q-133 0 -210 71.5t-77 170.5z" />
<glyph unicode="&#x43a;" horiz-adv-x="1126" d="M147 0v1075h273v-332l334 332h352l-545 -526l547 -549h-352l-336 344v-344h-273z" />
<glyph unicode="&#x43b;" horiz-adv-x="1110" d="M2 18v181q86 -19 119 -19q48 0 73 19t25 69v807h782v-1075h-268v856h-258v-618q0 -124 -60 -187t-188 -63q-115 0 -225 30z" />
<glyph unicode="&#x43c;" horiz-adv-x="1290" d="M109 0v1075h378l156 -708l156 708h379v-1075h-252v674l-142 -637h-284l-138 633v-670h-253z" />
<glyph unicode="&#x43d;" horiz-adv-x="1193" d="M117 0v1075h282v-399h398v399h282v-1075h-282v438h-398v-438h-282z" />
<glyph unicode="&#x43e;" horiz-adv-x="1165" d="M84 528q0 -258 120.5 -400t377.5 -142q260 0 377.5 140t117.5 402q0 271 -117.5 415t-377.5 144q-498 0 -498 -559zM367 528q0 179 51 256.5t164 77.5q107 0 160 -79t53 -255q0 -172 -52.5 -244.5t-160.5 -72.5q-115 0 -165 71.5t-50 245.5z" />
<glyph unicode="&#x43f;" horiz-adv-x="1185" d="M133 0h283v838h352v-838h283v1075h-918v-1075z" />
<glyph unicode="&#x440;" horiz-adv-x="1173" d="M131 -401v1415l275 82v-66q121 57 233 57q101 0 178.5 -25t129 -70t84.5 -112.5t47 -148.5t14 -182q0 -128 -23 -227t-74.5 -176.5t-141 -118.5t-214.5 -41q-112 0 -233 37v-342zM406 242q104 -31 210 -31q193 0 193 338q0 73 -7.5 125.5t-27.5 96.5t-59 66.5t-97 22.5 q-100 0 -212 -51v-567z" />
<glyph unicode="&#x441;" horiz-adv-x="976" d="M78 539q0 126 26 224.5t81 172t146 112.5t214 39q200 0 354 -63v-215q-155 47 -303 47q-72 0 -119 -21t-72.5 -64.5t-35 -98t-9.5 -133.5q0 -85 9.5 -141.5t35.5 -99.5t73 -63t120 -20q144 0 317 49v-215q-171 -65 -374 -65q-463 0 -463 555z" />
<glyph unicode="&#x442;" horiz-adv-x="901" d="M25 840v237h895l-93 -237h-237v-840h-283v840h-282z" />
<glyph unicode="&#x443;" horiz-adv-x="1198" d="M129 365v649l274 82v-746q0 -52 31 -74t96 -22q87 0 265 53v768h272v-1128q0 -170 -123.5 -257t-329.5 -87q-175 0 -383 47v217q71 -18 156 -28.5t133 -10.5q58 0 96 3t75 12t58 26t33.5 45.5t12.5 69.5v106q-195 -65 -303 -65q-162 0 -262.5 82.5t-100.5 257.5z" />
<glyph unicode="&#x444;" horiz-adv-x="1884" d="M82 549q0 -563 440 -563q142 0 277 75v-460h272v460q129 -72 264 -75q125 0 214.5 40.5t141 117.5t74.5 176t23 229q0 127 -23 223t-73.5 168.5t-137 109.5t-208.5 37q-71 0 -147 -16t-128 -41v512l-272 -82v-430q-52 25 -128 41t-147 16q-122 0 -208.5 -37t-137 -109.5 t-73.5 -168.5t-23 -223zM365 549q0 74 7.5 125.5t27 96t58.5 67t97 22.5t126.5 -13.5t117.5 -37.5v-539q-49 -26 -115.5 -42.5t-126.5 -16.5q-56 0 -95.5 27t-59.5 76.5t-28.5 106t-8.5 128.5zM1071 270v539q49 24 117.5 37.5t126.5 13.5t97 -22.5t58.5 -67t27 -96 t7.5 -125.5q0 -72 -8.5 -128.5t-28.5 -106t-59.5 -76.5t-95.5 -27q-60 0 -126.5 16.5t-115.5 42.5z" />
<glyph unicode="&#x445;" horiz-adv-x="1089" d="M-2 0l393 537l-393 538h309l238 -327l239 327h310l-394 -538l394 -537h-310l-239 326l-238 -326h-309z" />
<glyph unicode="&#x446;" horiz-adv-x="1228" d="M141 0v1075h283v-837h336v837h282v-971h97v-436h-283v332h-715z" />
<glyph unicode="&#x447;" horiz-adv-x="1208" d="M129 616v396l274 82v-492q0 -52 31 -74t96 -22q115 0 285 61v506h272v-1073h-272v350q-199 -74 -323 -74q-162 0 -262.5 82.5t-100.5 257.5z" />
<glyph unicode="&#x448;" horiz-adv-x="1617" d="M152 0v1073h280v-837h240v837h274v-837h240v837h280v-1073h-1314z" />
<glyph unicode="&#x449;" horiz-adv-x="1658" d="M152 0v1073h280v-837h240v837h274v-837h240v837h280v-969h101v-436h-283v332h-1132z" />
<glyph unicode="&#x44a;" horiz-adv-x="1280" d="M-4 848v227h577v-411h203q71 0 127 -7.5t111.5 -29.5t92 -58.5t59 -98.5t22.5 -146q0 -60 -12 -108t-31.5 -81.5t-50.5 -58.5t-64.5 -39t-77.5 -22.5t-84.5 -11.5t-91.5 -3h-475v848h-305zM573 215h197q77 0 110 23t33 86q0 65 -33.5 91.5t-107.5 26.5h-199v-227z" />
<glyph unicode="&#x44b;" horiz-adv-x="1495" d="M129 0v1075h272v-411h193q71 0 127 -7.5t111.5 -29.5t92 -58.5t59 -98.5t22.5 -146q0 -60 -12 -108t-31.5 -81.5t-50.5 -58.5t-64.5 -39t-77.5 -22.5t-84.5 -11.5t-91.5 -3h-465zM401 215h187q77 0 110 23t33 86q0 65 -33.5 91.5t-107.5 26.5h-189v-227zM1090 0v1073h282 v-1073h-282z" />
<glyph unicode="&#x44c;" horiz-adv-x="1095" d="M139 0v1075h273v-411h192q71 0 127 -7.5t111.5 -29.5t92 -58.5t59 -98.5t22.5 -146q0 -60 -12 -108t-31.5 -81.5t-50.5 -58.5t-64.5 -39t-77.5 -22.5t-84.5 -11.5t-91.5 -3h-465zM412 215h186q77 0 110 23t33 86q0 65 -33.5 91.5t-107.5 26.5h-188v-227z" />
<glyph unicode="&#x44d;" horiz-adv-x="976" d="M78 49q171 -65 375 -65q462 0 462 555q0 126 -26 224.5t-80.5 172t-145.5 112.5t-214 39q-201 0 -355 -63v-215q155 47 303 47q117 0 165 -53t67 -168h-404l80 -209h322q-11 -57 -24 -91.5t-38 -64.5t-66.5 -42.5t-103.5 -12.5q-144 0 -317 49v-215z" />
<glyph unicode="&#x44e;" horiz-adv-x="1617" d="M127 0v1075h283v-416h120q17 87 53 161t93.5 135.5t144.5 96.5t195 35q260 0 377.5 -144t117.5 -415q0 -262 -117.5 -402t-377.5 -140q-118 0 -206.5 30t-146.5 88.5t-91.5 136t-49.5 181.5h-112v-422h-283zM801 528q0 -174 50 -245.5t165 -71.5q108 0 160.5 72.5 t52.5 244.5q0 176 -53 255t-160 79q-113 0 -164 -77.5t-51 -256.5z" />
<glyph unicode="&#x44f;" horiz-adv-x="1024" d="M25 0h290l189 344h129v-344h260v1073h-434q-196 0 -287.5 -82.5t-91.5 -273.5q0 -256 160 -330zM346 717q0 76 30.5 107.5t98.5 31.5h158v-295h-158q-129 0 -129 156z" />
<glyph unicode="&#x450;" d="M84 526q0 297 120 429t376 132q248 0 362.5 -124t114.5 -404q0 -83 -8 -151h-687q11 -103 61.5 -149t164.5 -46q190 0 430 66v-213q-230 -80 -447 -80q-261 0 -374 128.5t-113 411.5zM309 1489h303l127 -260h-215zM360 629h428q-6 123 -51.5 178t-156.5 55 q-114 0 -161.5 -55t-58.5 -178z" />
<glyph unicode="&#x451;" d="M84 526q0 297 120 429t376 132q248 0 362.5 -124t114.5 -404q0 -83 -8 -151h-687q11 -103 61.5 -149t164.5 -46q190 0 430 66v-213q-230 -80 -447 -80q-261 0 -374 128.5t-113 411.5zM227 1229v260h275v-260h-275zM360 629h428q-6 123 -51.5 178t-156.5 55 q-114 0 -161.5 -55t-58.5 -178zM668 1229v260h274v-260h-274z" />
<glyph unicode="&#x452;" horiz-adv-x="1200" d="M-2 1182v196h125v113h283v-113h239v-196h-239v-168q169 73 329 73q166 0 249 -93.5t83 -250.5v-802q0 -166 -83 -252t-275 -86q-85 0 -174 18v213q57 -8 137 -8q67 0 95 27.5t28 91.5v798q0 62 -30.5 89.5t-94.5 27.5q-99 0 -264 -67v-793h-283v1182h-125z" />
<glyph unicode="&#x453;" horiz-adv-x="860" d="M123 0v1075h721l-92 -237h-346v-838h-283zM319 1229h216l215 260h-304z" />
<glyph unicode="&#x454;" horiz-adv-x="976" d="M82 539q0 126 26 224.5t81 172t146 112.5t214 39q200 0 354 -63v-215q-155 47 -303 47q-61 0 -102 -13.5t-66.5 -44t-39 -67.5t-23.5 -96h403l-80 -209h-323q22 -113 69 -162t164 -49q145 0 318 49v-215q-171 -65 -375 -65q-463 0 -463 555z" />
<glyph unicode="&#x455;" horiz-adv-x="1024" d="M78 774q0 83 31 144.5t88 97.5t129 53.5t161 17.5q164 0 402 -59v-211q-235 51 -408 51q-149 0 -149 -84q0 -47 45 -71t162 -49q208 -44 305.5 -125.5t97.5 -225.5q0 -172 -116 -251.5t-339 -79.5q-87 0 -206.5 19.5t-188.5 49.5v207q201 -57 385 -57q113 0 162 23.5 t49 82.5q0 51 -43 74.5t-176 54.5q-206 48 -298.5 122.5t-92.5 215.5z" />
<glyph unicode="&#x456;" horiz-adv-x="473" d="M98 0v1075h275v-1075h-275zM98 1229v260h275v-260h-275z" />
<glyph unicode="&#x457;" horiz-adv-x="696" d="M-8 1229v260h274v-260h-274zM205 0v1075h282v-1075h-282zM432 1229v260h275v-260h-275z" />
<glyph unicode="&#x458;" horiz-adv-x="471" d="M-205 -147q143 -31 191 -31q62 0 86 21.5t24 78.5v1151h277v-1110q0 -148 -84.5 -253t-227.5 -105t-266 33v215zM98 1229v260h275v-260h-275z" />
<glyph unicode="&#x459;" horiz-adv-x="1740" d="M2 18v181q86 -19 119 -19q48 0 73 19t25 69v807h782v-411h244q71 0 127 -7.5t111.5 -29.5t92 -58.5t59 -98.5t22.5 -146q0 -60 -12 -108t-31.5 -81.5t-50.5 -58.5t-64.5 -39t-77.5 -22.5t-84.5 -11.5t-91.5 -3h-512v856h-258v-618q0 -124 -60 -187t-188 -63 q-115 0 -225 30zM1001 215h238q77 0 110 23t33 86q0 65 -33.5 91.5t-107.5 26.5h-240v-227z" />
<glyph unicode="&#x45a;" horiz-adv-x="1781" d="M117 0v1075h282v-399h398v399h258v-411h243q71 0 127 -7.5t111.5 -29.5t92 -58.5t59 -98.5t22.5 -146q0 -60 -12 -108t-31.5 -81.5t-50.5 -58.5t-64.5 -39t-77.5 -22.5t-84.5 -11.5t-91.5 -3h-501v438h-398v-438h-282zM1055 215h237q77 0 110.5 23t33.5 86q0 65 -34 91 t-108 23l-239 4v-227z" />
<glyph unicode="&#x45b;" horiz-adv-x="1198" d="M-2 1182v196h125v101l283 63v-164h239v-196h-239v-168q169 73 329 73q166 0 249 -93.5t83 -250.5v-743h-272v743q0 62 -30.5 89.5t-94.5 27.5q-99 0 -264 -67v-793h-283v1182h-125z" />
<glyph unicode="&#x45c;" horiz-adv-x="1126" d="M147 0v1075h273v-332l334 332h352l-545 -526l547 -549h-352l-336 344v-344h-273zM432 1229h215l215 260h-303z" />
<glyph unicode="&#x45d;" horiz-adv-x="1214" d="M139 0v1075h275v-674l340 674h315v-1075h-272v680l-344 -680h-314zM319 1489h304l127 -260h-215z" />
<glyph unicode="&#x45e;" horiz-adv-x="1198" d="M129 365v649l274 82v-746q0 -52 31 -74t96 -22q87 0 265 53v768h272v-1128q0 -170 -123.5 -257t-329.5 -87q-175 0 -383 47v217q71 -18 156 -28.5t133 -10.5q58 0 96 3t75 12t58 26t33.5 45.5t12.5 69.5v106q-195 -65 -303 -65q-162 0 -262.5 82.5t-100.5 257.5z M313 1499h193q3 -38 28.5 -60t63.5 -22q36 0 62.5 22t33.5 60h195q-5 -98 -82 -170t-207 -72q-133 0 -210 71.5t-77 170.5z" />
<glyph unicode="&#x45f;" horiz-adv-x="1187" d="M141 0v1075h283v-837h336v837h282v-1075h-313v-334h-283v334h-305z" />
<glyph unicode="&#x460;" horiz-adv-x="2222" d="M94 741q0 179 33 315.5t102.5 237t185.5 153t275 52.5q166 0 326 -63v-209q-164 49 -291 49q-342 0 -342 -535q0 -164 34.5 -279t112.5 -181t197 -66q122 7 242 51v520h274v-518q133 -47 256 -53q174 0 258 138.5t84 387.5q0 535 -342 535q-130 0 -295 -49v207 q186 65 330 65q160 0 275.5 -52.5t184.5 -153t101.5 -237t32.5 -315.5q0 -135 -20 -247t-64.5 -206.5t-112.5 -159.5t-168.5 -101.5t-228.5 -36.5q-196 0 -424 127q-114 -63 -211.5 -95t-208.5 -32q-158 0 -274.5 55t-186 157t-102.5 236t-33 303z" />
<glyph unicode="&#x461;" horiz-adv-x="1331" d="M18 1075h271q5 -306 133 -684q13 44 39.5 124t32.5 99q-45 200 -60 461h271q2 -132 31.5 -333t94.5 -367q38 128 109.5 363t101.5 337h263l-338 -1075h-248q-80 211 -101 281q-14 -42 -46 -143t-44 -138h-225q-93 245 -148.5 410t-83.5 286.5t-37.5 194.5t-15.5 184z" />
<glyph unicode="&#x462;" horiz-adv-x="1386" d="M16 1047v225h308v217h284v-217h385l-88 -225h-297v-177h180q124 0 215 -23t159 -73.5t102 -137.5t34 -210q0 -107 -23.5 -183.5t-63.5 -123t-106.5 -73.5t-140 -36.5t-176.5 -9.5h-464v1047h-308zM608 223h174q63 0 102 7.5t70 28.5t44.5 62t13.5 105q0 66 -13.5 108 t-45 64t-70 29.5t-99.5 7.5h-176v-412z" />
<glyph unicode="&#x463;" horiz-adv-x="1280" d="M31 745v205h280v125h273v-125h321l-78 -205h-243v-81h202q71 0 127 -7.5t111.5 -29.5t92 -58.5t59 -98.5t22.5 -146q0 -60 -12 -108t-31.5 -81.5t-50.5 -58.5t-64.5 -39t-77.5 -22.5t-84.5 -11.5t-91.5 -3h-475v745h-280zM584 215h196q77 0 110.5 23t33.5 86q0 64 -34 91 t-108 27h-198v-227z" />
<glyph unicode="&#x464;" horiz-adv-x="1658" d="M133 0v1489h283v-617h141q14 153 52 266t106.5 196.5t175.5 126t252 42.5q218 0 450 -73v-216q-131 29 -221.5 40.5t-195.5 11.5q-155 0 -232.5 -100t-97.5 -294h516l-86 -237h-432q11 -192 96.5 -300t237.5 -108q175 0 415 58v-219q-252 -76 -450 -76 q-145 0 -253.5 46.5t-177 135t-106 202t-51.5 261.5h-139v-635h-283z" />
<glyph unicode="&#x465;" horiz-adv-x="1433" d="M127 0v1075h283v-436h137q41 448 459 448q200 0 354 -63v-215q-155 47 -303 47q-106 0 -159 -46t-71 -140l-6 -31h406l-88 -217h-316q14 -57 27.5 -89.5t38.5 -62.5t66.5 -42.5t103.5 -12.5q144 0 317 49v-215q-171 -65 -375 -65q-111 0 -192.5 30t-133.5 90t-82 136.5 t-46 181.5h-137v-422h-283z" />
<glyph unicode="&#x466;" horiz-adv-x="1333" d="M12 0h287l199 637h53v-637h233v637h54l196 -637h289l-481 1489h-346zM559 836l109 348l108 -348h-217z" />
<glyph unicode="&#x467;" horiz-adv-x="993" d="M-10 0h270l113 367h24v-367h209v367h25l112 -367h267l-346 1075h-328zM428 551l74 237l71 -237h-145z" />
<glyph unicode="&#x468;" horiz-adv-x="1802" d="M133 0h283v637h286l-206 -637h286l199 637h53v-637h234v637h53l197 -637h288l-481 1489h-346l-211 -651h-352v651h-283v-1489zM1042 836l109 348l109 -348h-218z" />
<glyph unicode="&#x469;" horiz-adv-x="1474" d="M127 0h283v399h176l-129 -399h270l123 399h14v-399h209v399h14l123 -399h267l-347 1075h-327l-158 -491h-235v491h-283v-1075zM905 584l64 204l61 -204h-125z" />
<glyph unicode="&#x46a;" horiz-adv-x="1515" d="M96 1489h1327l-415 -670h6q186 -33 293.5 -139.5t107.5 -296.5v-383h-289v387q0 93 -61.5 146t-161.5 69v-602h-285v602q-96 -15 -158.5 -68t-62.5 -147v-387h-288v383q0 191 106 297t293 139h4zM535 1282l225 -369l225 369h-450z" />
<glyph unicode="&#x46b;" horiz-adv-x="1146" d="M82 1075h991l-295 -475q126 -26 199.5 -104.5t73.5 -214.5v-281h-234v291q0 48 -33 72t-94 40v-403h-223v403q-62 -14 -95.5 -39t-33.5 -73v-291h-234v281q0 138 74.5 216t200.5 103zM436 895l142 -236l141 236h-283z" />
<glyph unicode="&#x46c;" horiz-adv-x="2007" d="M133 0v1489h283v-651h534l-405 651h1327l-416 -670h6q186 -33 294 -139.5t108 -296.5v-383h-289v391q0 93 -61.5 146t-161.5 69v-606h-285v606q-96 -15 -158.5 -68t-62.5 -147v-391h-289v383q0 137 51 223l19 31h-211v-637h-283zM983 1282l225 -369l226 369h-451z" />
<glyph unicode="&#x46d;" horiz-adv-x="1576" d="M127 0v1075h272v-457h361l-285 457h991l-295 -475q126 -26 199.5 -104.5t73.5 -214.5v-281h-234v291q0 48 -33 72t-94 40v-403h-223v403q-62 -14 -95.5 -39t-33.5 -73v-291h-233v281q0 89 30 153h-129v-434h-272zM829 895l142 -236l141 236h-283z" />
<glyph unicode="&#x46e;" horiz-adv-x="1112" d="M76 1120v238q128 101 262 135l-170 213h254l92 -123l92 123h268l-180 -213q275 -71 275 -365q0 -113 -48.5 -182t-146.5 -119q120 -40 185 -122t65 -230q0 -215 -117 -317.5t-354 -102.5h-135q-32 0 -50 -14.5t-18 -38.5q0 -27 18 -44t50 -17h358q135 0 199.5 -60.5 t64.5 -202.5v-61h-233v66q0 32 -25 32h-342q-69 0 -127 12t-111 41t-83.5 85t-30.5 135q0 77 29 134.5t79 90t110.5 48t131.5 15.5q168 0 230.5 40t66.5 161v-2q0 63 -25.5 105.5t-75.5 65.5t-111.5 32.5t-145.5 9.5h-113v234h113q60 0 108 7.5t95 27.5t73.5 62t26.5 103 q0 79 -45 117.5t-148 38.5q-158 0 -411 -158z" />
<glyph unicode="&#x46f;" horiz-adv-x="921" d="M80 739v234q69 59 176 102l-137 170h258l53 -69l53 69h265l-144 -170q191 -73 191 -280q0 -81 -29.5 -133t-89.5 -89q160 -72 160 -264q0 -332 -377 -332h-99q-17 0 -24.5 -7.5t-7.5 -24.5q0 -31 32 -31h265q114 0 168.5 -48t54.5 -165v-72h-225v62q0 12 -13 12h-235 q-55 0 -103 11.5t-91 37t-68 74t-25 115.5q0 121 87 181t210 60q106 0 147 27.5t46 99.5q0 78 -61 105.5t-181 27.5h-117v220h111q202 0 202 126q0 46 -28 68.5t-90 22.5q-121 0 -334 -140z" />
<glyph unicode="&#x470;" horiz-adv-x="1576" d="M0 1489h279l229 -705q37 -112 94 -112v817h285v-823q159 0 219.5 92t60.5 317v414h279v-455q0 -295 -132 -443t-427 -163v-428h-285v430q-126 17 -220.5 98t-137.5 199z" />
<glyph unicode="&#x471;" horiz-adv-x="1380" d="M23 1075h262l182 -778q19 -80 55 -104v882h287v-895q118 18 160.5 95t42.5 253v547h262v-540q0 -180 -29 -275q-39 -117 -152 -203.5t-284 -97.5v-358h-287v358q-123 9 -197 81.5t-108 209.5z" />
<glyph unicode="&#x472;" horiz-adv-x="1406" d="M100 739q0 190 31 328t100.5 237.5t186.5 149t284 49.5t284 -49.5t187 -149t101 -237.5t31 -328q0 -189 -31 -324.5t-101 -232.5t-187 -144.5t-284 -47.5t-284 47.5t-186.5 144.5t-100.5 232.5t-31 324.5zM383 737q0 -265 73 -387.5t246 -122.5q136 0 209 73.5t95 227.5 h-336v209h-287zM397 946h336v-209l289 2q0 266 -74 396.5t-246 130.5q-176 0 -247 -136q-44 -80 -58 -184z" />
<glyph unicode="&#x473;" horiz-adv-x="1165" d="M84 528q0 -258 120.5 -400t377.5 -142q260 0 377.5 140t117.5 402q0 271 -117.5 415t-377.5 144q-498 0 -498 -559zM367 528h186v-178h219q-39 -139 -190 -139q-112 0 -164 70q-51 68 -51 247zM383 707q27 81 72.5 118t126.5 37q107 0 160 -79t53 -255h-179v179h-233z " />
<glyph unicode="&#x474;" horiz-adv-x="1433" d="M14 1489h289l371 -1157l284 876q18 54 32.5 90.5t39.5 77t53.5 64t71 39.5t96.5 16q90 0 273 -78l-41 -213q-112 53 -170 53q-32 1 -50 -23t-40 -87l-383 -1147h-332z" />
<glyph unicode="&#x475;" horiz-adv-x="1064" d="M14 1075h262l232 -735l166 520q15 47 29.5 79t39.5 67t62.5 53t87.5 18q40 0 75 -9.5t82 -29.5t70 -28l-37 -189q-81 37 -118 37q-24 0 -34.5 -11t-21.5 -44l-264 -803h-270z" />
<glyph unicode="&#x476;" horiz-adv-x="1433" d="M14 1489h289l371 -1157l284 876q18 54 32.5 90.5t39.5 77t53.5 64t71 39.5t96.5 16q90 0 273 -78l-41 -213q-112 53 -170 53q-32 1 -50 -23t-40 -87l-383 -1147h-332zM236 1888h282l127 -260h-194zM582 1888h282l127 -260h-194z" />
<glyph unicode="&#x477;" horiz-adv-x="1064" d="M14 1075h262l232 -735l166 520q15 47 29.5 79t39.5 67t62.5 53t87.5 18q40 0 75 -9.5t82 -29.5t70 -28l-37 -189q-81 37 -118 37q-24 0 -34.5 -11t-21.5 -44l-264 -803h-270zM78 1489h282l127 -260h-194zM424 1489h283l127 -260h-195z" />
<glyph unicode="&#x478;" horiz-adv-x="2519" d="M100 739q0 190 31 328t100.5 237.5t186.5 149t284 49.5t284 -49.5t187 -149t101 -237.5t31 -328q0 -189 -31 -324.5t-101 -232.5t-187 -144.5t-284 -47.5q-168 1 -284.5 48t-186 143.5t-100.5 232t-31 325.5zM383 739q0 -266 73 -389t246 -123t246.5 123t73.5 389 t-74 396.5t-246 130.5t-245.5 -130t-73.5 -397zM1421 365v649l275 82v-746q0 -52 31 -74t96 -22q86 0 264 53v768h272v-1128q0 -115 -59 -193.5t-159 -114.5t-234 -36q-175 0 -383 47v217q71 -18 155.5 -28.5t132.5 -10.5q58 0 96 3t75 12t58 26t33.5 45.5t12.5 69.5v106 q-195 -65 -303 -65q-162 0 -262.5 82.5t-100.5 257.5z" />
<glyph unicode="&#x479;" horiz-adv-x="2293" d="M84 528q0 -258 120.5 -400t377.5 -142q260 0 377.5 140t117.5 402q0 271 -117.5 415t-377.5 144q-498 0 -498 -559zM367 528q0 179 51 256.5t164 77.5q107 0 160 -79t53 -255q0 -172 -52.5 -244.5t-160.5 -72.5q-115 0 -165 71.5t-50 245.5zM1188 365v649l274 82v-746 q0 -52 31 -74t96 -22q86 0 264 53v768h273v-1128q0 -170 -123.5 -257t-329.5 -87q-175 0 -383 47v217q71 -18 156 -28.5t133 -10.5q58 0 96 3t75 12t57.5 26t33 45.5t12.5 69.5v106q-195 -65 -303 -65q-162 0 -262 82.5t-100 257.5z" />
<glyph unicode="&#x47a;" horiz-adv-x="1576" d="M59 735q0 307 153 510t421 242q23 37 63 57.5t86 20.5t87.5 -21t64.5 -57q272 -53 423.5 -249.5t151.5 -502.5q0 -257 -110.5 -435.5t-313.5 -258.5q-66 -25 -153 -41q-56 -72 -150 -72q-93 0 -147 72q-268 40 -422 236.5t-154 498.5zM342 735q0 -179 66 -304.5 t188 -184.5q24 -12 66 -23q46 43 120 43t125 -45q320 73 320 514q0 205 -86 347.5t-238 183.5q-50 -41 -121 -41q-70 0 -120 41q-150 -41 -235 -184t-85 -347z" />
<glyph unicode="&#x47b;" horiz-adv-x="1249" d="M63 528q0 -182 88 -310.5t244 -188.5q38 -14 78 -23q23 -40 64 -61t90 -21q106 0 155 84q188 51 293 183t105 337q0 216 -107 356t-295 187q-52 78 -151 78q-48 0 -90 -20.5t-60 -57.5q-192 -44 -303 -184.5t-111 -358.5zM332 528q0 173 88 267q43 43 86 65 q49 -43 121 -43q71 0 116 39q74 -37 121 -123.5t47 -204.5q0 -116 -45 -195t-123 -118q-47 41 -116 41q-72 0 -121 -43q-174 80 -174 315z" />
<glyph unicode="&#x47c;" horiz-adv-x="2222" d="M90 741q0 179 33 315.5t102.5 237t185.5 153t275 52.5q166 0 326 -63v-209q-164 49 -291 49q-342 0 -342 -535q0 -164 34.5 -279t112.5 -181t197 -66q174 9 383 111q213 -102 389 -111q174 0 258 138.5t84 387.5q0 535 -342 535q-130 0 -295 -49v207q186 65 330 65 q160 0 275.5 -52.5t184.5 -153t101.5 -237t32.5 -315.5q0 -135 -20 -247t-64.5 -206.5t-112.5 -159.5t-168.5 -101.5t-228.5 -36.5q-196 0 -424 127q-114 -63 -211.5 -95t-208.5 -32q-158 0 -274.5 55t-186 157t-102.5 236t-33 303zM594 1675l2 11q17 83 46 146t76 112.5 t117.5 75.5t163.5 26q81 -1 154.5 -25t181.5 -79q104 -55 185 -79t166 -24v-164q-153 0 -375 105l-178 -199h-215l126 240h183q-110 55 -240 55q-90 0 -137 -46.5t-74 -154.5h-182z" />
<glyph unicode="&#x47d;" horiz-adv-x="1843" d="M90 537q0 126 26 224.5t81.5 172.5t147 113.5t216.5 39.5q134 0 297 -61v-207q-145 45 -246 45q-71 0 -118.5 -22.5t-72.5 -68t-34.5 -101t-9.5 -135.5q0 -87 9.5 -144.5t35 -102t72.5 -65t120 -20.5q77 0 156 28.5t143 85.5q137 -114 301 -114q73 0 120 20.5t73 65 t35.5 102t9.5 144.5q0 80 -9.5 135.5t-34.5 101t-72.5 68t-118.5 22.5q-99 0 -244 -45v207q163 61 295 61q125 0 216.5 -39.5t147 -113.5t81.5 -172.5t26 -224.5q0 -553 -467 -553q-198 0 -359 118q-164 -118 -356 -118q-467 0 -467 553zM393 1378l2 11q17 83 46 146 t76 112.5t118 75.5t164 26q81 -1 154.5 -25t181.5 -79q105 -55 185 -79t165 -24v-164q-101 0 -176.5 20.5t-173.5 69.5l-197 -239h-215l127 260h246q-4 0 -4 2q-56 30 -91.5 45.5t-93.5 29t-121 13.5q-99 0 -151.5 -47t-79.5 -154h-162z" />
<glyph unicode="&#x47e;" horiz-adv-x="2222" d="M94 741q0 179 33 315.5t102.5 237t185.5 153t275 52.5q166 0 326 -63v-209q-164 49 -291 49q-342 0 -342 -535q0 -164 34.5 -279t112.5 -181t197 -66q122 7 242 51v520h274v-518q133 -47 256 -53q174 0 258 138.5t84 387.5q0 535 -342 535q-130 0 -295 -49v207 q186 65 330 65q160 0 275.5 -52.5t184.5 -153t101.5 -237t32.5 -315.5q0 -135 -20 -247t-64.5 -206.5t-112.5 -159.5t-168.5 -101.5t-228.5 -36.5q-196 0 -424 127q-114 -63 -211.5 -95t-208.5 -32q-158 0 -274.5 55t-186 157t-102.5 236t-33 303zM518 1839h1174l-113 -258 h-61l-58 125h-266l-59 -125h-60l-59 125h-266l-60 -125h-59z" />
<glyph unicode="&#x47f;" horiz-adv-x="1310" d="M18 1075h271q5 -306 133 -684q13 44 39.5 124t32.5 99q-45 200 -60 461h271q2 -132 31.5 -333t94.5 -367q38 128 109.5 363t101.5 337h263l-338 -1075h-248q-80 211 -101 281q-14 -42 -46 -143t-44 -138h-225q-93 245 -148.5 410t-83.5 286.5t-37.5 194.5t-15.5 184z M61 1489h1174l-113 -258h-61l-57 125h-267l-59 -125h-60l-59 125h-266l-60 -125h-59z" />
<glyph unicode="&#x480;" horiz-adv-x="1189" d="M78 748q0 179 32.5 315.5t101.5 236.5t183.5 151.5t272.5 51.5q218 0 450 -73v-216q-131 29 -222 40.5t-196 11.5q-175 0 -255 -131t-80 -387q0 -521 337 -521q176 0 416 58v-619h-272v336q-92 -12 -178 -12q-126 0 -225.5 37t-167.5 103t-112.5 161.5t-64.5 208.5 t-20 248z" />
<glyph unicode="&#x481;" horiz-adv-x="976" d="M78 539q0 126 26 224.5t81 172t146 112.5t214 39q200 0 354 -63v-215q-155 47 -303 47q-72 0 -119 -21t-72.5 -64.5t-35 -98t-9.5 -133.5q0 -85 9.5 -141.5t35.5 -99.5t73 -63t120 -20q144 0 317 49v-598h-272v322q-70 -4 -102 -4q-463 0 -463 555z" />
<glyph unicode="&#x482;" horiz-adv-x="1064" d="M23 662l79 186l304 -129l69 155l-307 134l78 182l311 -133l197 432h223l-232 -512l308 -129l-78 -184l-313 133l-72 -158l317 -135l-80 -187l-321 138l-205 -455h-221l242 532z" />
<glyph unicode="&#x483;" horiz-adv-x="0" d="M-348 1579q0 131 40.5 186.5t143.5 55.5h209q70 0 70 94h182q0 -127 -41 -185.5t-141 -58.5h-211q-68 0 -68 -92h-184z" />
<glyph unicode="&#x484;" horiz-adv-x="0" d="M-338 1612v168h127q35 0 163.5 49t162.5 49q233 0 233 -266h-123q-11 139 -86 139q-12 0 -25 -3t-32.5 -13t-27.5 -14t-35 -20.5t-31 -19.5q-117 -69 -199 -69h-127z" />
<glyph unicode="&#x485;" horiz-adv-x="0" d="M-141 1937l141 -325h170l-82 325h-229z" />
<glyph unicode="&#x486;" horiz-adv-x="0" d="M-152 1612l82 325h230l-142 -325h-170z" />
<glyph unicode="&#x487;" horiz-adv-x="0" d="M-549 1675l2 11q17 83 46 146t76 112.5t118 75.5t164 26q81 -1 154.5 -25t181.5 -79q105 -55 185 -79t165 -24v-164q-111 0 -191 25t-202 88q-56 30 -91.5 45.5t-93.5 29t-121 13.5q-90 0 -137 -46.5t-74 -154.5h-182z" />
<glyph unicode="&#x488;" horiz-adv-x="0" d="M-1161 416h151q7 49 41.5 71.5t77.5 22.5q42 0 77 -22.5t46 -71.5h154q-5 95 -80.5 163t-194.5 68q-121 0 -196.5 -68t-75.5 -163zM-1014 -104h152q7 49 41.5 71.5t77.5 22.5q41 0 76 -22.5t46 -71.5h154q-5 95 -80 163t-194 68q-121 0 -197 -68t-76 -163zM-1014 938h152 q7 49 41.5 71.5t77.5 22.5q41 0 76 -22.5t46 -71.5h154q-5 95 -80 163t-194 68q-121 0 -197 -68t-76 -163zM-270 -399h151q7 49 41.5 71.5t77.5 22.5q42 0 77 -22.5t46 -71.5h153q-5 95 -80 163t-194 68q-121 0 -196.5 -68t-75.5 -163zM-270 1255h151q7 49 41.5 72t77.5 23 q41 0 76.5 -23t46.5 -72h153q-5 95 -80.5 163.5t-193.5 68.5q-121 0 -196.5 -68t-75.5 -164zM467 -104h151q7 49 41.5 71.5t77.5 22.5q42 0 77 -22.5t46 -71.5h154q-5 95 -80.5 163t-194.5 68q-121 0 -196.5 -68t-75.5 -163zM467 938h151q7 49 41.5 71.5t77.5 22.5 q42 0 77 -22.5t46 -71.5h154q-5 95 -80.5 163t-194.5 68q-121 0 -196.5 -68t-75.5 -163zM616 416h152q7 49 41.5 71.5t77.5 22.5q42 0 77 -22.5t46 -71.5h153q-5 95 -80 163t-194 68q-121 0 -197 -68t-76 -163z" />
<glyph unicode="&#x489;" horiz-adv-x="0" d="M-1040 631h67q0 -46 24.5 -74.5t61.5 -28.5v103h172v-185h-143q-83 0 -132.5 45t-49.5 140zM-786 1159q0 64 55 125l51 -43q-31 -39 -31 -74q0 -39 29 -59l68 78l131 -113l-121 -139l-109 92q-73 63 -73 133zM-715 -96l45 49q36 -33 74 -33q32 0 59 27l-75 69l116 127 l138 -125l-99 -104q-63 -70 -131 -70q-61 0 -127 60zM-100 -82h184v-143q0 -84 -44.5 -133.5t-139.5 -49.5v68q46 0 74 24.5t28 61.5h-102v172zM-100 1161v144q0 83 44.5 132.5t139.5 49.5v-68q-46 0 -74 -24.5t-28 -61.5h102v-172h-184zM344 1061l96 104q63 70 131 70 q64 0 129 -59l-45 -50q-41 33 -75 33t-60 -29l76 -67l-115 -127zM485 4l121 141l109 -92q73 -67 73 -135q0 -62 -55 -125l-51 45q31 39 31 72q0 35 -29 61l-68 -77zM717 446v185h143q83 0 132.5 -45t49.5 -140h-67q0 46 -24.5 74.5t-61.5 28.5v-103h-172z" />
<glyph unicode="&#x48a;" horiz-adv-x="1437" d="M135 0h387l508 1186v-1186h86l-153 -334h270l205 438h-135v1385h-388l-507 -1186v1186h-273v-1489zM426 1851h192q3 -37 29 -59.5t64 -22.5q36 0 62.5 22t33.5 60h194q-5 -98 -81.5 -169.5t-206.5 -71.5q-133 0 -210 71.5t-77 169.5z" />
<glyph unicode="&#x48b;" horiz-adv-x="1214" d="M139 0v1075h275v-674l340 674h315v-971h145l-204 -438h-271l156 334h-98v680l-344 -680h-314zM301 1499h193q3 -38 28.5 -60t63.5 -22q36 0 62.5 22t33.5 60h195q-5 -98 -82 -170t-207 -72q-133 0 -210 71.5t-77 170.5z" />
<glyph unicode="&#x48c;" horiz-adv-x="1198" d="M-4 1106v227h147v156h285v-156h203v-227h-203v-236h180q124 0 215 -23t159 -73.5t102 -137.5t34 -210q0 -107 -23.5 -183.5t-63.5 -123t-106.5 -73.5t-140 -36.5t-176.5 -9.5h-465v1106h-147zM428 223h174q62 0 101.5 7.5t70 28.5t44 62t13.5 105q0 66 -13.5 108 t-44.5 64t-69.5 29.5t-99.5 7.5h-176v-412z" />
<glyph unicode="&#x48d;" horiz-adv-x="1105" d="M-4 768v186h143v121h273v-121h178v-186h-178v-104h213q71 0 126.5 -7.5t111 -29.5t92 -58.5t59 -98.5t22.5 -146q0 -83 -23 -143.5t-58.5 -95t-92 -54t-110.5 -25.5t-127 -6h-486v768h-143zM412 215h206q77 0 110.5 23t33.5 86q0 65 -33.5 91.5t-107.5 26.5h-209v-227z " />
<glyph unicode="&#x48e;" horiz-adv-x="1314" d="M141 0v1489h572q257 0 378 -123t121 -387t-122 -389q-66 -69 -164 -98l82 -175h-250l-70 146h-264v-463h-283zM424 700h154l-46 97h250l33 -70q115 62 115 252q0 137 -59 204.5t-181 67.5h-266v-551z" />
<glyph unicode="&#x48f;" horiz-adv-x="1173" d="M131 -401v1415l275 82v-66q121 57 233 57q101 0 178.5 -25t129 -70t84.5 -112.5t47 -148.5t14 -182q0 -402 -238 -522h-2l88 -187h-250l-69 146q-126 7 -215 37v-342zM406 242q63 -20 106 -25l-47 102h250l24 -55q70 84 70 285q0 73 -7.5 125.5t-27.5 96.5t-59 66.5 t-97 22.5q-100 0 -212 -51v-567z" />
<glyph unicode="&#x490;" horiz-adv-x="1105" d="M123 0v1489h602v147h279v-385h-598v-1251h-283z" />
<glyph unicode="&#x491;" horiz-adv-x="942" d="M123 0v1075h440v148h279v-385h-436v-838h-283z" />
<glyph unicode="&#x492;" horiz-adv-x="1105" d="M0 633v237h129v619h885v-238h-602v-381h329v-237h-329v-633h-283v633h-129z" />
<glyph unicode="&#x493;" horiz-adv-x="942" d="M0 457v196h129v422h713v-217h-441v-205h199v-196h-199v-457h-272v457h-129z" />
<glyph unicode="&#x494;" horiz-adv-x="1187" d="M121 0v1489h883v-238h-607v-485q175 82 348 82q166 0 249 -93.5t83 -250.5v-563q0 -163 -81.5 -250.5t-266.5 -87.5q-109 0 -240 41v206q107 -22 193 -22q67 0 95 27t28 90v559q0 62 -30.5 89.5t-94.5 27.5q-94 0 -283 -76v-545h-276z" />
<glyph unicode="&#x495;" horiz-adv-x="1169" d="M131 0v1075h711v-227h-434v-297q162 78 337 78q166 0 249 -93.5t83 -250.5v-344q0 -163 -81 -250.5t-265 -87.5q-112 0 -231 39v206q79 -20 182 -20q68 0 98.5 27t30.5 90v350q0 117 -131 117q-84 0 -272 -72v-340h-277z" />
<glyph unicode="&#x496;" horiz-adv-x="1904" d="M23 0l217 618q32 90 99 145.5t163 59.5l-479 666h325l385 -602v602h287v-600l387 600h326l-482 -664q95 0 165.5 -56.5t101.5 -145.5l176 -519h135v-436h-283v332h-100l-180 547q-19 55 -46 82.5t-77 27.5h-123v-657h-287v657h-108q-48 0 -84 -29t-54 -85l-180 -543h-284 z" />
<glyph unicode="&#x497;" horiz-adv-x="1597" d="M2 1075h311l262 -360v360h269v-362l260 362h313l-399 -489q87 -5 146.5 -51t95.5 -142l108 -289h150v-436h-283v332h-107l-114 336q-23 66 -56 88t-81 22h-33v-446h-269v446h-30q-48 0 -80 -22t-55 -88l-117 -336h-277l146 393q33 90 95 139t144 54z" />
<glyph unicode="&#x498;" horiz-adv-x="1112" d="M68 94v219q255 -104 446 -104q137 0 196 51t64 162q0 69 -25.5 116.5t-75.5 73.5t-112.5 36.5t-148.5 10.5h-107v228h107q47 0 87.5 5.5t82.5 20.5t71.5 39t48.5 65t19 95q0 80 -47 119t-160 43q-163 0 -397 -113v219q199 123 397 123q246 0 364.5 -93t118.5 -292 q0 -114 -49.5 -190.5t-146.5 -128.5q123 -43 188.5 -134.5t65.5 -244.5q0 -205 -111 -312t-317 -122q47 -47 73.5 -104.5t26.5 -110.5q0 -76 -48.5 -125t-141.5 -49q-40 0 -93 13.5t-86 35.5v137q61 -35 103 -35q53 0 53 72q0 42 -23 87t-65 79q-177 21 -358 108z" />
<glyph unicode="&#x499;" horiz-adv-x="860" d="M59 88v211q228 -104 338 -104q150 0 150 116q0 76 -57 104.5t-162 28.5h-109v213h109q34 0 63 5t57.5 18t45 39t16.5 63q0 78 -111 78q-60 0 -143.5 -28t-165.5 -87v211q70 57 157.5 89t170.5 32q174 0 259 -72t85 -221q0 -67 -38 -121.5t-93 -87.5q170 -75 170 -264 q0 -144 -72.5 -226t-206.5 -101q47 -47 73 -104t26 -109q0 -76 -49 -125t-142 -49q-40 0 -92.5 13.5t-85.5 35.5v137q36 -21 56 -28t46 -7q54 0 54 72q0 44 -24.5 89t-66.5 79q-126 20 -258 100z" />
<glyph unicode="&#x49a;" horiz-adv-x="1372" d="M113 0v1489h282v-553l549 553h361l-725 -737l628 -648h103v-436h-283v332h-82l-551 565v-565h-282z" />
<glyph unicode="&#x49b;" horiz-adv-x="1167" d="M104 0v1075h275v-356l366 356h359l-545 -526l438 -445h123v-436h-282v332h-86l-373 373v-373h-275z" />
<glyph unicode="&#x49c;" horiz-adv-x="1611" d="M113 0v1489h282v-635h68v289h104v-289h41l633 635h361l-725 -737l731 -752h-365l-641 657h-35v-288h-104v288h-68v-657h-282z" />
<glyph unicode="&#x49d;" horiz-adv-x="1413" d="M104 0v1075h275v-420h70v187h104v-187h39l434 420h358l-542 -524v-4l540 -547h-350l-459 459h-20v-187h-104v187h-70v-459h-275z" />
<glyph unicode="&#x49e;" horiz-adv-x="1294" d="M0 1169v162h113v158h282v-158h99v-162h-99v-233l549 553h361l-725 -737l731 -752h-365l-551 565v-565h-282v1169h-113z" />
<glyph unicode="&#x49f;" horiz-adv-x="1081" d="M0 1169v162h104v127l275 82v-209h115v-162h-115v-450l366 354h359l-545 -524l543 -549h-350l-373 373v-373h-275v1169h-104z" />
<glyph unicode="&#x4a0;" horiz-adv-x="1392" d="M-4 1262v227h493v-557l553 557h336l-725 -737l731 -752h-340l-555 571v-571h-282v1262h-211z" />
<glyph unicode="&#x4a1;" horiz-adv-x="1187" d="M-4 848v227h465v-381l387 381h326l-527 -526l537 -549h-330l-393 387v-387h-275v848h-190z" />
<glyph unicode="&#x4a2;" horiz-adv-x="1433" d="M133 0v1489h283v-617h571v617h283v-1385h96v-436h-283v332h-96v635h-571v-635h-283z" />
<glyph unicode="&#x4a3;" horiz-adv-x="1208" d="M117 0v1075h282v-399h398v399h282v-971h72v-436h-283v332h-71v438h-398v-438h-282z" />
<glyph unicode="&#x4a4;" horiz-adv-x="1945" d="M133 0v1489h283v-617h571v617h926v-238h-643v-1251h-283v635h-571v-635h-283z" />
<glyph unicode="&#x4a5;" horiz-adv-x="1556" d="M117 0v1075h282v-399h398v399h735v-237h-453v-838h-282v438h-398v-438h-282z" />
<glyph unicode="&#x4a6;" horiz-adv-x="2068" d="M133 0h283v1251h551v-1251h282v770q219 90 322 90q64 0 94.5 -27.5t30.5 -89.5v-798q0 -64 -28 -91.5t-95 -27.5q-80 0 -137 8v-213q88 -18 174 -18q192 0 275 86t83 252v802q0 157 -83 250.5t-249 93.5q-189 0 -387 -100v502h-1116v-1489z" />
<glyph unicode="&#x4a7;" horiz-adv-x="1822" d="M133 0h283v838h352v-838h283v324q197 79 295 79q64 0 94 -27t30 -89v-342q0 -64 -27.5 -91.5t-94.5 -27.5q-81 0 -138 8v-213q88 -18 174 -18q192 0 275.5 86t83.5 252v346q0 157 -83 250.5t-249 93.5q-92 0 -175.5 -21.5t-184.5 -64.5v530h-918v-1075z" />
<glyph unicode="&#x4a8;" horiz-adv-x="1454" d="M78 758q0 123 17 229.5t56.5 202.5t100 164t152.5 107.5t208 39.5q99 0 211 -49l-28 -170q86 61 196 61q86 0 151.5 -30t107.5 -81.5t68.5 -129t37 -164.5t10.5 -195q0 -144 -42 -289.5t-107 -230.5q131 0 239 31l31 -217q-119 -45 -234 -45q-131 0 -264 59 q-146 -61 -276 -61q-131 0 -238.5 42.5t-180 114.5t-122 171t-72 209t-22.5 231zM358 758q0 -77 9 -148t34 -145t63.5 -128.5t102.5 -89t146 -34.5q37 0 51 2q-68 92 -108 239t-40 296q0 346 138 495q-103 23 -142 23q-71 0 -123 -44t-79.5 -120t-39.5 -161.5t-12 -184.5z M883 754q0 -311 108 -439q56 65 86.5 178.5t30.5 251.5q0 381 -117 381q-58 0 -83 -93t-25 -279z" />
<glyph unicode="&#x4a9;" horiz-adv-x="1064" d="M72 535q0 113 20.5 206t64 169.5t120.5 119.5t182 43q42 0 131 -26l-23 -134q64 52 156 52q278 0 278 -437q0 -90 -24.5 -184t-61.5 -164q71 4 142 37l28 -194q-98 -41 -184 -41q-106 0 -180 47q-80 -47 -195 -47q-94 0 -170.5 30.5t-128.5 82.5t-87.5 123t-51.5 150.5 t-16 166.5zM299 535q0 -60 11.5 -118t36 -113.5t71.5 -89.5t110 -34q-82 134 -82 350q0 221 76 332q-31 8 -63 8q-45 0 -77.5 -29t-49.5 -78.5t-25 -106t-8 -121.5zM664 532q0 -191 59 -286q63 97 63 282q0 236 -63 236q-59 0 -59 -232z" />
<glyph unicode="&#x4aa;" horiz-adv-x="1189" d="M78 748q0 179 32.5 315.5t101.5 236.5t183.5 151.5t272.5 51.5q218 0 450 -73v-216q-131 29 -222 40.5t-196 11.5q-175 0 -255 -131t-80 -387q0 -521 337 -521q176 0 416 58v-219q-208 -64 -370 -72q48 -57 75 -108.5t27 -114.5q0 -76 -49 -125t-142 -49 q-40 0 -92.5 13.5t-85.5 35.5v137q61 -35 103 -35q53 0 53 72q0 76 -84 180q-126 18 -219 80.5t-148 162.5t-81.5 225t-26.5 280z" />
<glyph unicode="&#x4ab;" horiz-adv-x="976" d="M78 539q0 126 26 224.5t81 172t146 112.5t214 39q200 0 354 -63v-215q-155 47 -303 47q-72 0 -119 -21t-72.5 -64.5t-35 -98t-9.5 -133.5q0 -85 9.5 -141.5t35.5 -99.5t73 -63t120 -20q144 0 317 49v-215q-136 -52 -282 -61q29 -37 47 -64t33.5 -69t15.5 -84 q0 -76 -48.5 -125t-141.5 -49q-40 0 -93 13.5t-86 35.5v137q61 -35 103 -35q53 0 53 72q0 78 -80 174q-358 57 -358 545z" />
<glyph unicode="&#x4ac;" horiz-adv-x="1325" d="M49 1251v238h1245l-92 -238h-414v-1147h152v-436h-283v332h-151v1251h-457z" />
<glyph unicode="&#x4ad;" horiz-adv-x="901" d="M25 840v237h895l-93 -237h-237v-736h143v-436h-282v332h-144v840h-282z" />
<glyph unicode="&#x4ae;" horiz-adv-x="1314" d="M-6 1489h311l352 -576l353 576h311l-520 -840v-649h-285v651z" />
<glyph unicode="&#x4af;" horiz-adv-x="1187" d="M35 1075h287l272 -639l274 639h287l-424 -921v-555h-272v557z" />
<glyph unicode="&#x4b0;" horiz-adv-x="1314" d="M-6 1489h311l352 -576l353 576h311l-436 -692h205v-238h-289v-559h-285v559h-291v238h205z" />
<glyph unicode="&#x4b1;" horiz-adv-x="1187" d="M35 1075h287l272 -639l274 639h287l-416 -901h289v-227h-297v-348h-272v348h-295v227h287z" />
<glyph unicode="&#x4b2;" horiz-adv-x="1331" d="M14 0l480 743l-480 746h326l315 -494l320 494h321l-479 -744l412 -641h74v-436h-283v332h-47l-318 492l-317 -492h-324z" />
<glyph unicode="&#x4b3;" horiz-adv-x="1146" d="M-2 0l393 537l-393 538h309l238 -327l239 327h310l-394 -538l316 -433h104v-436h-282v332h-54l-239 326l-238 -326h-309z" />
<glyph unicode="&#x4b4;" horiz-adv-x="1781" d="M31 1251v238h1222l-90 -238h-391v-1013h578v1251h282v-1385h92v-436h-282v332h-953v1251h-458z" />
<glyph unicode="&#x4b5;" horiz-adv-x="1392" d="M20 868v207h873l-80 -207h-195v-630h336v837h283v-971h96v-436h-282v332h-715v868h-316z" />
<glyph unicode="&#x4b6;" horiz-adv-x="1290" d="M129 737v690l274 82v-786q0 -52 31 -74t96 -22q115 0 285 61v801h272v-1385h160v-436h-282v332h-150v471q-199 -74 -323 -74q-162 0 -262.5 82.5t-100.5 257.5z" />
<glyph unicode="&#x4b7;" horiz-adv-x="1290" d="M129 616v396l274 82v-492q0 -52 31 -74t96 -22q115 0 285 61v506h272v-969h158v-436h-282v332h-148v350q-199 -74 -323 -74q-162 0 -262.5 82.5t-100.5 257.5z" />
<glyph unicode="&#x4b8;" horiz-adv-x="1228" d="M129 737v690l274 82v-786q0 -96 105 -96v170h186v-156q59 11 121 47v801h272v-1489h-272v471q-79 -35 -121 -47v-238h-186v213q-18 -2 -57 -2q-156 0 -239 80.5t-83 259.5z" />
<glyph unicode="&#x4b9;" horiz-adv-x="1228" d="M129 616v398l274 82v-494q0 -96 105 -96v170h186v-146q35 9 121 37v508h272v-1075h-272v350q-79 -35 -121 -47v-237h-186v213q-27 -3 -57 -3q-66 0 -122 19t-101.5 57.5t-72 106t-26.5 157.5z" />
<glyph unicode="&#x4ba;" horiz-adv-x="1200" d="M131 0v1458l275 82v-526q174 71 325 71q167 0 253.5 -95.5t86.5 -250.5v-739h-274v739q0 62 -32 90.5t-99 28.5q-69 0 -260 -72v-786h-275z" />
<glyph unicode="&#x4bb;" horiz-adv-x="1064" d="M131 0v1458l275 82v-481q123 26 198 26q167 0 253.5 -95.5t86.5 -250.5v-739h-274v739q0 62 -32 90.5t-99 28.5q-23 0 -133 -29v-829h-275z" />
<glyph unicode="&#x4bc;" horiz-adv-x="1781" d="M41 870q0 78 18 164h201q-14 -58 -14 -119q0 -46 21.5 -62.5t74.5 -16.5h6q11 176 62.5 304t139.5 206t203.5 114.5t264.5 36.5q314 0 479.5 -173t165.5 -548v-37q0 -31 -2 -47l-2 -88h-1026q6 -113 33.5 -188t80 -117t120.5 -59t167 -17q275 0 572 94v-223 q-142 -52 -301 -80t-297 -28q-151 0 -264.5 32.5t-199 104.5t-134 192t-60.5 289h-22q-129 0 -208 64.5t-79 201.5zM633 836h756q-8 221 -96.5 323.5t-274.5 102.5q-364 0 -385 -426z" />
<glyph unicode="&#x4bd;" horiz-adv-x="1454" d="M51 668q0 73 19 163h200q-14 -58 -14 -118q0 -47 22 -65.5t74 -18.5h29q17 240 137.5 349t353.5 109q249 0 363.5 -124t114.5 -404q0 -75 -9 -151h-690q11 -103 63.5 -151t166.5 -48q194 0 430 65v-208q-230 -80 -447 -80q-159 0 -259 45t-152 135.5t-72 241.5h-43 q-131 0 -209 62t-78 198zM651 629h432q-6 123 -53 180t-158 57q-114 0 -162 -56.5t-59 -180.5z" />
<glyph unicode="&#x4be;" horiz-adv-x="1781" d="M41 870q0 78 18 164h201q-14 -58 -14 -119q0 -46 21.5 -62.5t74.5 -16.5h6q11 176 62.5 304t139.5 206t203.5 114.5t264.5 36.5q314 0 479.5 -173t165.5 -548v-37q0 -31 -2 -47l-2 -88h-1026q6 -113 33.5 -188t80 -117t120.5 -59t167 -17q275 0 572 94v-223 q-216 -77 -488 -104v-262h-186v262q-136 10 -236 47.5t-175 109t-117 185t-54 272.5h-22q-129 0 -208 64.5t-79 201.5zM633 836h756q-8 221 -96.5 323.5t-274.5 102.5q-364 0 -385 -426z" />
<glyph unicode="&#x4bf;" horiz-adv-x="1454" d="M51 668q0 73 19 163h200q-14 -58 -14 -118q0 -47 22 -65.5t74 -18.5h29q17 240 137.5 349t353.5 109q249 0 363.5 -124t114.5 -404q0 -75 -9 -151h-690q11 -103 63.5 -151t166.5 -48q194 0 430 65v-208q-203 -67 -344 -74v-264h-187v262q-193 15 -282.5 114.5 t-116.5 303.5h-43q-131 0 -209 62t-78 198zM651 629h432q-6 123 -53 180t-158 57q-114 0 -162 -56.5t-59 -180.5z" />
<glyph unicode="&#x4c0;" horiz-adv-x="495" d="M106 0v1489h283v-1489h-283z" />
<glyph unicode="&#x4c1;" horiz-adv-x="1761" d="M23 0l217 618q32 90 99 145.5t163 59.5l-479 666h325l385 -602v602h287v-600l387 600h326l-482 -664q95 0 165.5 -56.5t101.5 -145.5l213 -623h-285l-180 547q-19 55 -46 82.5t-77 27.5h-123v-657h-287v657h-108q-48 0 -84 -29t-54 -85l-180 -543h-284zM588 1851h192 q3 -38 28.5 -60t63.5 -22q36 0 63 22t34 60h194q-5 -98 -81.5 -169.5t-207.5 -71.5q-133 0 -209.5 71.5t-76.5 169.5z" />
<glyph unicode="&#x4c2;" horiz-adv-x="1433" d="M2 1075h311l262 -360v360h269v-362l260 362h313l-399 -489q87 -5 146.5 -51t95.5 -142l147 -393h-279l-114 336q-23 66 -56 88t-81 22h-33v-446h-269v446h-30q-48 0 -80 -22t-55 -88l-117 -336h-277l146 393q33 90 95 139t144 54zM420 1499h192q3 -37 29 -59.5t64 -22.5 q36 0 62.5 22t33.5 60h194q-5 -98 -81.5 -170t-206.5 -72q-133 0 -210 71.5t-77 170.5z" />
<glyph unicode="&#x4c3;" horiz-adv-x="1294" d="M123 0v1489h258v-606l604 606h332l-723 -735l545 -502q59 -56 95 -124t36 -132q0 -104 -89.5 -207t-232.5 -176l-119 164q213 130 213 198q0 36 -49 82l-612 578v-635h-258z" />
<glyph unicode="&#x4c4;" horiz-adv-x="1126" d="M137 0v1075h248v-389l403 389h326l-543 -524l375 -324q141 -125 141 -264q0 -99 -84.5 -193.5t-224.5 -170.5l-116 159q104 66 154 111t50 80t-51 86l-430 385v-420h-248z" />
<glyph unicode="&#x4c5;" horiz-adv-x="1566" d="M25 33v213q162 -27 264 -27q66 0 91.5 28.5t25.5 106.5v1135h925v-1385h168l-205 -438h-270l156 334h-133v1255h-359v-929q0 -340 -346 -340q-67 0 -160.5 13t-156.5 34z" />
<glyph unicode="&#x4c6;" horiz-adv-x="1228" d="M2 18v181q86 -19 119 -19q48 0 73 19t25 69v807h782v-971h191l-205 -438h-270l155 334h-139v856h-258v-618q0 -124 -60 -187t-188 -63q-115 0 -225 30z" />
<glyph unicode="&#x4c7;" horiz-adv-x="1404" d="M133 0v1489h283v-617h571v617h283v-1548q0 -168 -85 -253t-282 -85q-99 0 -182 18v213q57 -8 137 -8q68 0 98.5 28t30.5 91v690h-571v-635h-283z" />
<glyph unicode="&#x4c8;" horiz-adv-x="1193" d="M117 0v1075h282v-399h398v399h282v-1134q0 -165 -82.5 -251.5t-271.5 -86.5q-121 0 -215 32v199q72 -10 158 -10q68 0 98.5 28t30.5 91v495h-398v-438h-282z" />
<glyph unicode="&#x4c9;" horiz-adv-x="1413" d="M133 0v1489h283v-617h571v617h283v-1385h137l-205 -438h-270l155 334h-100v635h-571v-635h-283z" />
<glyph unicode="&#x4ca;" horiz-adv-x="1208" d="M117 0v1075h282v-399h398v399h282v-971h125l-205 -438h-270l156 334h-88v438h-398v-438h-282z" />
<glyph unicode="&#x4cb;" horiz-adv-x="1228" d="M129 737v690l274 82v-786q0 -52 31 -74t96 -22q115 0 285 61v801h272v-1489h-124v-332h-283v436h135v367q-199 -74 -323 -74q-162 0 -262.5 82.5t-100.5 257.5z" />
<glyph unicode="&#x4cc;" horiz-adv-x="1228" d="M129 616v396l274 82v-492q0 -52 31 -74t96 -22q115 0 285 61v506h272v-1073h-122v-332h-283v436h133v246q-199 -74 -323 -74q-162 0 -262.5 82.5t-100.5 257.5z" />
<glyph unicode="&#x4cd;" horiz-adv-x="1761" d="M133 0v1489h434l305 -1208l304 1208h434v-1385h139l-205 -438h-270l156 334h-82v1182l-293 -1127h-367l-293 1127v-1182h-262z" />
<glyph unicode="&#x4ce;" horiz-adv-x="1331" d="M109 0v1075h378l156 -708l156 708h379v-971h149l-205 -438h-270l156 334h-82v674l-142 -637h-284l-138 633v-670h-253z" />
<glyph unicode="&#x4cf;" horiz-adv-x="495" d="M106 0v1489h283v-1489h-283z" />
<glyph unicode="&#x4d0;" horiz-adv-x="1333" d="M12 0l484 1489h346l481 -1489h-287l-112 358h-514l-113 -358h-285zM387 1851h193q3 -38 28.5 -60t63.5 -22q36 0 62.5 22t33.5 60h195q-5 -98 -81.5 -169.5t-207.5 -71.5q-133 0 -210 71.5t-77 169.5zM485 594h363l-180 594z" />
<glyph unicode="&#x4d1;" d="M86 328q0 132 60 213.5t205.5 125.5t393.5 48v30q0 29 -14 49.5t-37.5 33t-60.5 20t-75 10t-89 2.5q-128 0 -295 -37v217q176 47 393 47q98 0 179 -21t143 -62t96.5 -108t34.5 -153v-743h-266v68q-68 -39 -158.5 -60.5t-167.5 -21.5q-157 0 -249.5 89.5t-92.5 252.5z M272 1499h193q3 -38 28.5 -60t63.5 -22q36 0 62.5 22t33.5 60h195q-5 -98 -82 -170t-207 -72q-133 0 -210 71.5t-77 170.5zM367 340q0 -137 143 -137q110 0 235 71v230q-83 -1 -137.5 -5t-104.5 -14.5t-77 -28t-43 -46.5t-16 -70z" />
<glyph unicode="&#x4d2;" horiz-adv-x="1333" d="M12 0l484 1489h346l481 -1489h-287l-112 358h-514l-113 -358h-285zM309 1628v260h275v-260h-275zM485 594h363l-180 594zM750 1628v260h274v-260h-274z" />
<glyph unicode="&#x4d3;" d="M86 328q0 132 60 213.5t205.5 125.5t393.5 48v30q0 29 -14 49.5t-37.5 33t-60.5 20t-75 10t-89 2.5q-128 0 -295 -37v217q176 47 393 47q98 0 179 -21t143 -62t96.5 -108t34.5 -153v-743h-266v68q-68 -39 -158.5 -60.5t-167.5 -21.5q-157 0 -249.5 89.5t-92.5 252.5z M238 1229v260h274v-260h-274zM367 340q0 -137 143 -137q110 0 235 71v230q-83 -1 -137.5 -5t-104.5 -14.5t-77 -28t-43 -46.5t-16 -70zM678 1229v260h274v-260h-274z" />
<glyph unicode="&#x4d4;" horiz-adv-x="1843" d="M16 0l709 1489h1036v-238h-579v-381h555l-92 -237h-463v-395h579v-238h-862v358h-426l-170 -358h-287zM586 594h313v655z" />
<glyph unicode="&#x4d5;" horiz-adv-x="1843" d="M66 328q0 132 60 213.5t205.5 125.5t393.5 48v30q0 29 -14 49.5t-37.5 33t-60.5 20t-75 10t-89 2.5q-128 0 -295 -37v217q176 47 393 47q247 0 364 -137q117 137 363 137q248 0 362.5 -124t114.5 -404q0 -83 -8 -151h-686q11 -103 61 -149t164 -46q211 3 430 66v-213 q-230 -80 -446 -80q-55 0 -97.5 4.5t-97.5 19.5t-105.5 49t-93.5 86q-210 -159 -464 -159q-157 0 -249.5 89.5t-92.5 252.5zM346 340q0 -137 143 -137q71 0 157 32.5t153 83.5q-14 88 -17 185q-62 -1 -97 -2t-84 -3.5t-76.5 -7.5t-61 -13t-51.5 -19.5t-35 -28t-24 -39 t-7 -51.5zM1055 629h428q-6 122 -52 177.5t-157 55.5q-114 0 -161 -55t-58 -178z" />
<glyph unicode="&#x4d6;" horiz-adv-x="1230" d="M129 0v1489h1006v-238h-723v-381h698l-92 -237h-606v-395h723v-238h-1006zM367 1851h192q3 -38 28.5 -60t63.5 -22q36 0 63 22t34 60h194q-5 -98 -81.5 -169.5t-207.5 -71.5q-133 0 -209.5 71.5t-76.5 169.5z" />
<glyph unicode="&#x4d7;" d="M84 526q0 297 120 429t376 132q248 0 362.5 -124t114.5 -404q0 -83 -8 -151h-687q11 -103 61.5 -149t164.5 -46q190 0 430 66v-213q-230 -80 -447 -80q-261 0 -374 128.5t-113 411.5zM297 1499h192q3 -37 29 -59.5t64 -22.5q36 0 62.5 22t33.5 60h194q-5 -98 -81.5 -170 t-206.5 -72q-133 0 -210 71.5t-77 170.5zM360 629h428q-6 123 -51.5 178t-156.5 55q-114 0 -161.5 -55t-58.5 -178z" />
<glyph unicode="&#x4d8;" horiz-adv-x="1576" d="M125 707l2 129q2 16 2 43h1026q-6 113 -33.5 188t-80.5 117t-121 59t-166 17q-272 0 -572 -95v224q142 52 301 80t297 28q165 0 285.5 -39t206 -126t128 -230t42.5 -346q0 -206 -45.5 -355t-134 -239.5t-210.5 -133t-282 -42.5q-314 0 -479.5 173t-165.5 548zM399 647 q8 -221 96.5 -323.5t274.5 -102.5q364 0 385 426h-756z" />
<glyph unicode="&#x4d9;" d="M84 514q0 84 8 152h686q-11 103 -61 148.5t-164 45.5q-208 0 -430 -65v213q227 79 446 79q261 0 374.5 -128.5t113.5 -411.5q0 -297 -120 -429t-376 -132q-248 0 -362.5 124t-114.5 404zM348 444q6 -123 52.5 -179t160.5 -56q116 0 165.5 56t57.5 179h-436z" />
<glyph unicode="&#x4da;" horiz-adv-x="1576" d="M125 707l2 129q2 16 2 43h1026q-6 113 -33.5 188t-80.5 117t-121 59t-166 17q-272 0 -572 -95v224q142 52 301 80t297 28q165 0 285.5 -39t206 -126t128 -230t42.5 -346q0 -206 -45.5 -355t-134 -239.5t-210.5 -133t-282 -42.5q-314 0 -479.5 173t-165.5 548zM399 647 q8 -221 96.5 -323.5t274.5 -102.5q364 0 385 426h-756zM414 1628v260h274v-260h-274zM854 1628v260h274v-260h-274z" />
<glyph unicode="&#x4db;" d="M84 514q0 84 8 152h686q-11 103 -61 148.5t-164 45.5q-208 0 -430 -65v213q227 79 446 79q261 0 374.5 -128.5t113.5 -411.5q0 -297 -120 -429t-376 -132q-248 0 -362.5 124t-114.5 404zM217 1229v260h275v-260h-275zM348 444q6 -123 52.5 -179t160.5 -56q116 0 165.5 56 t57.5 179h-436zM657 1229v260h275v-260h-275z" />
<glyph unicode="&#x4dc;" horiz-adv-x="1761" d="M23 0l217 618q32 90 99 145.5t163 59.5l-479 666h325l385 -602v602h287v-600l387 600h326l-482 -664q95 0 165.5 -56.5t101.5 -145.5l213 -623h-285l-180 547q-19 55 -46 82.5t-77 27.5h-123v-657h-287v657h-108q-48 0 -84 -29t-54 -85l-180 -543h-284zM518 1628v260h275 v-260h-275zM958 1628v260h275v-260h-275z" />
<glyph unicode="&#x4dd;" horiz-adv-x="1433" d="M2 1075h311l262 -360v360h269v-362l260 362h313l-399 -489q87 -5 146.5 -51t95.5 -142l147 -393h-279l-114 336q-23 66 -56 88t-81 22h-33v-446h-269v446h-30q-48 0 -80 -22t-55 -88l-117 -336h-277l146 393q33 90 95 139t144 54zM358 1229v260h275v-260h-275zM799 1229 v260h274v-260h-274z" />
<glyph unicode="&#x4de;" horiz-adv-x="1112" d="M51 96v223q221 -100 445 -100q132 0 189.5 50t62.5 157q0 68 -25 114t-75 70t-109.5 33.5t-143.5 9.5h-110v238h110q57 0 105.5 9.5t94.5 32t72.5 68t26.5 109.5q0 78 -46 118t-152 40q-218 0 -398 -125v219q175 141 437 141q224 -8 333 -103t109 -286q0 -209 -189 -313 q242 -84 242 -375q0 -227 -133 -336.5t-377 -109.5q-256 0 -469 116zM184 1628v260h275v-260h-275zM625 1628v260h274v-260h-274z" />
<glyph unicode="&#x4df;" horiz-adv-x="860" d="M59 88v211q228 -104 338 -104q150 0 150 116q0 76 -57 104.5t-162 28.5h-109v213h109q34 0 63 5t57.5 18t45 39t16.5 63q0 78 -111 78q-60 0 -143.5 -28t-165.5 -87v211q70 57 157.5 89t170.5 32q174 0 259 -72t85 -221q0 -67 -38 -121.5t-93 -87.5q170 -75 170 -264 q0 -166 -96 -250t-271 -84q-188 0 -375 111zM63 1229v260h275v-260h-275zM504 1229v260h274v-260h-274z" />
<glyph unicode="&#x4e0;" horiz-adv-x="1228" d="M29 102h276q0 -120 69 -196t185 -76q303 0 303 418q0 177 -109 277t-321 100v194l363 438h-691v232h1010v-229l-366 -439q391 -93 391 -573q0 -645 -584 -645q-241 0 -383.5 131.5t-142.5 367.5z" />
<glyph unicode="&#x4e1;" horiz-adv-x="983" d="M49 37h262q0 -90 46 -152.5t118 -62.5q189 0 189 264q0 134 -78.5 196t-239.5 62v180l270 326h-512v225h811v-221l-268 -313q136 -48 209.5 -171.5t73.5 -283.5q0 -239 -106 -362t-349 -123q-193 0 -309.5 116t-116.5 320z" />
<glyph unicode="&#x4e2;" horiz-adv-x="1437" d="M135 0h387l508 1186v-1186h273v1489h-388l-507 -1186v1186h-273v-1489zM416 1628v178h614v-178h-614z" />
<glyph unicode="&#x4e3;" horiz-adv-x="1214" d="M139 0v1075h275v-674l340 674h315v-1075h-272v680l-344 -680h-314zM307 1276v178h615v-178h-615z" />
<glyph unicode="&#x4e4;" horiz-adv-x="1437" d="M135 0h387l508 1186v-1186h273v1489h-388l-507 -1186v1186h-273v-1489zM365 1628v260h274v-260h-274zM805 1628v260h274v-260h-274z" />
<glyph unicode="&#x4e5;" horiz-adv-x="1214" d="M139 0v1075h275v-674l340 674h315v-1075h-272v680l-344 -680h-314zM256 1229v260h274v-260h-274zM696 1229v260h275v-260h-275z" />
<glyph unicode="&#x4e6;" horiz-adv-x="1406" d="M100 739q0 190 31 328t100.5 237.5t186.5 149t284 49.5t284 -49.5t187 -149t101 -237.5t31 -328q0 -189 -31 -324.5t-101 -232.5t-187 -144.5t-284 -47.5t-284 47.5t-186.5 144.5t-100.5 232.5t-31 324.5zM342 1628v260h274v-260h-274zM383 739q0 -266 73 -389t246 -123 t246.5 123t73.5 389t-74 396.5t-246 130.5t-245.5 -130t-73.5 -397zM782 1628v260h275v-260h-275z" />
<glyph unicode="&#x4e7;" horiz-adv-x="1165" d="M84 528q0 -258 120.5 -400t377.5 -142q260 0 377.5 140t117.5 402q0 271 -117.5 415t-377.5 144q-498 0 -498 -559zM227 1229v260h275v-260h-275zM367 528q0 179 51 256.5t164 77.5q107 0 160 -79t53 -255q0 -172 -52.5 -244.5t-160.5 -72.5q-115 0 -165 71.5t-50 245.5z M668 1229v260h274v-260h-274z" />
<glyph unicode="&#x4e8;" horiz-adv-x="1406" d="M100 739q0 190 31 328t100.5 237.5t186.5 149t284 49.5t284 -49.5t187 -149t101 -237.5t31 -328q0 -189 -31 -324.5t-101 -232.5t-187 -144.5t-284 -47.5t-284 47.5t-186.5 144.5t-100.5 232.5t-31 324.5zM385 641q14 -216 86 -315t231 -99q158 0 231.5 100t84.5 314 h-633zM387 850h631q-14 209 -87.5 312.5t-228.5 103.5q-176 0 -247 -136q-56 -103 -68 -280z" />
<glyph unicode="&#x4e9;" horiz-adv-x="1165" d="M84 528q0 -258 120.5 -400t377.5 -142q260 0 377.5 140t117.5 402q0 271 -117.5 415t-377.5 144q-498 0 -498 -559zM371 434h417q-10 -116 -61.5 -169.5t-144.5 -53.5q-112 0 -164 70q-38 54 -47 153zM371 623q10 124 62 181.5t149 57.5q92 0 144 -58t65 -181h-420z" />
<glyph unicode="&#x4ea;" horiz-adv-x="1406" d="M100 739q0 190 31 328t100.5 237.5t186.5 149t284 49.5t284 -49.5t187 -149t101 -237.5t31 -328q0 -189 -31 -324.5t-101 -232.5t-187 -144.5t-284 -47.5t-284 47.5t-186.5 144.5t-100.5 232.5t-31 324.5zM342 1628v260h274v-260h-274zM385 641q14 -216 86 -315t231 -99 q158 0 231.5 100t84.5 314h-633zM387 850h631q-14 209 -87.5 312.5t-228.5 103.5q-176 0 -247 -136q-56 -103 -68 -280zM782 1628v260h275v-260h-275z" />
<glyph unicode="&#x4eb;" horiz-adv-x="1165" d="M84 528q0 -258 120.5 -400t377.5 -142q260 0 377.5 140t117.5 402q0 271 -117.5 415t-377.5 144q-498 0 -498 -559zM227 1229v260h275v-260h-275zM371 434h417q-10 -116 -61.5 -169.5t-144.5 -53.5q-112 0 -164 70q-38 54 -47 153zM371 623q10 124 62 181.5t149 57.5 q92 0 144 -58t65 -181h-420zM668 1229v260h274v-260h-274z" />
<glyph unicode="&#x4ec;" horiz-adv-x="1189" d="M78 66q252 -76 450 -76q126 0 225.5 37t167.5 103t112.5 161.5t64.5 208.5t20 248q0 179 -32.5 315.5t-101.5 236.5t-183.5 151.5t-272.5 51.5q-227 0 -450 -73v-216q131 29 222 40.5t196 11.5q158 0 235.5 -104.5t95.5 -311.5h-518l80 -209h438q-11 -195 -95.5 -304.5 t-237.5 -109.5q-176 0 -416 58v-219zM199 1628v260h274v-260h-274zM639 1628v260h274v-260h-274z" />
<glyph unicode="&#x4ed;" horiz-adv-x="976" d="M78 49q171 -65 375 -65q462 0 462 555q0 126 -26 224.5t-80.5 172t-145.5 112.5t-214 39q-201 0 -355 -63v-215q155 47 303 47q117 0 165 -53t67 -168h-404l80 -209h322q-11 -57 -24 -91.5t-38 -64.5t-66.5 -42.5t-103.5 -12.5q-144 0 -317 49v-215zM115 1229v260h274 v-260h-274zM555 1229v260h274v-260h-274z" />
<glyph unicode="&#x4ee;" horiz-adv-x="1198" d="M129 778v649l274 82v-745q0 -52 31 -74t96 -22q87 0 265 53v768h272v-1155q0 -170 -123.5 -257t-329.5 -87q-175 0 -383 47v217q71 -18 156 -28.5t133 -10.5q58 0 96 3t75 12t58 26t33.5 45.5t12.5 69.5v133q-198 -66 -303 -66q-162 0 -262.5 82.5t-100.5 257.5z M293 1628v178h614v-178h-614z" />
<glyph unicode="&#x4ef;" horiz-adv-x="1198" d="M129 367v649l274 82v-746q0 -52 31 -74t96 -22q87 0 265 53v768h272v-1130q0 -170 -123.5 -257t-329.5 -87q-175 0 -383 47v217q71 -18 156 -28.5t133 -10.5q58 0 96 3t75 12t58 26t33.5 45.5t12.5 69.5v108q-195 -65 -303 -65q-162 0 -262.5 82.5t-100.5 257.5z M299 1276v178h614v-178h-614z" />
</font>
</defs>
</svg>
